STARTFONT 2.1
COMMENT
COMMENT Converted from OpenType font "NimbusSans-Regular.otf" by "otf2bdf 3.0".
COMMENT
FONT -FreeType-Nimbus Sans-Medium-R-Normal--58-420-100-100-P-304-ISO10646-1
SIZE 42 100 100
FONTBOUNDINGBOX 72 80 -12 -17
STARTPROPERTIES 19
FOUNDRY "FreeType"
FAMILY_NAME "Nimbus Sans"
WEIGHT_NAME "Medium"
SLANT "R"
SETWIDTH_NAME "Normal"
ADD_STYLE_NAME ""
PIXEL_SIZE 58
POINT_SIZE 420
RESOLUTION_X 100
RESOLUTION_Y 100
SPACING "P"
AVERAGE_WIDTH 304
CHARSET_REGISTRY "ISO10646"
CHARSET_ENCODING "1"
FONT_ASCENT 42
FONT_DESCENT 15
COPYRIGHT "(URW)++,Copyright 2014 by (URW)++ Design & Development"
_OTF_FONTFILE "NimbusSans-Regular.otf"
_OTF_PSNAME "NimbusSans-Regular"
ENDPROPERTIES
CHARS 854
STARTCHAR 0020
ENCODING 32
SWIDTH 274 0
DWIDTH 16 0
BBX 0 0 0 0
BITMAP
ENDCHAR
STARTCHAR 0021
ENCODING 33
SWIDTH 274 0
DWIDTH 16 0
BBX 5 43 7 0
BITMAP
F8
F8
F8
F8
F8
F8
F8
F8
F8
F8
F8
F8
F8
F8
F8
F8
F8
F8
F8
F8
F8
F8
78
78
78
78
70
70
70
70
70
70
70
00
00
00
00
F8
F8
F8
F8
F8
F8
ENDCHAR
STARTCHAR 0022
ENCODING 34
SWIDTH 360 0
DWIDTH 21 0
BBX 15 14 3 27
BITMAP
F87E
F87E
F87E
F87E
F87E
F87E
F87E
F83E
F83C
783C
783C
703C
7018
7018
ENDCHAR
STARTCHAR 0023
ENCODING 35
SWIDTH 548 0
DWIDTH 32 0
BBX 31 41 1 -1
BITMAP
001E01E0
001E03E0
001E03E0
003E03E0
003E03C0
003C03C0
003C03C0
003C07C0
007C07C0
007C0780
007C0780
3FFFFFFE
3FFFFFFE
3FFFFFFE
3FFFFFFE
00F80F00
00F00F00
00F00F00
00F01F00
01F01F00
01F01E00
01F01E00
01E01E00
01E03E00
01E03E00
FFFFFFF8
FFFFFFF8
FFFFFFF8
FFFFFFF8
03C07C00
07C07C00
07C07800
07C07800
07807800
0780F800
0780F800
0F80F000
0F80F000
0F00F000
0F01F000
0F01F000
ENDCHAR
STARTCHAR 0024
ENCODING 36
SWIDTH 548 0
DWIDTH 32 0
BBX 29 52 2 -7
BITMAP
00070000
00070000
00070000
001FC000
00FFF800
03FFFE00
07FFFF00
0FF77F80
1F870FC0
3F0707C0
3E0703E0
3C0703E0
7C0703E0
7C0701E0
7C0701E0
7C070000
7C070000
7E070000
3E070000
3F070000
3FC70000
1FFF0000
0FFFC000
07FFF800
01FFFE00
003FFF80
0007FFC0
00073FE0
00070FF0
000703F0
000701F0
000701F8
000700F8
F80700F8
F80700F8
F80700F8
780700F0
7C0701F0
7C0701F0
7E0703E0
3F0707E0
3FC70FC0
1FFFFF80
0FFFFF00
03FFFE00
00FFF800
00070000
00070000
00070000
00070000
00070000
00070000
ENDCHAR
STARTCHAR 0025
ENCODING 37
SWIDTH 891 0
DWIDTH 52 0
BBX 48 42 2 -1
BITMAP
000000007800
03F80000F000
0FFE0000F000
1FFF0001E000
3FFF8001E000
7E0FC003C000
7C03E003C000
F803E0078000
F001E0078000
F001F00F0000
F000F00E0000
F000F01E0000
F001E03C0000
F001E03C0000
F803E0780000
7C03E0780000
7F0FC0F00000
3FFF80F00000
1FFF01E00000
0FFE01E00000
03F803C00000
000003800000
000007801F80
000007007FF0
00000F00FFF8
00001E01FFFC
00001E03F0FE
00003C07C03E
00003C07801F
00007807800F
0000780F000F
0000F00F000F
0000E00F000F
0001E00F000F
0001C007800F
0003C007801F
00078007C03E
00078003F0FC
000F0001FFFC
000F0000FFF8
001E00007FE0
001E00001F80
ENDCHAR
STARTCHAR 0026
ENCODING 38
SWIDTH 668 0
DWIDTH 39 0
BBX 34 42 3 -1
BITMAP
000FC00000
007FF00000
00FFFC0000
01FFFC0000
03F07E0000
03E03F0000
07C01F0000
07C01F0000
07C00F0000
07C00F0000
07C01F0000
07C01F0000
07E03F0000
03E07E0000
01F0FC0000
01F9F80000
00FFF00000
007FE00000
007F800000
00FF800000
03FF800000
07EFC00000
0FC7E03C00
1F83F03C00
3E01F87C00
7E00FC7C00
7C00FC7C00
F8007EF800
F8003FF800
F8001FF800
F8000FF000
F8000FF000
F80007E000
FC0007F000
7E000FF800
7F003FFC00
7F807FFC00
3FFFFE7E00
1FFFFC3F00
0FFFF01F80
03FFE01FC0
00FF000000
ENDCHAR
STARTCHAR 0027
ENCODING 39
SWIDTH 188 0
DWIDTH 11 0
BBX 5 14 3 27
BITMAP
F8
F8
F8
F8
F8
F8
F8
F8
F8
F8
70
70
70
70
ENDCHAR
STARTCHAR 0028
ENCODING 40
SWIDTH 325 0
DWIDTH 19 0
BBX 13 55 4 -12
BITMAP
0078
0070
00F0
01E0
01E0
03C0
03C0
0780
0780
0F00
0F00
1F00
1E00
1E00
3E00
3C00
3C00
3C00
7C00
7C00
7C00
7800
7800
7800
F800
F800
F800
F800
F800
F800
F800
F800
7800
7800
7C00
7C00
7C00
3C00
3C00
3E00
3E00
1E00
1E00
1F00
0F00
0F00
0780
0780
03C0
03C0
01E0
01E0
00F0
0070
0078
ENDCHAR
STARTCHAR 0029
ENCODING 41
SWIDTH 325 0
DWIDTH 19 0
BBX 13 55 2 -12
BITMAP
7000
7800
3800
3C00
1C00
1E00
0F00
0F00
0F80
0780
0780
03C0
03C0
03E0
03E0
01E0
01E0
01F0
01F0
00F0
00F0
00F8
00F8
00F8
00F8
00F8
00F8
00F8
00F8
00F8
00F8
00F8
00F8
00F0
00F0
00F0
01F0
01F0
01E0
01E0
03E0
03C0
03C0
03C0
0780
0780
0F00
0F00
0E00
1E00
1C00
3C00
3800
7000
F000
ENDCHAR
STARTCHAR 002A
ENCODING 42
SWIDTH 394 0
DWIDTH 23 0
BBX 18 17 2 26
BITMAP
01E000
01E000
01E000
01E000
40E080
78E380
7FFFC0
FFFFC0
1FFE00
01F000
03F000
07F800
0F3C00
0F1E00
1E1F00
0C0E00
040000
ENDCHAR
STARTCHAR 002B
ENCODING 43
SWIDTH 582 0
DWIDTH 34 0
BBX 28 28 3 -1
BITMAP
000F0000
000F0000
000F0000
000F0000
000F0000
000F0000
000F0000
000F0000
000F0000
000F0000
000F0000
000F0000
FFFFFFF0
FFFFFFF0
FFFFFFF0
FFFFFFF0
000F0000
000F0000
000F0000
000F0000
000F0000
000F0000
000F0000
000F0000
000F0000
000F0000
000F0000
000F0000
ENDCHAR
STARTCHAR 002C
ENCODING 44
SWIDTH 274 0
DWIDTH 16 0
BBX 6 15 5 -9
BITMAP
FC
FC
FC
FC
FC
FC
0C
0C
0C
1C
1C
18
F8
F0
80
ENDCHAR
STARTCHAR 002D
ENCODING 45
SWIDTH 325 0
DWIDTH 19 0
BBX 14 4 3 14
BITMAP
FFFC
FFFC
FFFC
FFFC
ENDCHAR
STARTCHAR 002E
ENCODING 46
SWIDTH 274 0
DWIDTH 16 0
BBX 6 6 5 0
BITMAP
FC
FC
FC
FC
FC
FC
ENDCHAR
STARTCHAR 002F
ENCODING 47
SWIDTH 274 0
DWIDTH 16 0
BBX 16 44 0 -1
BITMAP
0007
0007
0007
000E
000E
000E
001E
001C
001C
003C
0038
0038
0078
0070
0070
00F0
00E0
00E0
00E0
01C0
01C0
01C0
0380
0380
0380
0780
0700
0700
0F00
0E00
0E00
1E00
1C00
1C00
1C00
3800
3800
3800
7000
7000
7000
F000
E000
E000
ENDCHAR
STARTCHAR 0030
ENCODING 48
SWIDTH 548 0
DWIDTH 32 0
BBX 27 43 3 -1
BITMAP
003F8000
01FFE000
03FFF800
07FFFC00
0FFFFC00
1FC0FE00
3F003F00
3F001F00
7E001F80
7E000F80
7C000F80
7C000FC0
FC0007C0
F80007C0
F80007C0
F80007C0
F80007C0
F80007C0
F80007E0
F80007E0
F80007E0
F80007E0
F80007E0
F80007E0
F80007E0
F80007C0
F80007C0
F80007C0
F80007C0
F80007C0
FC0007C0
7C000FC0
7C000F80
7C000F80
7E001F80
3E001F00
3F003F00
1F807E00
0FE1FC00
0FFFFC00
03FFF000
01FFE000
007F8000
ENDCHAR
STARTCHAR 0031
ENCODING 49
SWIDTH 548 0
DWIDTH 32 0
BBX 14 42 6 0
BITMAP
001C
003C
003C
003C
007C
00FC
01FC
0FFC
FFFC
FFFC
FFFC
FFFC
007C
007C
007C
007C
007C
007C
007C
007C
007C
007C
007C
007C
007C
007C
007C
007C
007C
007C
007C
007C
007C
007C
007C
007C
007C
007C
007C
007C
007C
007C
ENDCHAR
STARTCHAR 0032
ENCODING 50
SWIDTH 548 0
DWIDTH 32 0
BBX 28 42 2 0
BITMAP
003FE000
00FFF800
03FFFE00
07FFFF00
0FFFFF80
1FC03FC0
1F800FC0
3F0007E0
3E0003E0
7E0003F0
7E0003F0
7C0001F0
7C0001F0
7C0001F0
7C0003F0
000003E0
000003E0
000007E0
00000FC0
00001F80
00007F80
0000FF00
0003FE00
000FF800
001FF000
007FC000
00FF0000
03FE0000
07F80000
0FE00000
1FC00000
1F800000
3F000000
3E000000
7C000000
7C000000
7C000000
FFFFFFF0
FFFFFFF0
FFFFFFF0
FFFFFFF0
FFFFFFF0
ENDCHAR
STARTCHAR 0033
ENCODING 51
SWIDTH 548 0
DWIDTH 32 0
BBX 28 43 2 -1
BITMAP
003FC000
01FFF800
07FFFC00
0FFFFE00
1FFFFF00
1F803F80
3F001F80
3E000FC0
7E000FC0
7C0007C0
7C0007C0
7C0007C0
7C0007C0
000007C0
000007C0
00000FC0
00001F80
00007F00
001FFE00
001FFC00
001FFC00
001FFF00
0003FF80
00001FC0
00000FC0
000007E0
000003E0
000003E0
000003E0
000003F0
F80003F0
F80003E0
F80003E0
FC0003E0
7C0007E0
7E0007C0
7F000FC0
3F803F80
1FFFFF80
0FFFFF00
07FFFC00
03FFF800
007FC000
ENDCHAR
STARTCHAR 0034
ENCODING 52
SWIDTH 548 0
DWIDTH 32 0
BBX 28 42 2 0
BITMAP
00003C00
00007C00
0000FC00
0000FC00
0001FC00
0003FC00
0003FC00
0007FC00
000FFC00
001F7C00
001F7C00
003E7C00
007C7C00
007C7C00
00F87C00
01F07C00
03E07C00
03E07C00
07C07C00
0F807C00
0F807C00
1F007C00
3E007C00
3E007C00
7C007C00
F8007C00
F0007C00
FFFFFFF0
FFFFFFF0
FFFFFFF0
FFFFFFF0
FFFFFFF0
00007C00
00007C00
00007C00
00007C00
00007C00
00007C00
00007C00
00007C00
00007C00
00007C00
ENDCHAR
STARTCHAR 0035
ENCODING 53
SWIDTH 548 0
DWIDTH 32 0
BBX 28 42 2 -1
BITMAP
0FFFFFC0
0FFFFFC0
0FFFFFC0
0FFFFFC0
0FFFFFC0
0F000000
0F000000
1F000000
1F000000
1F000000
1F000000
1F000000
1E000000
1E000000
3E1FE000
3E7FF800
3FFFFE00
3FFFFF00
3FFFFF80
3F803FC0
3F000FC0
7E0007E0
000007E0
000003E0
000003F0
000003F0
000001F0
000001F0
000001F0
000001F0
000001F0
F80003E0
FC0003E0
7C0007E0
7E0007C0
3F000FC0
3F803F80
1FFFFF00
0FFFFE00
07FFFC00
01FFF000
003FC000
ENDCHAR
STARTCHAR 0036
ENCODING 54
SWIDTH 548 0
DWIDTH 32 0
BBX 27 43 3 -1
BITMAP
001FC000
00FFF000
01FFFC00
07FFFE00
0FFFFF00
0FC03F00
1F801F80
3F000F80
3E000FC0
7E0007C0
7C0007C0
7C000000
7C000000
F8000000
F8000000
F8000000
F81FC000
F8FFF800
F9FFFC00
FBFFFE00
FFFFFF00
FF803F80
FF001F80
FE000FC0
FC0007C0
FC0007E0
F80007E0
F80003E0
F80003E0
F80003E0
F80003E0
F80003E0
7C0007E0
7C0007C0
7E000FC0
3E000FC0
3F001F80
1FC07F00
0FFFFF00
0FFFFE00
07FFF800
01FFF000
003F8000
ENDCHAR
STARTCHAR 0037
ENCODING 55
SWIDTH 548 0
DWIDTH 32 0
BBX 27 41 3 0
BITMAP
FFFFFFE0
FFFFFFE0
FFFFFFE0
FFFFFFE0
FFFFFFE0
000003C0
000007C0
00000F80
00000F00
00001F00
00003E00
00003C00
00007C00
0000F800
0000F000
0001F000
0001E000
0003E000
0003C000
0007C000
000F8000
000F8000
001F0000
001F0000
003E0000
003E0000
003E0000
007C0000
007C0000
00F80000
00F80000
00F80000
01F80000
01F00000
01F00000
01F00000
03E00000
03E00000
03E00000
07E00000
07E00000
ENDCHAR
STARTCHAR 0038
ENCODING 56
SWIDTH 548 0
DWIDTH 32 0
BBX 28 43 2 -1
BITMAP
003FC000
00FFF800
03FFFC00
07FFFE00
0FFFFF00
1FC03F80
1F801FC0
3F000FC0
3E0007C0
3E0007C0
3E0007C0
3E0007C0
3E0007C0
3E0007C0
3F000FC0
1F000F80
1FC01F80
0FF9FF00
07FFFE00
01FFF800
03FFFC00
0FFFFF00
1FE07F80
3F801FC0
3F000FE0
7E0007E0
7C0003E0
FC0003F0
FC0001F0
F80001F0
F80001F0
FC0001F0
FC0003F0
7C0003F0
7E0003E0
7E0007E0
3F000FC0
3FC03FC0
1FFFFF80
0FFFFF00
07FFFE00
01FFF800
003FC000
ENDCHAR
STARTCHAR 0039
ENCODING 57
SWIDTH 548 0
DWIDTH 32 0
BBX 28 43 2 -1
BITMAP
003FC000
01FFF000
03FFFC00
07FFFE00
0FFFFF00
1FC03F00
3F001F80
3E000FC0
7E0007C0
7C0007C0
7C0003E0
FC0003E0
FC0003E0
F80003E0
FC0003E0
FC0003F0
FC0003F0
7C0007F0
7E0007F0
7E000FF0
3F001FF0
3FC03FF0
1FFFFFF0
0FFFFBF0
07FFF3F0
01FFE3E0
007F03E0
000003E0
000003E0
000003E0
000003E0
000007C0
7C0007C0
7E000FC0
3E000F80
3F001F80
3F003F00
1FC07F00
0FFFFE00
0FFFFC00
07FFF800
01FFE000
007F0000
ENDCHAR
STARTCHAR 003A
ENCODING 58
SWIDTH 274 0
DWIDTH 16 0
BBX 6 31 6 0
BITMAP
FC
FC
FC
FC
FC
FC
00
00
00
00
00
00
00
00
00
00
00
00
00
00
00
00
00
00
00
FC
FC
FC
FC
FC
FC
ENDCHAR
STARTCHAR 003B
ENCODING 59
SWIDTH 274 0
DWIDTH 16 0
BBX 7 40 6 -9
BITMAP
FE
FE
FE
FE
FE
FE
00
00
00
00
00
00
00
00
00
00
00
00
00
00
00
00
00
00
00
FE
FE
FE
FE
FE
FE
0E
0E
0C
0C
0C
1C
F8
F0
C0
ENDCHAR
STARTCHAR 003C
ENCODING 60
SWIDTH 582 0
DWIDTH 34 0
BBX 28 28 3 -1
BITMAP
00000010
000000F0
000003F0
00001FF0
00007FF0
0001FFC0
000FFE00
003FF800
00FFC000
07FF0000
1FF80000
7FE00000
FF000000
FC000000
FE000000
FF800000
7FF00000
1FFC0000
03FF0000
00FFE000
003FF800
0007FF00
0001FFC0
00007FF0
00000FF0
000003F0
00000070
00000010
ENDCHAR
STARTCHAR 003D
ENCODING 61
SWIDTH 582 0
DWIDTH 34 0
BBX 28 14 3 7
BITMAP
FFFFFFF0
FFFFFFF0
FFFFFFF0
FFFFFFF0
00000000
00000000
00000000
00000000
00000000
00000000
FFFFFFF0
FFFFFFF0
FFFFFFF0
FFFFFFF0
ENDCHAR
STARTCHAR 003E
ENCODING 62
SWIDTH 582 0
DWIDTH 34 0
BBX 28 28 3 -1
BITMAP
C0000000
F0000000
FC000000
FF800000
FFE00000
3FF80000
07FF0000
01FFC000
003FF000
000FFE00
0003FF80
00007FE0
00001FF0
000003F0
000003F0
00001FF0
00007FE0
0003FF80
000FFC00
007FF000
01FFC000
07FE0000
3FF80000
FFE00000
FF000000
FC000000
E0000000
80000000
ENDCHAR
STARTCHAR 003F
ENCODING 63
SWIDTH 548 0
DWIDTH 32 0
BBX 25 44 5 0
BITMAP
00FF8000
07FFE000
0FFFF800
1FFFFC00
3FFFFE00
7F00FE00
7E007F00
FC003F00
F8001F00
F8001F80
F8001F80
F8001F80
F8001F80
F0001F80
00001F00
00003F00
00003F00
00007E00
0000FC00
0001F800
0003F000
0007E000
000FC000
001F8000
003F0000
003F0000
007E0000
007E0000
007C0000
007C0000
007C0000
007C0000
00000000
00000000
00000000
00000000
00000000
00000000
007C0000
007C0000
007C0000
007C0000
007C0000
007C0000
ENDCHAR
STARTCHAR 0040
ENCODING 64
SWIDTH 1011 0
DWIDTH 59 0
BBX 53 52 2 -8
BITMAP
000000FFC00000
00000FFFFC0000
00007FFFFF0000
0001FFFFFFC000
0007FFFFFFF000
000FF8003FF800
001FE00007FC00
007F800001FE00
00FE000000FF00
01FC0000003F80
01F80000001FC0
03F00000000FC0
07E000000007E0
0FC0007E0007F0
0F8003FF87C3F0
1F8007FFCF81F0
1F000FFFEF81F8
3E003F81EF81F8
3E003E00FF00F8
3E007C007F00F8
7C00FC007F00F8
7C01F8007E00F8
7C01F0003E00F8
7801F0007E00F8
F803E0007C00F8
F803E0007C00F8
F803E0007C00F8
F803E0007C00F8
F807E000F801F0
F807E000F801F0
F807E000F801F0
F803E001F003E0
F803E001F007E0
FC03F003F007C0
7C01F807F00F80
7C01FC1FF01F80
7E00FFFFF87F00
3E007FF8FFFE00
3F003FF0FFFC00
1F800FC07FF000
1FC000003F8000
0FC00000000000
07F00000000000
03F80000000000
03FC0000000000
01FF0000000000
007FC000040000
003FFC00FE0000
000FFFFFFE0000
0007FFFFFE0000
0000FFFFFC0000
00001FFFE00000
ENDCHAR
STARTCHAR 0041
ENCODING 65
SWIDTH 668 0
DWIDTH 39 0
BBX 37 43 1 0
BITMAP
0001FC0000
0001FE0000
0003FE0000
0003FE0000
0003FF0000
0007FF0000
0007DF0000
0007DF8000
000FDF8000
000F8F8000
001F8FC000
001F8FC000
001F07E000
003F07E000
003F07E000
003E03F000
007E03F000
007C03F000
007C01F800
00FC01F800
00F801F800
00F800FC00
01F800FC00
01F000FC00
01F0007E00
03FFFFFE00
03FFFFFE00
07FFFFFF00
07FFFFFF00
07FFFFFF00
0FC0001F80
0FC0001F80
0F80001F80
1F80000FC0
1F80000FC0
1F00000FC0
3F000007E0
3F000007E0
3E000007F0
7E000003F0
7E000003F0
7C000003F8
FC000001F8
ENDCHAR
STARTCHAR 0042
ENCODING 66
SWIDTH 668 0
DWIDTH 39 0
BBX 31 43 5 0
BITMAP
FFFFF800
FFFFFF00
FFFFFFC0
FFFFFFE0
FFFFFFF0
F8000FF0
F80003F8
F80001F8
F80001F8
F80000F8
F80000F8
F80000F8
F80000F8
F80000F8
F80001F8
F80001F0
F80003F0
F8000FE0
FFFFFFC0
FFFFFF00
FFFFFF80
FFFFFFE0
FFFFFFF0
F80007F8
F80001FC
F80000FC
F800007E
F800007E
F800003E
F800003E
F800003E
F800003E
F800003E
F800003E
F800007E
F800007C
F80000FC
F80003FC
FFFFFFF8
FFFFFFF0
FFFFFFE0
FFFFFF80
FFFFFE00
ENDCHAR
STARTCHAR 0043
ENCODING 67
SWIDTH 720 0
DWIDTH 42 0
BBX 36 45 3 -1
BITMAP
0001FF0000
001FFFE000
007FFFF800
00FFFFFC00
01FFFFFE00
03FC01FF00
07F0003F80
0FE0001FC0
1FC0000FC0
1F800007C0
3F000007E0
3F000007E0
3E000003E0
7E000003F0
7C00000000
7C00000000
FC00000000
FC00000000
FC00000000
F800000000
F800000000
F800000000
F800000000
F800000000
F800000000
F800000000
FC00000000
FC00000000
FC000001F0
7C000001F0
7C000003F0
7E000003F0
7E000003F0
3F000003E0
3F000007E0
1F800007E0
1FC0000FC0
0FE0001FC0
07F8003F80
07FE01FF00
03FFFFFE00
00FFFFFC00
007FFFF800
001FFFE000
0003FF0000
ENDCHAR
STARTCHAR 0044
ENCODING 68
SWIDTH 720 0
DWIDTH 42 0
BBX 34 43 5 0
BITMAP
FFFFF80000
FFFFFF0000
FFFFFFC000
FFFFFFE000
FFFFFFF000
FC000FF800
FC0003FC00
FC0000FE00
FC00007E00
FC00003F00
FC00003F00
FC00001F00
FC00001F80
FC00001F80
FC00000F80
FC00000F80
FC00000FC0
FC00000FC0
FC00000FC0
FC00000FC0
FC00000FC0
FC00000FC0
FC00000FC0
FC00000FC0
FC00000FC0
FC00000FC0
FC00000FC0
FC00000F80
FC00000F80
FC00001F80
FC00001F80
FC00001F00
FC00003F00
FC00003F00
FC00007E00
FC0000FE00
FC0001FC00
FC000FF800
FFFFFFF000
FFFFFFE000
FFFFFFC000
FFFFFF0000
FFFFF80000
ENDCHAR
STARTCHAR 0045
ENCODING 69
SWIDTH 668 0
DWIDTH 39 0
BBX 31 43 5 0
BITMAP
FFFFFFFC
FFFFFFFC
FFFFFFFC
FFFFFFFC
FFFFFFFC
FC000000
FC000000
FC000000
FC000000
FC000000
FC000000
FC000000
FC000000
FC000000
FC000000
FC000000
FC000000
FC000000
FFFFFFF8
FFFFFFF8
FFFFFFF8
FFFFFFF8
FFFFFFF8
FC000000
FC000000
FC000000
FC000000
FC000000
FC000000
FC000000
FC000000
FC000000
FC000000
FC000000
FC000000
FC000000
FC000000
FC000000
FFFFFFFE
FFFFFFFE
FFFFFFFE
FFFFFFFE
FFFFFFFE
ENDCHAR
STARTCHAR 0046
ENCODING 70
SWIDTH 617 0
DWIDTH 36 0
BBX 29 43 5 0
BITMAP
FFFFFFF8
FFFFFFF8
FFFFFFF8
FFFFFFF8
FFFFFFF8
FC000000
FC000000
FC000000
FC000000
FC000000
FC000000
FC000000
FC000000
FC000000
FC000000
FC000000
FC000000
FC000000
FFFFFFC0
FFFFFFC0
FFFFFFC0
FFFFFFC0
FFFFFFC0
FC000000
FC000000
FC000000
FC000000
FC000000
FC000000
FC000000
FC000000
FC000000
FC000000
FC000000
FC000000
FC000000
FC000000
FC000000
FC000000
FC000000
FC000000
FC000000
FC000000
ENDCHAR
STARTCHAR 0047
ENCODING 71
SWIDTH 771 0
DWIDTH 45 0
BBX 38 45 3 -1
BITMAP
0001FF8000
000FFFF000
003FFFFC00
00FFFFFF00
01FFFFFF80
03FE007FC0
07F8001FE0
0FE0000FF0
1FC00003F0
1F800003F8
3F000001F8
3F000000F8
7E000000FC
7E000000FC
7C00000000
FC00000000
FC00000000
F800000000
F800000000
F800000000
F800000000
F80007FFFC
F80007FFFC
F80007FFFC
F80007FFFC
F80007FFFC
F80000003C
FC0000003C
FC0000003C
FC0000007C
7C0000007C
7E0000007C
7E0000007C
3F000000FC
3F000001FC
1F800001FC
1FC00003FC
0FE00007FC
07F8001FBC
03FE007F3C
01FFFFFE3C
00FFFFFC3C
007FFFF01C
001FFFC01C
0003FE0000
ENDCHAR
STARTCHAR 0048
ENCODING 72
SWIDTH 720 0
DWIDTH 42 0
BBX 33 43 5 0
BITMAP
F800001F80
F800001F80
F800001F80
F800001F80
F800001F80
F800001F80
F800001F80
F800001F80
F800001F80
F800001F80
F800001F80
F800001F80
F800001F80
F800001F80
F800001F80
F800001F80
F800001F80
F800001F80
FFFFFFFF80
FFFFFFFF80
FFFFFFFF80
FFFFFFFF80
FFFFFFFF80
F800001F80
F800001F80
F800001F80
F800001F80
F800001F80
F800001F80
F800001F80
F800001F80
F800001F80
F800001F80
F800001F80
F800001F80
F800001F80
F800001F80
F800001F80
F800001F80
F800001F80
F800001F80
F800001F80
F800001F80
ENDCHAR
STARTCHAR 0049
ENCODING 73
SWIDTH 274 0
DWIDTH 16 0
BBX 5 43 6 0
BITMAP
F8
F8
F8
F8
F8
F8
F8
F8
F8
F8
F8
F8
F8
F8
F8
F8
F8
F8
F8
F8
F8
F8
F8
F8
F8
F8
F8
F8
F8
F8
F8
F8
F8
F8
F8
F8
F8
F8
F8
F8
F8
F8
F8
ENDCHAR
STARTCHAR 004A
ENCODING 74
SWIDTH 497 0
DWIDTH 29 0
BBX 24 44 1 -1
BITMAP
00003F
00003F
00003F
00003F
00003F
00003F
00003F
00003F
00003F
00003F
00003F
00003F
00003F
00003F
00003F
00003F
00003F
00003F
00003F
00003F
00003F
00003F
00003F
00003F
00003F
00003F
00003F
00003F
00003F
FC003F
FC003F
FC003F
FC003F
FC003F
FC003F
FC003F
7E007E
7E007E
7F01FC
3FFFFC
1FFFF8
0FFFF0
07FFC0
00FF00
ENDCHAR
STARTCHAR 004B
ENCODING 75
SWIDTH 668 0
DWIDTH 39 0
BBX 33 43 5 0
BITMAP
F800003F80
F800007F00
F80000FE00
F80001FC00
F80003F800
F80007F000
F8000FE000
F8001FC000
F8003F8000
F8007F0000
F800FE0000
F801FC0000
F803F80000
F807F00000
F80FE00000
F81FC00000
F83F800000
F87F000000
F8FF800000
F9FF800000
FBFFC00000
FFEFE00000
FFC7E00000
FF83F00000
FF03F80000
FE01F80000
FC00FC0000
FC00FE0000
F8007E0000
F8003F0000
F8003F8000
F8001F8000
F8000FC000
F8000FE000
F80007F000
F80003F000
F80001F800
F80001FC00
F80000FC00
F800007E00
F800007F00
F800003F00
F800001F80
ENDCHAR
STARTCHAR 004C
ENCODING 76
SWIDTH 548 0
DWIDTH 32 0
BBX 26 43 5 0
BITMAP
F8000000
F8000000
F8000000
F8000000
F8000000
F8000000
F8000000
F8000000
F8000000
F8000000
F8000000
F8000000
F8000000
F8000000
F8000000
F8000000
F8000000
F8000000
F8000000
F8000000
F8000000
F8000000
F8000000
F8000000
F8000000
F8000000
F8000000
F8000000
F8000000
F8000000
F8000000
F8000000
F8000000
F8000000
F8000000
F8000000
F8000000
F8000000
FFFFFFC0
FFFFFFC0
FFFFFFC0
FFFFFFC0
FFFFFFC0
ENDCHAR
STARTCHAR 004D
ENCODING 77
SWIDTH 840 0
DWIDTH 49 0
BBX 40 43 4 0
BITMAP
FF0000007F
FF000000FF
FF800000FF
FF800000FF
FF800001FF
FFC00001FF
FFC00001FF
FFC00003FF
FFE00003FF
FFE00003DF
FDE00007DF
FDF00007DF
FDF000079F
FCF0000F9F
FCF8000F9F
FCF8000F1F
FC78001F1F
FC7C001F1F
FC7C001E1F
FC3C003E1F
FC3E003E1F
FC3E003C1F
FC1E007C1F
FC1F007C1F
FC1F00781F
FC0F00F81F
FC0F80F81F
FC0F80F01F
FC0781F01F
FC07C1F01F
FC07C1E01F
FC03E3E01F
FC03E3E01F
FC03E3C01F
FC01F7C01F
FC01F7C01F
FC01F7801F
FC00FF801F
FC00FF801F
FC00FF001F
FC007F001F
FC007F001F
FC007E001F
ENDCHAR
STARTCHAR 004E
ENCODING 78
SWIDTH 720 0
DWIDTH 42 0
BBX 34 43 4 0
BITMAP
FE000007C0
FE000007C0
FF000007C0
FF800007C0
FF800007C0
FFC00007C0
FFC00007C0
FFE00007C0
FFF00007C0
FFF00007C0
FDF80007C0
FCFC0007C0
FCFC0007C0
FC7E0007C0
FC3E0007C0
FC3F0007C0
FC1F8007C0
FC1F8007C0
FC0FC007C0
FC07E007C0
FC07E007C0
FC03F007C0
FC01F807C0
FC01F807C0
FC00FC07C0
FC007C07C0
FC007E07C0
FC003F07C0
FC003F07C0
FC001F87C0
FC000FC7C0
FC000FC7C0
FC0007E7C0
FC0003F7C0
FC0003F7C0
FC0001FFC0
FC0001FFC0
FC0000FFC0
FC00007FC0
FC00007FC0
FC00003FC0
FC00001FC0
FC00001FC0
ENDCHAR
STARTCHAR 004F
ENCODING 79
SWIDTH 771 0
DWIDTH 45 0
BBX 41 45 2 -1
BITMAP
0000FFC00000
0007FFF80000
001FFFFE0000
007FFFFF8000
00FFFFFFC000
01FF007FE000
03FC000FF000
07F00007F800
0FE00001FC00
1FC00000FC00
1F800000FE00
3F0000007E00
3F0000003F00
3E0000003F00
7E0000003F00
7E0000001F00
7C0000001F80
7C0000001F80
7C0000000F80
FC0000000F80
FC0000000F80
FC0000000F80
FC0000000F80
FC0000000F80
FC0000000F80
FC0000000F80
FC0000000F80
7C0000001F80
7C0000001F80
7E0000001F00
7E0000001F00
3E0000003F00
3F0000003E00
3F8000007E00
1F800000FE00
1FC00000FC00
0FE00001F800
07F00007F800
03FC000FF000
01FF003FE000
00FFFFFFC000
007FFFFF8000
003FFFFE0000
0007FFF80000
0000FF800000
ENDCHAR
STARTCHAR 0050
ENCODING 80
SWIDTH 668 0
DWIDTH 39 0
BBX 31 43 5 0
BITMAP
FFFFFC00
FFFFFF80
FFFFFFE0
FFFFFFF0
FFFFFFF8
FC0007F8
FC0001FC
FC0000FC
FC0000FE
FC00007E
FC00007E
FC00007E
FC00007E
FC00007E
FC00007E
FC00007E
FC0000FE
FC0000FC
FC0001FC
FC0007F8
FFFFFFF8
FFFFFFF0
FFFFFFC0
FFFFFF80
FFFFFC00
FC000000
FC000000
FC000000
FC000000
FC000000
FC000000
FC000000
FC000000
FC000000
FC000000
FC000000
FC000000
FC000000
FC000000
FC000000
FC000000
FC000000
FC000000
ENDCHAR
STARTCHAR 0051
ENCODING 81
SWIDTH 771 0
DWIDTH 45 0
BBX 41 47 2 -3
BITMAP
0000FFC00000
0007FFF80000
001FFFFE0000
007FFFFF8000
00FFFFFFC000
01FF007FE000
03FC000FF000
07F00007F800
0FE00001FC00
1FC00000FC00
1F800000FE00
3F0000007E00
3F0000003F00
3E0000003F00
7E0000003F00
7E0000001F80
7C0000001F80
7C0000001F80
FC0000000F80
FC0000000F80
FC0000000F80
FC0000000F80
FC0000000F80
FC0000000F80
FC0000000F80
FC0000000F80
FC0000000F80
7C0000001F80
7C0000001F80
7E0000001F00
7E0000001F00
3E0000003F00
3F0000603E00
3F8000707E00
1F8000FCFE00
1FC000FEFC00
0FE0007FF800
07F0003FF800
03FC000FF000
01FF003FF000
00FFFFFFF800
007FFFFFFC00
003FFFFEFE00
0007FFF83F00
0000FFC01F00
000000000E00
000000000600
ENDCHAR
STARTCHAR 0052
ENCODING 82
SWIDTH 720 0
DWIDTH 42 0
BBX 35 43 5 0
BITMAP
FFFFFF8000
FFFFFFF000
FFFFFFF800
FFFFFFFC00
FFFFFFFE00
FC0001FF00
FC00007F00
FC00003F00
FC00001F80
FC00001F80
FC00001F80
FC00001F80
FC00001F80
FC00001F80
FC00001F80
FC00001F00
FC00001F00
FC00003F00
FC00007E00
FC0001FC00
FFFFFFF800
FFFFFFE000
FFFFFFE000
FFFFFFF800
FFFFFFFC00
FC0000FE00
FC00007E00
FC00003F00
FC00003F00
FC00001F00
FC00001F00
FC00001F00
FC00001F00
FC00001F00
FC00001F00
FC00001F00
FC00001F00
FC00001F00
FC00001F80
FC00001F80
FC00001F80
FC00001FC0
FC00000FE0
ENDCHAR
STARTCHAR 0053
ENCODING 83
SWIDTH 668 0
DWIDTH 39 0
BBX 33 45 3 -1
BITMAP
001FF80000
00FFFF0000
03FFFFC000
07FFFFF000
0FFFFFF800
1FE003FC00
1F8001FC00
3F00007E00
3E00007E00
7E00003E00
7E00003F00
7E00003F00
7E00001F00
7E00000000
7E00000000
7F00000000
3F80000000
3FE0000000
1FFE000000
0FFFC00000
07FFFC0000
03FFFFC000
007FFFF000
0007FFF800
0000FFFC00
00000FFE00
000001FF00
0000007F00
0000003F80
0000001F80
F800001F80
F800000F80
F800000F80
F800000F80
FC00000F80
7C00001F80
7E00001F00
7F00003F00
3F80007E00
1FF001FE00
0FFFFFFC00
07FFFFF800
03FFFFE000
00FFFF8000
000FFC0000
ENDCHAR
STARTCHAR 0054
ENCODING 84
SWIDTH 617 0
DWIDTH 36 0
BBX 34 43 1 0
BITMAP
FFFFFFFFC0
FFFFFFFFC0
FFFFFFFFC0
FFFFFFFFC0
FFFFFFFFC0
0003F00000
0003F00000
0003F00000
0003F00000
0003F00000
0003F00000
0003F00000
0003F00000
0003F00000
0003F00000
0003F00000
0003F00000
0003F00000
0003F00000
0003F00000
0003F00000
0003F00000
0003F00000
0003F00000
0003F00000
0003F00000
0003F00000
0003F00000
0003F00000
0003F00000
0003F00000
0003F00000
0003F00000
0003F00000
0003F00000
0003F00000
0003F00000
0003F00000
0003F00000
0003F00000
0003F00000
0003F00000
0003F00000
ENDCHAR
STARTCHAR 0055
ENCODING 85
SWIDTH 720 0
DWIDTH 42 0
BBX 33 44 5 -1
BITMAP
F800001F80
F800001F80
F800001F80
F800001F80
F800001F80
F800001F80
F800001F80
F800001F80
F800001F80
F800001F80
F800001F80
F800001F80
F800001F80
F800001F80
F800001F80
F800001F80
F800001F80
F800001F80
F800001F80
F800001F80
F800001F80
F800001F80
F800001F80
F800001F80
F800001F80
F800001F80
F800001F80
F800001F80
F800001F80
F800001F80
F800001F80
FC00001F80
FC00001F00
FC00001F00
7C00003F00
7E00007F00
7F00007E00
3F8001FE00
1FF007FC00
0FFFFFF800
07FFFFF000
03FFFFC000
00FFFF0000
001FF80000
ENDCHAR
STARTCHAR 0056
ENCODING 86
SWIDTH 668 0
DWIDTH 39 0
BBX 35 43 2 0
BITMAP
FC000003E0
FC000007E0
7C000007E0
7E000007C0
7E00000FC0
3E00000FC0
3F00000F80
3F00001F80
1F80001F80
1F80001F00
1F80003F00
0FC0003F00
0FC0003E00
07C0007E00
07E0007E00
07E0007C00
03E0007C00
03F000FC00
03F000F800
01F000F800
01F801F800
01F801F000
00F801F000
00FC03F000
00FC03E000
007C03E000
007E07E000
003E07C000
003E07C000
003F0F8000
001F0F8000
001F0F8000
001F9F0000
000F9F0000
000F9F0000
000FFE0000
0007FE0000
0007FE0000
0007FC0000
0003FC0000
0003FC0000
0003F80000
0001F80000
ENDCHAR
STARTCHAR 0057
ENCODING 87
SWIDTH 942 0
DWIDTH 55 0
BBX 53 43 1 0
BITMAP
FC0000FC0001F8
7E0001FC0001F8
7E0001FC0001F8
7E0001FE0003F0
7E0001FE0003F0
3F0003FE0003F0
3F0003FE0003F0
3F0003FF0007E0
3F0007DF0007E0
1F8007DF0007E0
1F8007DF8007E0
1F8007CF8007C0
1F800F8F800FC0
0F800F8F800FC0
0FC00F87C00FC0
0FC00F87C00F80
0FC01F07C01F80
07C01F07C01F80
07E01F03E01F80
07E03E03E01F00
07E03E03E01F00
03E03E03F03F00
03F03E01F03F00
03F07C01F03E00
03F07C01F03E00
01F07C00F87E00
01F07C00F87E00
01F8F800F87C00
01F8F800FC7C00
00F8F8007C7C00
00F8F8007CFC00
00FDF0007CF800
007DF0003EF800
007DF0003EF800
007FE0003FF800
007FE0003FF000
003FE0001FF000
003FE0001FF000
003FC0001FF000
003FC0001FE000
001FC0000FE000
001FC0000FE000
001F80000FE000
ENDCHAR
STARTCHAR 0058
ENCODING 88
SWIDTH 668 0
DWIDTH 39 0
BBX 36 43 2 0
BITMAP
7E00000FE0
7F00000FC0
3F00001F80
1F80003F80
1FC0003F00
0FC0007E00
07E000FE00
07F000FC00
03F001F800
01F803F800
01FC03F000
00FC07E000
007E07E000
007F0FC000
003F1F8000
001F9F8000
001FBF0000
000FFE0000
0007FC0000
0007FC0000
0003F80000
0003F80000
0007FC0000
0007FE0000
000FFE0000
001FBF0000
001FBF8000
003F1F8000
007E0FC000
00FE0FE000
00FC07E000
01F803F000
03F803F800
03F001F800
07E000FC00
0FE000FE00
0FC0007E00
1F80003F00
3F80003F80
3F00001F80
7F00001FC0
FE00000FE0
FC000007F0
ENDCHAR
STARTCHAR 0059
ENCODING 89
SWIDTH 668 0
DWIDTH 39 0
BBX 37 43 1 0
BITMAP
FE000001F8
7E000003F8
7F000003F0
3F800007E0
1F80000FE0
1FC0000FC0
0FC0001FC0
0FE0001F80
07F0003F00
03F0003F00
03F8007E00
01F800FE00
00FC00FC00
00FE01F800
007E01F800
007F03F000
003F03E000
001F87E000
001F8FC000
000FCFC000
0007FF8000
0007FF0000
0003FF0000
0003FE0000
0001FE0000
0000FC0000
0000FC0000
0000FC0000
0000FC0000
0000FC0000
0000FC0000
0000FC0000
0000FC0000
0000FC0000
0000FC0000
0000FC0000
0000FC0000
0000FC0000
0000FC0000
0000FC0000
0000FC0000
0000FC0000
0000FC0000
ENDCHAR
STARTCHAR 005A
ENCODING 90
SWIDTH 617 0
DWIDTH 36 0
BBX 32 43 2 0
BITMAP
7FFFFFFF
7FFFFFFF
7FFFFFFF
7FFFFFFF
7FFFFFFF
0000007E
000000FE
000001FC
000003F8
000003F0
000007F0
00000FE0
00001FC0
00001F80
00003F80
00007F00
0000FE00
0001FC00
0001FC00
0003F800
0007F000
000FE000
000FC000
001FC000
003F8000
007F0000
007E0000
00FE0000
01FC0000
03F80000
03F00000
07F00000
0FE00000
1FC00000
3F800000
3F800000
7F000000
FE000000
FFFFFFFF
FFFFFFFF
FFFFFFFF
FFFFFFFF
FFFFFFFF
ENDCHAR
STARTCHAR 005B
ENCODING 91
SWIDTH 274 0
DWIDTH 16 0
BBX 11 55 4 -12
BITMAP
FFE0
FFE0
FFE0
FFE0
F800
F800
F800
F800
F800
F800
F800
F800
F800
F800
F800
F800
F800
F800
F800
F800
F800
F800
F800
F800
F800
F800
F800
F800
F800
F800
F800
F800
F800
F800
F800
F800
F800
F800
F800
F800
F800
F800
F800
F800
F800
F800
F800
F800
F800
F800
F800
FFE0
FFE0
FFE0
FFE0
ENDCHAR
STARTCHAR 005C
ENCODING 92
SWIDTH 274 0
DWIDTH 16 0
BBX 16 44 0 -1
BITMAP
E000
E000
F000
7000
7000
7000
3800
3800
3800
3C00
1C00
1C00
1E00
0E00
0E00
0F00
0700
0700
0780
0380
0380
03C0
01C0
01C0
01C0
00E0
00E0
00E0
00F0
0070
0070
0078
0038
0038
003C
001C
001C
001E
000E
000E
000E
0007
0007
0007
ENDCHAR
STARTCHAR 005D
ENCODING 93
SWIDTH 274 0
DWIDTH 16 0
BBX 11 55 1 -12
BITMAP
FFE0
FFE0
FFE0
FFE0
03E0
03E0
03E0
03E0
03E0
03E0
03E0
03E0
03E0
03E0
03E0
03E0
03E0
03E0
03E0
03E0
03E0
03E0
03E0
03E0
03E0
03E0
03E0
03E0
03E0
03E0
03E0
03E0
03E0
03E0
03E0
03E0
03E0
03E0
03E0
03E0
03E0
03E0
03E0
03E0
03E0
03E0
03E0
03E0
03E0
03E0
03E0
FFE0
FFE0
FFE0
FFE0
ENDCHAR
STARTCHAR 005E
ENCODING 94
SWIDTH 462 0
DWIDTH 27 0
BBX 22 22 3 19
BITMAP
00F800
00FC00
01FC00
01FC00
01FE00
03DE00
03CF00
078F00
078F00
078780
0F0780
0F03C0
1E03C0
1E03C0
1E01E0
3C01E0
3C00F0
7800F0
7800F0
F80078
F00078
F0003C
ENDCHAR
STARTCHAR 005F
ENCODING 95
SWIDTH 548 0
DWIDTH 32 0
BBX 35 3 -1 -10
BITMAP
FFFFFFFFE0
FFFFFFFFE0
FFFFFFFFE0
ENDCHAR
STARTCHAR 0060
ENCODING 96
SWIDTH 325 0
DWIDTH 19 0
BBX 11 9 2 35
BITMAP
FC00
7E00
3F00
1F00
0F80
0780
03C0
01E0
00E0
ENDCHAR
STARTCHAR 0061
ENCODING 97
SWIDTH 548 0
DWIDTH 32 0
BBX 29 33 2 -1
BITMAP
003FE000
01FFFC00
07FFFE00
0FFFFF00
1FFFFF80
1F801F80
3F000F80
3E000FC0
3E0007C0
3E0007C0
000007C0
000007C0
00000FC0
00007FC0
001FFFC0
03FFFFC0
0FFFFFC0
1FFF87C0
3FE007C0
7F0007C0
7E0007C0
7C0007C0
7C0007C0
FC0007C0
FC000FC0
7C001FC0
7C003FC0
7E007FC0
3FC3FFE0
3FFFF7F8
1FFFC7F8
0FFF83F8
01FC01F8
ENDCHAR
STARTCHAR 0062
ENCODING 98
SWIDTH 548 0
DWIDTH 32 0
BBX 28 44 3 -1
BITMAP
F8000000
F8000000
F8000000
F8000000
F8000000
F8000000
F8000000
F8000000
F8000000
F8000000
F8000000
F81FC000
F87FF800
F9FFFC00
FBFFFE00
FFFFFF00
FFC07F80
FF001F80
FF000FC0
FE000FC0
FC0007E0
FC0007E0
FC0003E0
F80003E0
F80003E0
F80003E0
F80003F0
F80003F0
F80003F0
F80003E0
F80003E0
F80003E0
FC0003E0
FC0007E0
FC0007C0
FE000FC0
FF000FC0
FF801F80
FFC07F80
FFFFFF00
FBFFFE00
F9FFFC00
F8FFF000
001FC000
ENDCHAR
STARTCHAR 0063
ENCODING 99
SWIDTH 497 0
DWIDTH 29 0
BBX 26 33 2 -1
BITMAP
003F8000
01FFF000
03FFF800
07FFFE00
0FFFFE00
1FC07F00
3F003F80
3E001F80
7E000F80
7C000F80
7C000F80
FC000000
F8000000
F8000000
F8000000
F8000000
F8000000
F8000000
F8000000
F8000000
F8000000
F80007C0
FC0007C0
7C000FC0
7E000F80
3E001F80
3F001F00
1FC07F00
1FFBFE00
0FFFFC00
07FFF800
01FFF000
003F8000
ENDCHAR
STARTCHAR 0064
ENCODING 100
SWIDTH 548 0
DWIDTH 32 0
BBX 27 44 2 -1
BITMAP
000003E0
000003E0
000003E0
000003E0
000003E0
000003E0
000003E0
000003E0
000003E0
000003E0
000003E0
007F03E0
01FFE3E0
07FFF3E0
0FFFFBE0
1FFFFFE0
3FC07FE0
3F001FE0
7E001FE0
7E000FE0
FC0007E0
FC0007E0
F80007E0
F80003E0
F80003E0
F80003E0
F80003E0
F80003E0
F80003E0
F80003E0
F80003E0
F80003E0
F80007E0
FC0007E0
7C0007E0
7E000FE0
7E000FE0
3F001FE0
3FC07FE0
1FFFFDE0
0FFFF9E0
07FFF1E0
01FFE1E0
007F0000
ENDCHAR
STARTCHAR 0065
ENCODING 101
SWIDTH 548 0
DWIDTH 32 0
BBX 28 33 2 -1
BITMAP
001FC000
00FFF800
03FFFE00
07FFFF00
0FFFFF80
1FC03F80
1F800FC0
3F0007C0
3E0007E0
7E0003E0
7C0003E0
7C0003F0
7C0001F0
7C0001F0
FFFFFFF0
FFFFFFF0
FFFFFFF0
FFFFFFF0
F8000000
FC000000
7C000000
7C000000
7C0003E0
7E0003E0
3E0007E0
3F0007C0
1F800FC0
1FC01F80
0FFDFF80
07FFFF00
03FFFC00
00FFF800
003FC000
ENDCHAR
STARTCHAR 0066
ENCODING 102
SWIDTH 274 0
DWIDTH 16 0
BBX 14 43 1 0
BITMAP
00FC
03FC
03FC
07FC
0FE0
0F80
0F80
0F80
0F80
0F80
0F80
0F80
FFFC
FFFC
FFFC
FFFC
0F80
0F80
0F80
0F80
0F80
0F80
0F80
0F80
0F80
0F80
0F80
0F80
0F80
0F80
0F80
0F80
0F80
0F80
0F80
0F80
0F80
0F80
0F80
0F80
0F80
0F80
0F80
ENDCHAR
STARTCHAR 0067
ENCODING 103
SWIDTH 548 0
DWIDTH 32 0
BBX 26 44 2 -12
BITMAP
007F0000
01FFC3C0
03FFE3C0
07FFF3C0
0FFFFBC0
1F807FC0
3F003FC0
3E001FC0
3E001FC0
7C000FC0
7C000FC0
7C0007C0
F80007C0
F80007C0
F80007C0
F80007C0
F80007C0
F80007C0
F80007C0
F80007C0
F80007C0
FC0007C0
7C000FC0
7C000FC0
7E000FC0
3E001FC0
3F003FC0
1F807FC0
0FFFF7C0
0FFFF7C0
03FFE7C0
01FF87C0
007E07C0
000007C0
00000780
7C000F80
7C000F80
3E001F80
3F003F00
1F80FE00
1FFFFE00
0FFFF800
03FFF000
00FF8000
ENDCHAR
STARTCHAR 0068
ENCODING 104
SWIDTH 548 0
DWIDTH 32 0
BBX 24 43 4 0
BITMAP
F80000
F80000
F80000
F80000
F80000
F80000
F80000
F80000
F80000
F80000
F80000
F81FC0
F87FF8
F9FFFC
FBFFFE
FFE1FF
FF807F
FF003F
FE001F
FC001F
FC001F
FC001F
F8001F
F8001F
F8001F
F8001F
F8001F
F8001F
F8001F
F8001F
F8001F
F8001F
F8001F
F8001F
F8001F
F8001F
F8001F
F8001F
F8001F
F8001F
F8001F
F8001F
F8001F
ENDCHAR
STARTCHAR 0069
ENCODING 105
SWIDTH 222 0
DWIDTH 13 0
BBX 5 43 4 0
BITMAP
F8
F8
F8
F8
F8
F8
00
00
00
00
00
00
F8
F8
F8
F8
F8
F8
F8
F8
F8
F8
F8
F8
F8
F8
F8
F8
F8
F8
F8
F8
F8
F8
F8
F8
F8
F8
F8
F8
F8
F8
F8
ENDCHAR
STARTCHAR 006A
ENCODING 106
SWIDTH 222 0
DWIDTH 13 0
BBX 10 56 -1 -13
BITMAP
07C0
07C0
07C0
07C0
07C0
07C0
0000
0000
0000
0000
0000
0000
07C0
07C0
07C0
07C0
07C0
07C0
07C0
07C0
07C0
07C0
07C0
07C0
07C0
07C0
07C0
07C0
07C0
07C0
07C0
07C0
07C0
07C0
07C0
07C0
07C0
07C0
07C0
07C0
07C0
07C0
07C0
07C0
07C0
07C0
07C0
07C0
07C0
07C0
07C0
1FC0
FF80
FF80
FF00
F800
ENDCHAR
STARTCHAR 006B
ENCODING 107
SWIDTH 497 0
DWIDTH 29 0
BBX 26 43 3 0
BITMAP
F8000000
F8000000
F8000000
F8000000
F8000000
F8000000
F8000000
F8000000
F8000000
F8000000
F8000000
F8000000
F8003F00
F8007E00
F800FC00
F801F800
F803F000
F807E000
F80FC000
F81F8000
F83F0000
F87E0000
F8FC0000
F9FC0000
FBFE0000
FFFF0000
FFFF0000
FF9F8000
FF1F8000
FE0FC000
FC07E000
F807E000
F803F000
F803F000
F801F800
F800FC00
F800FC00
F8007E00
F8007F00
F8003F00
F8001F80
F8001F80
F8000FC0
ENDCHAR
STARTCHAR 006C
ENCODING 108
SWIDTH 222 0
DWIDTH 13 0
BBX 5 43 4 0
BITMAP
F8
F8
F8
F8
F8
F8
F8
F8
F8
F8
F8
F8
F8
F8
F8
F8
F8
F8
F8
F8
F8
F8
F8
F8
F8
F8
F8
F8
F8
F8
F8
F8
F8
F8
F8
F8
F8
F8
F8
F8
F8
F8
F8
ENDCHAR
STARTCHAR 006D
ENCODING 109
SWIDTH 840 0
DWIDTH 49 0
BBX 40 32 4 0
BITMAP
001FC00FE0
F8FFF03FF8
F9FFF8FFFC
FBFFFDFFFE
FFE7FFF1FF
FF00FFC03F
FE007F803F
FC007F001F
FC003F001F
F8003E001F
F8003E000F
F8003E000F
F8003E000F
F8003E000F
F8003E000F
F8003E000F
F8003E000F
F8003E000F
F8003E000F
F8003E000F
F8003E000F
F8003E000F
F8003E000F
F8003E000F
F8003E000F
F8003E000F
F8003E000F
F8003E000F
F8003E000F
F8003E000F
F8003E000F
F8003E000F
ENDCHAR
STARTCHAR 006E
ENCODING 110
SWIDTH 548 0
DWIDTH 32 0
BBX 24 32 4 0
BITMAP
001FC0
F87FF8
F8FFFC
F9FFFE
FBE1FF
FF807F
FF003F
FE001F
FC001F
FC000F
FC000F
F8000F
F8000F
F8000F
F8000F
F8000F
F8000F
F8000F
F8000F
F8000F
F8000F
F8000F
F8000F
F8000F
F8000F
F8000F
F8000F
F8000F
F8000F
F8000F
F8000F
F8000F
ENDCHAR
STARTCHAR 006F
ENCODING 111
SWIDTH 548 0
DWIDTH 32 0
BBX 28 33 2 -1
BITMAP
003FC000
01FFF800
03FFFC00
07FFFE00
0FFFFF00
1FC03F80
3F801FC0
3F000FC0
7E0007E0
7E0007E0
7C0003E0
7C0003E0
FC0003F0
F80003F0
F80001F0
F80001F0
F80001F0
F80001F0
F80001F0
F80001F0
FC0003E0
7C0003E0
7C0003E0
7E0007E0
7E0007C0
3F000FC0
3F801FC0
1FC03F80
0FFFFF00
07FFFE00
03FFFC00
01FFF800
003FC000
ENDCHAR
STARTCHAR 0070
ENCODING 112
SWIDTH 548 0
DWIDTH 32 0
BBX 28 44 3 -12
BITMAP
001FC000
F87FF800
F9FFFC00
FBFFFE00
FFFFFF00
FFC07F80
FF801F80
FF000FC0
FE000FC0
FC0007E0
FC0007E0
FC0003E0
F80003E0
F80003E0
F80003E0
F80003F0
F80003F0
F80003F0
F80003E0
F80003E0
F80003E0
FC0003E0
FC0007E0
FC0007E0
FE0007C0
FF000FC0
FF801F80
FFC07F80
FFFFFF00
FBFFFE00
F9FFFC00
F8FFF800
F81FC000
F8000000
F8000000
F8000000
F8000000
F8000000
F8000000
F8000000
F8000000
F8000000
F8000000
F8000000
ENDCHAR
STARTCHAR 0071
ENCODING 113
SWIDTH 548 0
DWIDTH 32 0
BBX 27 44 2 -12
BITMAP
007F0000
01FFE1E0
07FFF1E0
0FFFF9E0
1FFFFDE0
1FC07FE0
3F001FE0
7E001FE0
7E000FE0
7C0007E0
FC0007E0
F80007E0
F80003E0
F80003E0
F80003E0
F80003E0
F80003E0
F80003E0
F80003E0
F80003E0
F80003E0
F80007E0
FC0007E0
FC0007E0
7E000FE0
7E000FE0
3F001FE0
3FC07FE0
1FFFFFE0
0FFFFBE0
07FFF3E0
03FFE3E0
007F03E0
000003E0
000003E0
000003E0
000003E0
000003E0
000003E0
000003E0
000003E0
000003E0
000003E0
000003E0
ENDCHAR
STARTCHAR 0072
ENCODING 114
SWIDTH 325 0
DWIDTH 19 0
BBX 15 32 4 0
BITMAP
003E
F87E
F8FE
F9FE
FBFE
FFF0
FF80
FF00
FE00
FC00
FC00
F800
F800
F800
F800
F800
F800
F800
F800
F800
F800
F800
F800
F800
F800
F800
F800
F800
F800
F800
F800
F800
ENDCHAR
STARTCHAR 0073
ENCODING 115
SWIDTH 497 0
DWIDTH 29 0
BBX 25 33 2 -1
BITMAP
00FF8000
03FFE000
0FFFF800
1FFFFC00
3FFFFC00
3F00FE00
7E007E00
7C003E00
7C003F00
7C000000
7C000000
7E000000
7F000000
3FE00000
3FFE0000
1FFFE000
07FFF800
00FFFC00
001FFE00
0001FF00
00003F00
00001F80
00000F80
F8000F80
FC000F80
FC001F80
7E001F00
7F007F00
3FF7FE00
3FFFFC00
1FFFF800
07FFF000
00FF8000
ENDCHAR
STARTCHAR 0074
ENCODING 116
SWIDTH 274 0
DWIDTH 16 0
BBX 14 40 1 -1
BITMAP
0F80
0F80
0F80
0F80
0F80
0F80
0F80
0F80
FFFC
FFFC
FFFC
FFFC
0F80
0F80
0F80
0F80
0F80
0F80
0F80
0F80
0F80
0F80
0F80
0F80
0F80
0F80
0F80
0F80
0F80
0F80
0F80
0F80
0F80
0F80
0F80
0FC0
0FFC
0FFC
07FC
01FC
ENDCHAR
STARTCHAR 0075
ENCODING 117
SWIDTH 548 0
DWIDTH 32 0
BBX 24 32 4 -1
BITMAP
F8001F
F8001F
F8001F
F8001F
F8001F
F8001F
F8001F
F8001F
F8001F
F8001F
F8001F
F8001F
F8001F
F8001F
F8001F
F8001F
F8001F
F8001F
F8001F
F8001F
F8001F
F8001F
F8003F
F8003F
F8007F
FC007F
FE01FF
7F87EF
7FFFCF
3FFF8F
1FFF0F
03FC00
ENDCHAR
STARTCHAR 0076
ENCODING 118
SWIDTH 497 0
DWIDTH 29 0
BBX 27 31 1 0
BITMAP
F80003E0
FC0007E0
FC0007C0
7C0007C0
7E000FC0
7E000F80
3E000F80
3F001F80
1F001F00
1F001F00
1F003E00
0F803E00
0F803E00
0F807C00
07C07C00
07C07800
07C0F800
03E0F800
03E0F000
03E1F000
01F1F000
01F3E000
01F3E000
00FBC000
00FFC000
00FFC000
007F8000
007F8000
007F8000
003F0000
003F0000
ENDCHAR
STARTCHAR 0077
ENCODING 119
SWIDTH 720 0
DWIDTH 42 0
BBX 41 31 0 0
BITMAP
FC003F000F80
7C007F001F80
7C007F001F80
7E007F801F00
3E007F801F00
3E00FF803F00
3E00FF803E00
3F00F7C03E00
1F00F7C03E00
1F01F7C07E00
1F01F3C07C00
0F81E3E07C00
0F81E3E07C00
0F81E3E0F800
0F83E1E0F800
07C3C1F0F800
07C3C1F0F800
07C3C1F1F000
03E7C0F1F000
03E780F9F000
03E780F9E000
03E780FBE000
01FF807BE000
01FF807FC000
01FF007FC000
00FF007FC000
00FF003FC000
00FF003F8000
00FE003F8000
007E003F8000
007E001F0000
ENDCHAR
STARTCHAR 0078
ENCODING 120
SWIDTH 497 0
DWIDTH 29 0
BBX 26 31 1 0
BITMAP
7C000FC0
3E000F80
3F001F80
1F001F00
0F803E00
0FC07E00
07C07C00
03E0F800
03F1F000
01F1F000
00FBE000
00FFC000
007FC000
003F8000
003F0000
001F0000
003F8000
007FC000
007FC000
00FBE000
01F3F000
03F1F000
03E1F800
07C0FC00
0FC07C00
0F807E00
1F003F00
3F001F00
3E001F80
7E000FC0
FC0007C0
ENDCHAR
STARTCHAR 0079
ENCODING 121
SWIDTH 497 0
DWIDTH 29 0
BBX 27 44 1 -13
BITMAP
FC0007E0
7C0007C0
7C0007C0
7C000FC0
3E000F80
3E000F80
3E001F80
1F001F00
1F001F00
1F003E00
0F803E00
0F803E00
0F807C00
07C07C00
07C07C00
07C0F800
03E0F800
03E1F800
03E1F000
01F1F000
01F3E000
01F3E000
00FBE000
00FFC000
00FFC000
007FC000
007F8000
007F8000
003F8000
003F0000
003F0000
003E0000
003E0000
003E0000
007C0000
007C0000
00FC0000
00F80000
01F80000
3FF00000
3FF00000
3FE00000
3FC00000
1E000000
ENDCHAR
STARTCHAR 007A
ENCODING 122
SWIDTH 497 0
DWIDTH 29 0
BBX 25 31 2 0
BITMAP
7FFFFF00
7FFFFF00
7FFFFF00
7FFFFF00
00003F00
00007E00
0000FC00
0001F800
0001F000
0003F000
0007E000
000FC000
001F8000
001F0000
003F0000
007E0000
00FC0000
01F80000
03F00000
03F00000
07E00000
0FC00000
1F800000
3F000000
3F000000
7E000000
FC000000
FFFFFF80
FFFFFF80
FFFFFF80
FFFFFF80
ENDCHAR
STARTCHAR 007B
ENCODING 123
SWIDTH 325 0
DWIDTH 19 0
BBX 13 55 3 -12
BITMAP
00F8
03F8
07F8
07F8
0F80
0F80
0F80
0F80
0F80
0F80
0F80
0F80
0F80
0F80
0F80
0F80
0F80
0F80
0F80
0F80
0F00
0F00
1F00
1F00
3E00
FE00
FC00
F000
FC00
FE00
3E00
1F00
1F00
0F00
0F00
0F80
0F80
0F80
0F80
0F80
0F80
0F80
0F80
0F80
0F80
0F80
0F80
0F80
0F80
0F80
0FC0
07F8
07F8
03F8
00F8
ENDCHAR
STARTCHAR 007C
ENCODING 124
SWIDTH 257 0
DWIDTH 15 0
BBX 3 55 6 -12
BITMAP
E0
E0
E0
E0
E0
E0
E0
E0
E0
E0
E0
E0
E0
E0
E0
E0
E0
E0
E0
E0
E0
E0
E0
E0
E0
E0
E0
E0
E0
E0
E0
E0
E0
E0
E0
E0
E0
E0
E0
E0
E0
E0
E0
E0
E0
E0
E0
E0
E0
E0
E0
E0
E0
E0
E0
ENDCHAR
STARTCHAR 007D
ENCODING 125
SWIDTH 325 0
DWIDTH 19 0
BBX 13 55 2 -12
BITMAP
F800
FE00
FF00
FF00
1F00
0F80
0F80
0F80
0F80
0F80
0F80
0F80
0F80
0F80
0F80
0F80
0F80
0F80
0F80
0F80
0780
0780
07C0
07C0
03E0
03F8
01F8
0078
01F8
03F8
03E0
07C0
07C0
0780
0780
0F80
0F80
0F80
0F80
0F80
0F80
0F80
0F80
0F80
0F80
0F80
0F80
0F80
0F80
0F80
1F00
FF00
FE00
FC00
F800
ENDCHAR
STARTCHAR 007E
ENCODING 126
SWIDTH 582 0
DWIDTH 34 0
BBX 26 10 4 16
BITMAP
07800000
1FE00000
3FF001C0
3FFC03C0
78FF0380
703FC780
700FFF80
F007FF00
E001FF00
00007C00
ENDCHAR
STARTCHAR 00A0
ENCODING 160
SWIDTH 274 0
DWIDTH 16 0
BBX 0 0 0 0
BITMAP
ENDCHAR
STARTCHAR 00A1
ENCODING 161
SWIDTH 325 0
DWIDTH 19 0
BBX 5 43 7 -12
BITMAP
F8
F8
F8
F8
F8
F8
00
00
00
00
70
70
70
70
70
70
70
70
78
F8
F8
F8
F8
F8
F8
F8
F8
F8
F8
F8
F8
F8
F8
F8
F8
F8
F8
F8
F8
F8
F8
F8
F8
ENDCHAR
STARTCHAR 00A2
ENCODING 162
SWIDTH 548 0
DWIDTH 32 0
BBX 27 44 3 -7
BITMAP
00060000
00060000
00060000
00060000
00060000
00060000
007FF000
01FFFC00
03FFFE00
07FFFF00
0FE67F80
1F861F80
3F060FC0
3E0607C0
7E0607C0
7C0607C0
7C0607C0
7C060000
F8060000
F8060000
F8060000
F8060000
F8060000
F8060000
F8060000
F8060000
FC0603E0
7C0603E0
7C0607E0
7E0607C0
3E0607C0
3F060FC0
1F861F80
1FF67F80
0FFFFF00
07FFFE00
01FFF800
007FE000
00060000
00060000
00060000
00060000
00060000
00060000
ENDCHAR
STARTCHAR 00A3
ENCODING 163
SWIDTH 548 0
DWIDTH 32 0
BBX 29 44 2 -1
BITMAP
001FE000
00FFFC00
01FFFE00
07FFFF00
0FFFFF80
1FC01FC0
1F800FE0
3F0007E0
3E0003E0
3E0003F0
7E0003F0
7E0001F0
7E0001F0
7E0001F0
7E000000
3E000000
3F000000
3F000000
1F800000
1F800000
0FC00000
FFFFE000
FFFFE000
FFFFE000
03F00000
01F00000
01F00000
01F00000
01F00000
01F00000
01F00000
01F00000
03E00000
03C00000
07C00000
07800000
0F000000
1E7F0020
3DFFF9F0
FFFFFFF0
7FFFFFF8
7FFFFFF0
3803FFE0
00003F80
ENDCHAR
STARTCHAR 00A4
ENCODING 164
SWIDTH 548 0
DWIDTH 32 0
BBX 24 24 4 8
BITMAP
300004
78000E
FDFFBF
FFFFFF
7FFFFE
3FFFFC
1F83F8
3F00FC
3E007C
3C003E
7C003E
7C003E
7C003E
7C003E
3C003E
3E007C
3F00FC
1FC1F8
3FFFFC
7FFFFE
FFFFFF
7DFF9E
38000C
100000
ENDCHAR
STARTCHAR 00A5
ENCODING 165
SWIDTH 548 0
DWIDTH 32 0
BBX 31 42 1 0
BITMAP
F800003E
F800007C
7C00007C
7C0000F8
3E0000F0
1F0001F0
1F0003E0
0F8003E0
0F8007C0
07C007C0
07C00F80
03E00F00
01F01F00
01F01E00
00F83E00
00F87C00
007C7C00
003CF800
003EF000
001FF000
001FE000
1FFFFFF0
1FFFFFF0
1FFFFFF0
0007C000
0007C000
0007C000
0007C000
0007C000
1FFFFFF0
1FFFFFF0
1FFFFFF0
0007C000
0007C000
0007C000
0007C000
0007C000
0007C000
0007C000
0007C000
0007C000
0007C000
ENDCHAR
STARTCHAR 00A6
ENCODING 166
SWIDTH 257 0
DWIDTH 15 0
BBX 3 55 6 -12
BITMAP
E0
E0
E0
E0
E0
E0
E0
E0
E0
E0
E0
E0
E0
E0
E0
E0
E0
E0
E0
E0
E0
E0
E0
00
00
00
00
00
00
00
00
00
E0
E0
E0
E0
E0
E0
E0
E0
E0
E0
E0
E0
E0
E0
E0
E0
E0
E0
E0
E0
E0
E0
E0
ENDCHAR
STARTCHAR 00A7
ENCODING 167
SWIDTH 548 0
DWIDTH 32 0
BBX 27 55 3 -12
BITMAP
001F8000
00FFF000
01FFF800
03FFFC00
07FFFE00
0FC07E00
0F803F00
1F801F00
1F001F00
1F001F00
1F801F00
1F801F00
0FC00000
0FE00000
07F00000
03FC0000
0FFF0000
1FFF8000
3E3FE000
7C1FF000
F80FFC00
F803FE00
F001FF00
F0007F80
F0003F80
F0001FC0
F8000FC0
FC0007C0
FE0003E0
7F0003E0
7F8003C0
3FE003C0
1FF003C0
0FF807C0
03FE0F80
01FF1F80
007FBF00
003FFC00
000FF800
0007F800
0001FC00
0000FC00
00007E00
00007E00
3E003E00
3E003E00
3E003E00
3E003E00
3F007E00
3F007C00
1FC1FC00
0FFFF800
0FFFF000
03FFE000
01FF8000
ENDCHAR
STARTCHAR 00A8
ENCODING 168
SWIDTH 325 0
DWIDTH 19 0
BBX 15 6 2 36
BITMAP
FC7E
FC7E
FC7E
FC7E
FC7E
FC7E
ENDCHAR
STARTCHAR 00A9
ENCODING 169
SWIDTH 737 0
DWIDTH 43 0
BBX 45 45 -1 -1
BITMAP
00003FE00000
0001FFFE0000
0007FFFF8000
001FFFFFE000
007F800FF000
00FE0003F800
01F80000FC00
03E000003E00
07C000001F00
0F800FC00F80
0F007FF80780
1F00FFFC07C0
1E01FFFC03E0
3C03F03E01E0
3C03C01F01E0
7C07800F00F0
7807800F00F0
780F000F80F0
780F000000F8
F00F00000078
F00F00000078
F00F00000078
F00F00000078
F00F00000078
F00F00000078
F80F00078078
780F000780F0
780F000780F0
7807800F00F0
7C07C00F00F0
3C07C01F01E0
3E03F03E01E0
1E01FFFC03C0
1F00FFF807C0
0F807FF00780
0F801FC00F80
07C000001F00
03F000003E00
01F80000FC00
00FE0003F800
007F800FF000
001FFFFFC000
000FFFFF8000
0003FFFC0000
00003FE00000
ENDCHAR
STARTCHAR 00AA
ENCODING 170
SWIDTH 377 0
DWIDTH 22 0
BBX 17 26 2 18
BITMAP
07F000
1FFC00
3FFE00
7C1E00
780E00
700F00
000F00
000F00
00FF00
1FFF00
3FEF00
7C0F00
F00F00
F00F00
F00F00
F01F00
F87F00
7FFF80
3FE780
1F8780
000000
000000
000000
FFFF80
FFFF80
FFFF80
ENDCHAR
STARTCHAR 00AB
ENCODING 171
SWIDTH 548 0
DWIDTH 32 0
BBX 21 20 6 6
BITMAP
000008
018018
038038
078078
0F81F8
3F03F0
7E07E0
FC0FC0
F00F00
E00E00
E00E00
F00F00
F80F80
7E07E0
3F03F0
1F81F8
0F80F8
038038
018018
008008
ENDCHAR
STARTCHAR 00AC
ENCODING 172
SWIDTH 582 0
DWIDTH 34 0
BBX 30 17 2 5
BITMAP
FFFFFFFC
FFFFFFFC
FFFFFFFC
FFFFFFFC
0000003C
0000003C
0000003C
0000003C
0000003C
0000003C
0000003C
0000003C
0000003C
0000003C
0000003C
0000003C
0000003C
ENDCHAR
STARTCHAR 00AD
ENCODING 173
SWIDTH 325 0
DWIDTH 19 0
BBX 14 4 3 14
BITMAP
FFFC
FFFC
FFFC
FFFC
ENDCHAR
STARTCHAR 00AE
ENCODING 174
SWIDTH 737 0
DWIDTH 43 0
BBX 45 45 -1 -1
BITMAP
00003FE00000
0001FFFE0000
0007FFFF8000
001FFFFFE000
007F800FF000
00FE0003F800
01F80000FC00
03E000003E00
07C000001F00
0F87FFC00F80
0F07FFFC0780
1F07FFFE07C0
1E07FFFF03E0
3C07801F81E0
3C07800F81E0
7C07800780F0
7807800780F0
7807800780F0
7807800780F0
7007800F8078
F007801F0078
F007FFFE0078
F007FFFC0078
F007FFFE0078
F007FFFF0078
F007801F0078
7807800F00F0
7807800F00F0
7807800F80F0
7C07800F80F0
3C07800F81E0
3C07800F81E0
1E07800F83E0
1F07800783C0
0F078007C780
0F878007CF80
07C000001F00
03F000003E00
01F80000FC00
00FE0001F800
007F800FF000
003FFFFFC000
000FFFFF8000
0003FFFC0000
00003FE00000
ENDCHAR
STARTCHAR 00AF
ENCODING 175
SWIDTH 325 0
DWIDTH 19 0
BBX 16 4 2 37
BITMAP
FFFF
FFFF
FFFF
FFFF
ENDCHAR
STARTCHAR 00B0
ENCODING 176
SWIDTH 394 0
DWIDTH 23 0
BBX 17 17 3 23
BITMAP
03F000
0FFC00
1FFE00
3F3F00
780F00
F00780
F00380
E00380
E00380
E00380
F00380
F00780
780F80
7C1F00
3FFE00
1FFC00
07F000
ENDCHAR
STARTCHAR 00B1
ENCODING 177
SWIDTH 582 0
DWIDTH 34 0
BBX 28 37 3 -1
BITMAP
000F0000
000F0000
000F0000
000F0000
000F0000
000F0000
000F0000
000F0000
000F0000
000F0000
000F0000
000F0000
FFFFFFF0
FFFFFFF0
FFFFFFF0
FFFFFFF0
000F0000
000F0000
000F0000
000F0000
000F0000
000F0000
000F0000
000F0000
000F0000
000F0000
000F0000
000F0000
00000000
00000000
00000000
00000000
00000000
FFFFFFF0
FFFFFFF0
FFFFFFF0
FFFFFFF0
ENDCHAR
STARTCHAR 00B2
ENCODING 178
SWIDTH 325 0
DWIDTH 19 0
BBX 17 24 1 17
BITMAP
07F000
1FFC00
3FFF00
7E1F00
780780
700780
F00380
F00380
F00380
000780
000F80
001F00
007E00
01FC00
03F000
0FC000
1F0000
3C0000
780000
780000
F00000
FFFF80
FFFF80
FFFF80
ENDCHAR
STARTCHAR 00B3
ENCODING 179
SWIDTH 325 0
DWIDTH 19 0
BBX 18 25 0 16
BITMAP
03F800
0FFE00
1FFF00
3E1F80
3C0780
780380
780380
780380
000380
000780
01FF00
01FE00
01FF00
001F80
0007C0
0003C0
0001C0
F001C0
7001C0
7803C0
7803C0
3E0F80
3FFF00
1FFE00
07F800
ENDCHAR
STARTCHAR 00B4
ENCODING 180
SWIDTH 325 0
DWIDTH 19 0
BBX 12 9 5 35
BITMAP
03F0
07E0
0FC0
0F80
1F00
3E00
3C00
7800
F000
ENDCHAR
STARTCHAR 00B5
ENCODING 181
SWIDTH 548 0
DWIDTH 32 0
BBX 28 43 4 -12
BITMAP
F8001F00
F8001F00
F8001F00
F8001F00
F8001F00
F8001F00
F8001F00
F8001F00
F8001F00
F8001F00
F8001F00
F8001F00
F8001F00
F8001F00
F8001F00
F8001F00
F8001F00
F8001F00
F8001F00
F8001F00
F8001F00
F8001F00
F8003F00
F8003F00
F8007F00
FC00FF00
FE01FF00
FF87FF80
FFFFCFF0
FFFF8FF0
FFFF0FF0
F9F803F0
F8000000
F8000000
F8000000
F8000000
F8000000
F8000000
F8000000
F8000000
F8000000
F8000000
F8000000
ENDCHAR
STARTCHAR 00B6
ENCODING 182
SWIDTH 531 0
DWIDTH 31 0
BBX 27 53 3 -10
BITMAP
007FFFE0
01FFFFE0
07FFFFE0
0FFFFFE0
1FFF0F00
3FFF0F00
3FFF0F00
7FFF0F00
7FFF0F00
7FFF0F00
FFFF0F00
FFFF0F00
FFFF0F00
FFFF0F00
FFFF0F00
FFFF0F00
FFFF0F00
FFFF0F00
FFFF0F00
7FFF0F00
7FFF0F00
3FFF0F00
3FFF0F00
1FFF0F00
0FFF0F00
07FF0F00
01FF0F00
000F0F00
000F0F00
000F0F00
000F0F00
000F0F00
000F0F00
000F0F00
000F0F00
000F0F00
000F0F00
000F0F00
000F0F00
000F0F00
000F0F00
000F0F00
000F0F00
000F0F00
000F0F00
000F0F00
000F0F00
000F0F00
000F0F00
000F0F00
000F0F00
000F0F00
000F0F00
ENDCHAR
STARTCHAR 00B7
ENCODING 183
SWIDTH 274 0
DWIDTH 16 0
BBX 6 6 6 13
BITMAP
FC
FC
FC
FC
FC
FC
ENDCHAR
STARTCHAR 00B8
ENCODING 184
SWIDTH 325 0
DWIDTH 19 0
BBX 15 12 2 -12
BITMAP
01C0
0180
0380
03F0
03FC
067E
003E
003E
403E
787C
FFF8
1FF0
ENDCHAR
STARTCHAR 00B9
ENCODING 185
SWIDTH 325 0
DWIDTH 19 0
BBX 9 24 3 17
BITMAP
0180
0380
0380
0780
FF80
FF80
FF80
0380
0380
0380
0380
0380
0380
0380
0380
0380
0380
0380
0380
0380
0380
0380
0380
0380
ENDCHAR
STARTCHAR 00BA
ENCODING 186
SWIDTH 360 0
DWIDTH 21 0
BBX 17 26 2 18
BITMAP
03F000
0FFC00
1FFE00
3E1E00
780F00
780700
700780
700780
F00780
F00380
F00380
F00780
F00780
700780
780700
780F00
3E1E00
1FFE00
0FFC00
07F000
000000
000000
000000
7FFF00
7FFF00
7FFF00
ENDCHAR
STARTCHAR 00BB
ENCODING 187
SWIDTH 548 0
DWIDTH 32 0
BBX 20 19 6 7
BITMAP
801800
C01C00
F01E00
F81F00
FC0FC0
7E07E0
1F83F0
0F81F0
078070
038070
0F80F0
1F81F0
3F07E0
FC0FC0
F81F80
F01F00
E01C00
801800
001000
ENDCHAR
STARTCHAR 00BC
ENCODING 188
SWIDTH 840 0
DWIDTH 49 0
BBX 45 43 2 -1
BITMAP
038000007800
038000007000
03800000F000
07800000E000
0F800001C000
FF800003C000
FF8000038000
FF8000070000
0780000F0000
0780000E0000
0780001E0000
0780001C0000
078000380000
078000780000
078000700000
078000F00000
078000E00000
078001C001C0
078003C003C0
0780038007C0
078007000FC0
07800F001FC0
07800E001FC0
07801E003FC0
07801C007BC0
00003800F3C0
00007800E3C0
00007001E3C0
0000E003C3C0
0001E00783C0
0001C00703C0
0003C00E03C0
0003801E03C0
0007001FFFF8
000F001FFFF8
000E001FFFF8
001E000003C0
003C000003C0
0038000003C0
0078000003C0
0070000003C0
00E0000003C0
01E000000000
ENDCHAR
STARTCHAR 00BD
ENCODING 189
SWIDTH 840 0
DWIDTH 49 0
BBX 46 43 1 -1
BITMAP
01C000007000
01C00000F000
01C00000E000
03C00001C000
07C00003C000
FFC000038000
FFC000078000
FFC000070000
03C0000E0000
03C0001E0000
03C0001C0000
03C0003C0000
03C000380000
03C000700000
03C000F00000
03C000E00000
03C001C00000
03C003C03F80
03C00380FFE0
03C00781FFF0
03C00703E0F8
03C00E03C07C
03C01E07803C
03C01C07803C
03C03807803C
00007807003C
00007000003C
0000F0000078
0000E00000F8
0001C00003F0
0003C0000FE0
000380001F80
000780007E00
00070000F800
000E0001F000
001E0003C000
001C0007C000
003800078000
00780007FFFC
0070000FFFFC
00F0000FFFFC
00E0000FFFFC
01C000000000
ENDCHAR
STARTCHAR 00BE
ENCODING 190
SWIDTH 840 0
DWIDTH 49 0
BBX 46 42 1 -1
BITMAP
03F800000E00
0FFE00001E00
1FFF00001C00
3E0F80003800
3C0780007800
780380007000
78038000E000
78038001E000
00038001C000
00078003C000
01FF00038000
01FE00070000
01FF000F0000
001F800E0000
0007C01C0000
0003C03C0000
0001C03800C0
F001C07001C0
7001C0F003C0
7803C0E007C0
7803C1E00FC0
3E0F81C00FC0
3FFF03801DC0
1FFE07803DC0
07F8070079C0
00000E0071C0
00001E00E1C0
00001C01E1C0
00003C03C1C0
0000380381C0
0000700701C0
0000F00F01C0
0000E00FFFFC
0001C00FFFFC
0003C00FFFFC
0003800001C0
0007800001C0
0007000001C0
000E000001C0
001E000001C0
001C000001C0
003800000000
ENDCHAR
STARTCHAR 00BF
ENCODING 191
SWIDTH 617 0
DWIDTH 36 0
BBX 25 44 6 -13
BITMAP
003E0000
003E0000
003E0000
003E0000
003E0000
003E0000
00000000
00000000
00000000
00000000
00000000
00000000
003E0000
003E0000
003E0000
003E0000
003E0000
007E0000
007E0000
00FC0000
01F80000
03F00000
07E00000
0FC00000
1F800000
3F000000
7E000000
7C000000
FC000000
F8000000
F8000F80
F8000F80
F8000F80
F8000F80
F8001F00
FC001F00
FC003F00
7E007E00
7F80FE00
3FFFFC00
1FFFF800
0FFFF000
03FFC000
00180000
ENDCHAR
STARTCHAR 00C0
ENCODING 192
SWIDTH 668 0
DWIDTH 39 0
BBX 37 55 1 0
BITMAP
001F800000
000FC00000
0007C00000
0003E00000
0001F00000
0000F00000
0000780000
00003C0000
0000000000
0000000000
0000000000
0000000000
0001FC0000
0001FE0000
0003FE0000
0003FE0000
0003FF0000
0007FF0000
0007DF0000
0007DF8000
000FDF8000
000F8F8000
001F8FC000
001F8FC000
001F07E000
003F07E000
003F07E000
003E03F000
007E03F000
007C03F000
007C01F800
00FC01F800
00F801F800
00F800FC00
01F800FC00
01F000FC00
01F0007E00
03FFFFFE00
03FFFFFE00
07FFFFFF00
07FFFFFF00
07FFFFFF00
0FC0001F80
0FC0001F80
0F80001F80
1F80000FC0
1F80000FC0
1F00000FC0
3F000007E0
3F000007E0
3E000007F0
7E000003F0
7E000003F0
7C000003F8
FC000001F8
ENDCHAR
STARTCHAR 00C1
ENCODING 193
SWIDTH 668 0
DWIDTH 39 0
BBX 37 55 1 0
BITMAP
00000FE000
00001F8000
00001F0000
00003E0000
00007C0000
0000780000
0000F00000
0000E00000
0001000000
0000000000
0000000000
0000000000
0001FC0000
0001FE0000
0003FE0000
0003FE0000
0003FF0000
0007FF0000
0007DF0000
0007DF8000
000FDF8000
000F8F8000
001F8FC000
001F8FC000
001F07E000
003F07E000
003F07E000
003E03F000
007E03F000
007C03F000
007C01F800
00FC01F800
00F801F800
00F800FC00
01F800FC00
01F000FC00
01F0007E00
03FFFFFE00
03FFFFFE00
07FFFFFF00
07FFFFFF00
07FFFFFF00
0FC0001F80
0FC0001F80
0F80001F80
1F80000FC0
1F80000FC0
1F00000FC0
3F000007E0
3F000007E0
3E000007F0
7E000003F0
7E000003F0
7C000003F8
FC000001F8
ENDCHAR
STARTCHAR 00C2
ENCODING 194
SWIDTH 668 0
DWIDTH 39 0
BBX 37 55 1 0
BITMAP
0001FC0000
0001FC0000
0003FE0000
0007DF0000
00078F0000
000F078000
001F03C000
001E03C000
0000000000
0000000000
0000000000
0000000000
0001FC0000
0001FE0000
0003FE0000
0003FE0000
0003FF0000
0007FF0000
0007DF0000
0007DF8000
000FDF8000
000F8F8000
001F8FC000
001F8FC000
001F07E000
003F07E000
003F07E000
003E03F000
007E03F000
007C03F000
007C01F800
00FC01F800
00F801F800
00F800FC00
01F800FC00
01F000FC00
01F0007E00
03FFFFFE00
03FFFFFE00
07FFFFFF00
07FFFFFF00
07FFFFFF00
0FC0001F80
0FC0001F80
0F80001F80
1F80000FC0
1F80000FC0
1F00000FC0
3F000007E0
3F000007E0
3E000007F0
7E000003F0
7E000003F0
7C000003F8
FC000001F8
ENDCHAR
STARTCHAR 00C3
ENCODING 195
SWIDTH 668 0
DWIDTH 39 0
BBX 37 54 1 0
BITMAP
000780F000
001FF0E000
001FFFE000
003FFFE000
003C7FC000
00780F8000
0000000000
0000000000
0000000000
0000000000
0000000000
0001FC0000
0001FE0000
0003FE0000
0003FE0000
0003FF0000
0007FF0000
0007DF0000
0007DF8000
000FDF8000
000F8F8000
001F8FC000
001F8FC000
001F07E000
003F07E000
003F07E000
003E03F000
007E03F000
007C03F000
007C01F800
00FC01F800
00F801F800
00F800FC00
01F800FC00
01F000FC00
01F0007E00
03FFFFFE00
03FFFFFE00
07FFFFFF00
07FFFFFF00
07FFFFFF00
0FC0001F80
0FC0001F80
0F80001F80
1F80000FC0
1F80000FC0
1F00000FC0
3F000007E0
3F000007E0
3E000007F0
7E000003F0
7E000003F0
7C000003F8
FC000001F8
ENDCHAR
STARTCHAR 00C4
ENCODING 196
SWIDTH 668 0
DWIDTH 39 0
BBX 37 54 1 0
BITMAP
001F8FC000
001F8FC000
001F8FC000
001F8FC000
001F8FC000
001F8FC000
0000000000
0000000000
0000000000
0000000000
0000000000
0001FC0000
0001FE0000
0003FE0000
0003FE0000
0003FF0000
0007FF0000
0007DF0000
0007DF8000
000FDF8000
000F8F8000
001F8FC000
001F8FC000
001F07E000
003F07E000
003F07E000
003E03F000
007E03F000
007C03F000
007C01F800
00FC01F800
00F801F800
00F800FC00
01F800FC00
01F000FC00
01F0007E00
03FFFFFE00
03FFFFFE00
07FFFFFF00
07FFFFFF00
07FFFFFF00
0FC0001F80
0FC0001F80
0F80001F80
1F80000FC0
1F80000FC0
1F00000FC0
3F000007E0
3F000007E0
3E000007F0
7E000003F0
7E000003F0
7C000003F8
FC000001F8
ENDCHAR
STARTCHAR 00C5
ENCODING 197
SWIDTH 668 0
DWIDTH 39 0
BBX 37 56 1 0
BITMAP
0000F80000
0001FC0000
0003FE0000
0003860000
0007070000
0007070000
0003860000
0003FE0000
0001FC0000
0000F80000
0000000000
0000000000
0000000000
0001FC0000
0001FE0000
0003FE0000
0003FE0000
0003FF0000
0007FF0000
0007DF0000
0007DF8000
000FDF8000
000F8F8000
001F8FC000
001F8FC000
001F07E000
003F07E000
003F07E000
003E03F000
007E03F000
007C03F000
007C01F800
00FC01F800
00F801F800
00F800FC00
01F800FC00
01F000FC00
01F0007E00
03FFFFFE00
03FFFFFE00
07FFFFFF00
07FFFFFF00
07FFFFFF00
0FC0001F80
0FC0001F80
0F80001F80
1F80000FC0
1F80000FC0
1F00000FC0
3F000007E0
3F000007E0
3E000007F0
7E000003F0
7E000003F0
7C000003F8
FC000001F8
ENDCHAR
STARTCHAR 00C6
ENCODING 198
SWIDTH 994 0
DWIDTH 58 0
BBX 54 43 1 0
BITMAP
00007FFFFFFFF8
0000FFFFFFFFF8
0000FFFFFFFFF8
0000FFFFFFFFF8
0001FFFFFFFFF8
0001F03F000000
0003F03F000000
0003E03F000000
0003E03F000000
0007E03F000000
0007C03F000000
000FC03F000000
000F803F000000
000F803F000000
001F803F000000
001F003F000000
003F003F000000
003E003F000000
003E003FFFFFF0
007E003FFFFFF0
007C003FFFFFF0
00FC003FFFFFF0
00F8003FFFFFF0
00F8003F000000
01F8003F000000
01FFFFFF000000
03FFFFFF000000
03FFFFFF000000
03FFFFFF000000
07FFFFFF000000
07C0003F000000
0FC0003F000000
0FC0003F000000
1F80003F000000
1F80003F000000
1F00003F000000
3F00003F000000
3F00003F000000
7E00003FFFFFFC
7E00003FFFFFFC
7E00003FFFFFFC
FC00003FFFFFFC
FC00003FFFFFFC
ENDCHAR
STARTCHAR 00C7
ENCODING 199
SWIDTH 720 0
DWIDTH 42 0
BBX 36 56 3 -12
BITMAP
0001FF0000
001FFFE000
007FFFF800
00FFFFFC00
01FFFFFE00
03FC01FF00
07F0003F80
0FE0001FC0
1FC0000FC0
1F800007C0
3F000007E0
3F000007E0
3E000003E0
7E000003F0
7C00000000
7C00000000
FC00000000
FC00000000
FC00000000
F800000000
F800000000
F800000000
F800000000
F800000000
F800000000
F800000000
FC00000000
FC00000000
FC000001F0
7C000001F0
7C000003F0
7E000003F0
7E000003F0
3F000003E0
3F000007E0
1F800007E0
1FC0000FC0
0FE0001FC0
07F0003F80
07FC00FF00
03FFFFFE00
00FFFFFC00
007FFFF800
001FFFE000
0003FF0000
0000600000
0000E00000
0000FE0000
0001FF0000
00001F0000
00000F8000
00000F8000
00100F0000
001E1F0000
003FFE0000
0007FC0000
ENDCHAR
STARTCHAR 00C8
ENCODING 200
SWIDTH 668 0
DWIDTH 39 0
BBX 31 55 5 0
BITMAP
00FC0000
007E0000
003E0000
001F0000
000F8000
00078000
0003C000
0001E000
00000000
00000000
00000000
00000000
FFFFFFFC
FFFFFFFC
FFFFFFFC
FFFFFFFC
FFFFFFFC
FC000000
FC000000
FC000000
FC000000
FC000000
FC000000
FC000000
FC000000
FC000000
FC000000
FC000000
FC000000
FC000000
FFFFFFF8
FFFFFFF8
FFFFFFF8
FFFFFFF8
FFFFFFF8
FC000000
FC000000
FC000000
FC000000
FC000000
FC000000
FC000000
FC000000
FC000000
FC000000
FC000000
FC000000
FC000000
FC000000
FC000000
FFFFFFFE
FFFFFFFE
FFFFFFFE
FFFFFFFE
FFFFFFFE
ENDCHAR
STARTCHAR 00C9
ENCODING 201
SWIDTH 668 0
DWIDTH 39 0
BBX 31 55 5 0
BITMAP
0000FC00
0001F800
0001F000
0003E000
0007C000
00078000
000F0000
001E0000
00000000
00000000
00000000
00000000
FFFFFFFC
FFFFFFFC
FFFFFFFC
FFFFFFFC
FFFFFFFC
FC000000
FC000000
FC000000
FC000000
FC000000
FC000000
FC000000
FC000000
FC000000
FC000000
FC000000
FC000000
FC000000
FFFFFFF8
FFFFFFF8
FFFFFFF8
FFFFFFF8
FFFFFFF8
FC000000
FC000000
FC000000
FC000000
FC000000
FC000000
FC000000
FC000000
FC000000
FC000000
FC000000
FC000000
FC000000
FC000000
FC000000
FFFFFFFE
FFFFFFFE
FFFFFFFE
FFFFFFFE
FFFFFFFE
ENDCHAR
STARTCHAR 00CA
ENCODING 202
SWIDTH 668 0
DWIDTH 39 0
BBX 31 55 5 0
BITMAP
000FC000
001FE000
001FF000
003EF000
007CF800
00787C00
00F03C00
01E01E00
00000000
00000000
00000000
00000000
FFFFFFFC
FFFFFFFC
FFFFFFFC
FFFFFFFC
FFFFFFFC
FC000000
FC000000
FC000000
FC000000
FC000000
FC000000
FC000000
FC000000
FC000000
FC000000
FC000000
FC000000
FC000000
FFFFFFF8
FFFFFFF8
FFFFFFF8
FFFFFFF8
FFFFFFF8
FC000000
FC000000
FC000000
FC000000
FC000000
FC000000
FC000000
FC000000
FC000000
FC000000
FC000000
FC000000
FC000000
FC000000
FC000000
FFFFFFFE
FFFFFFFE
FFFFFFFE
FFFFFFFE
FFFFFFFE
ENDCHAR
STARTCHAR 00CB
ENCODING 203
SWIDTH 668 0
DWIDTH 39 0
BBX 31 54 5 0
BITMAP
01F87E00
01F87E00
01F87E00
01F87E00
01F87E00
01F87E00
00000000
00000000
00000000
00000000
00000000
FFFFFFFC
FFFFFFFC
FFFFFFFC
FFFFFFFC
FFFFFFFC
FC000000
FC000000
FC000000
FC000000
FC000000
FC000000
FC000000
FC000000
FC000000
FC000000
FC000000
FC000000
FC000000
FFFFFFF8
FFFFFFF8
FFFFFFF8
FFFFFFF8
FFFFFFF8
FC000000
FC000000
FC000000
FC000000
FC000000
FC000000
FC000000
FC000000
FC000000
FC000000
FC000000
FC000000
FC000000
FC000000
FC000000
FFFFFFFE
FFFFFFFE
FFFFFFFE
FFFFFFFE
FFFFFFFE
ENDCHAR
STARTCHAR 00CC
ENCODING 204
SWIDTH 274 0
DWIDTH 16 0
BBX 11 55 1 0
BITMAP
FC00
7E00
3E00
1F00
0F80
0780
03C0
01E0
0000
0000
0000
0000
07C0
07C0
07C0
07C0
07C0
07C0
07C0
07C0
07C0
07C0
07C0
07C0
07C0
07C0
07C0
07C0
07C0
07C0
07C0
07C0
07C0
07C0
07C0
07C0
07C0
07C0
07C0
07C0
07C0
07C0
07C0
07C0
07C0
07C0
07C0
07C0
07C0
07C0
07C0
07C0
07C0
07C0
07C0
ENDCHAR
STARTCHAR 00CD
ENCODING 205
SWIDTH 274 0
DWIDTH 16 0
BBX 11 55 5 0
BITMAP
0FE0
0FC0
1F80
3F00
3E00
7C00
F800
F000
0000
0000
0000
0000
7C00
7C00
7C00
7C00
7C00
7C00
7C00
7C00
7C00
7C00
7C00
7C00
7C00
7C00
7C00
7C00
7C00
7C00
7C00
7C00
7C00
7C00
7C00
7C00
7C00
7C00
7C00
7C00
7C00
7C00
7C00
7C00
7C00
7C00
7C00
7C00
7C00
7C00
7C00
7C00
7C00
7C00
7C00
ENDCHAR
STARTCHAR 00CE
ENCODING 206
SWIDTH 274 0
DWIDTH 16 0
BBX 16 55 0 0
BITMAP
07F0
0FF0
0FF8
1F7C
3E3C
3C3E
781E
700F
8000
0000
0000
0000
03E0
03E0
03E0
03E0
03E0
03E0
03E0
03E0
03E0
03E0
03E0
03E0
03E0
03E0
03E0
03E0
03E0
03E0
03E0
03E0
03E0
03E0
03E0
03E0
03E0
03E0
03E0
03E0
03E0
03E0
03E0
03E0
03E0
03E0
03E0
03E0
03E0
03E0
03E0
03E0
03E0
03E0
03E0
ENDCHAR
STARTCHAR 00CF
ENCODING 207
SWIDTH 274 0
DWIDTH 16 0
BBX 15 53 1 0
BITMAP
FC7E
FC7E
FC7E
FC7E
FC7E
FC7E
0000
0000
0000
0000
07C0
07C0
07C0
07C0
07C0
07C0
07C0
07C0
07C0
07C0
07C0
07C0
07C0
07C0
07C0
07C0
07C0
07C0
07C0
07C0
07C0
07C0
07C0
07C0
07C0
07C0
07C0
07C0
07C0
07C0
07C0
07C0
07C0
07C0
07C0
07C0
07C0
07C0
07C0
07C0
07C0
07C0
07C0
ENDCHAR
STARTCHAR 00D0
ENCODING 208
SWIDTH 720 0
DWIDTH 42 0
BBX 38 43 1 0
BITMAP
0FFFFF8000
0FFFFFF000
0FFFFFFC00
0FFFFFFE00
0FFFFFFF00
0FC000FF80
0FC0003FC0
0FC0000FE0
0FC00007E0
0FC00003F0
0FC00003F0
0FC00001F0
0FC00001F8
0FC00001F8
0FC00000F8
0FC00000F8
0FC00000FC
0FC00000FC
0FC00000FC
FFFFF000FC
FFFFF000FC
FFFFF000FC
FFFFF000FC
0FC00000FC
0FC00000FC
0FC00000FC
0FC00000FC
0FC00000F8
0FC00000F8
0FC00001F8
0FC00001F8
0FC00001F0
0FC00003F0
0FC00003F0
0FC00007E0
0FC0000FE0
0FC0001FC0
0FC000FF80
0FFFFFFF00
0FFFFFFE00
0FFFFFFC00
0FFFFFF000
0FFFFF8000
ENDCHAR
STARTCHAR 00D1
ENCODING 209
SWIDTH 720 0
DWIDTH 42 0
BBX 34 54 4 0
BITMAP
000F01E000
003FE3C000
003FFFC000
007FFFC000
0070FF8000
00F01F0000
0000000000
0000000000
0000000000
0000000000
0000000000
FE000007C0
FE000007C0
FF000007C0
FF800007C0
FF800007C0
FFC00007C0
FFC00007C0
FFE00007C0
FFF00007C0
FFF00007C0
FDF80007C0
FCFC0007C0
FCFC0007C0
FC7E0007C0
FC3E0007C0
FC3F0007C0
FC1F8007C0
FC1F8007C0
FC0FC007C0
FC07E007C0
FC07E007C0
FC03F007C0
FC01F807C0
FC01F807C0
FC00FC07C0
FC00FC07C0
FC007E07C0
FC003F07C0
FC003F07C0
FC001F87C0
FC000FC7C0
FC000FC7C0
FC0007E7C0
FC0007F7C0
FC0003F7C0
FC0001FFC0
FC0001FFC0
FC0000FFC0
FC00007FC0
FC00007FC0
FC00003FC0
FC00001FC0
FC00001FC0
ENDCHAR
STARTCHAR 00D2
ENCODING 210
SWIDTH 771 0
DWIDTH 45 0
BBX 41 57 2 -1
BITMAP
000FE0000000
0007F0000000
0003F0000000
0001F8000000
0000FC000000
00007C000000
00003E000000
00001F000000
00000F000000
000000000000
000000000000
000000000000
0000FFC00000
0007FFF80000
001FFFFE0000
007FFFFF8000
00FFFFFFC000
01FF007FE000
03FC000FF000
07F00007F800
0FE00001FC00
1FC00000FC00
1F800000FE00
3F0000007E00
3F0000003F00
3E0000003F00
7E0000003F00
7E0000001F00
7C0000001F80
7C0000001F80
7C0000000F80
FC0000000F80
FC0000000F80
FC0000000F80
FC0000000F80
FC0000000F80
FC0000000F80
FC0000000F80
FC0000000F80
7C0000001F80
7C0000001F80
7E0000001F00
7E0000001F00
3E0000003F00
3F0000003E00
3F8000007E00
1F800000FE00
1FC00000FC00
0FE00001F800
07F00007F800
03FC000FF000
01FF003FE000
00FFFFFFC000
007FFFFF8000
003FFFFE0000
0007FFF80000
0000FF800000
ENDCHAR
STARTCHAR 00D3
ENCODING 211
SWIDTH 771 0
DWIDTH 45 0
BBX 41 57 2 -1
BITMAP
000003F80000
000003F00000
000007E00000
00000FC00000
00000F800000
00001F000000
00003E000000
00003C000000
000078000000
000000000000
000000000000
000000000000
0000FFC00000
0007FFF80000
001FFFFE0000
007FFFFF8000
00FFFFFFC000
01FF007FE000
03FC000FF000
07F00007F800
0FE00001FC00
1FC00000FC00
1F800000FE00
3F0000007E00
3F0000003F00
3E0000003F00
7E0000003F00
7E0000001F00
7C0000001F80
7C0000001F80
7C0000000F80
FC0000000F80
FC0000000F80
FC0000000F80
FC0000000F80
FC0000000F80
FC0000000F80
FC0000000F80
FC0000000F80
7C0000001F80
7C0000001F80
7E0000001F00
7E0000001F00
3E0000003F00
3F0000003E00
3F8000007E00
1F800000FE00
1FC00000FC00
0FE00001F800
07F00007F800
03FC000FF000
01FF003FE000
00FFFFFFC000
007FFFFF8000
003FFFFE0000
0007FFF80000
0000FF800000
ENDCHAR
STARTCHAR 00D4
ENCODING 212
SWIDTH 771 0
DWIDTH 45 0
BBX 41 57 2 -1
BITMAP
00003F000000
00007F000000
00007F800000
0000FFC00000
0001F3C00000
0001E3E00000
0003C1E00000
0007C0F00000
000780780000
000000000000
000000000000
000000000000
0000FFC00000
0007FFF80000
001FFFFE0000
007FFFFF8000
00FFFFFFC000
01FF007FE000
03FC000FF000
07F00007F800
0FE00001FC00
1FC00000FC00
1F800000FE00
3F0000007E00
3F0000003F00
3E0000003F00
7E0000003F00
7E0000001F00
7C0000001F80
7C0000001F80
7C0000000F80
FC0000000F80
FC0000000F80
FC0000000F80
FC0000000F80
FC0000000F80
FC0000000F80
FC0000000F80
FC0000000F80
7C0000001F80
7C0000001F80
7E0000001F00
7E0000001F00
3E0000003F00
3F0000003E00
3F8000007E00
1F800000FE00
1FC00000FC00
0FE00001F800
07F00007F800
03FC000FF000
01FF003FE000
00FFFFFFC000
007FFFFF8000
003FFFFE0000
0007FFF80000
0000FF800000
ENDCHAR
STARTCHAR 00D5
ENCODING 213
SWIDTH 771 0
DWIDTH 45 0
BBX 41 55 2 -1
BITMAP
0001F01C0000
0003FC3C0000
0007FFFC0000
000FFFF80000
000F1FF00000
000E03E00000
000000000000
000000000000
000000000000
000000000000
0000FFC00000
0007FFF80000
001FFFFE0000
007FFFFF8000
00FFFFFFC000
01FF007FE000
03FC000FF000
07F00007F800
0FE00001FC00
1FC00000FC00
1F800000FE00
3F0000007E00
3F0000003F00
3E0000003F00
7E0000003F00
7E0000001F00
7C0000001F80
7C0000001F80
7C0000000F80
FC0000000F80
FC0000000F80
FC0000000F80
FC0000000F80
FC0000000F80
FC0000000F80
FC0000000F80
FC0000000F80
7C0000001F80
7C0000001F80
7E0000001F00
7E0000001F00
3E0000003F00
3F0000003E00
3F8000007E00
1F800000FE00
1FC00000FC00
0FE00001F800
07F00007F800
03FC000FF000
01FF003FE000
00FFFFFFC000
007FFFFF8000
003FFFFE0000
0007FFF80000
0000FF800000
ENDCHAR
STARTCHAR 00D6
ENCODING 214
SWIDTH 771 0
DWIDTH 45 0
BBX 41 55 2 -1
BITMAP
0007E3F80000
0007E3F80000
0007E3F80000
0007E3F80000
0007E3F80000
0007E3F80000
000000000000
000000000000
000000000000
000000000000
0000FFC00000
0007FFF80000
001FFFFE0000
007FFFFF8000
00FFFFFFC000
01FF007FE000
03FC000FF000
07F00007F800
0FE00001FC00
1FC00000FC00
1F800000FE00
3F0000007E00
3F0000003F00
3E0000003F00
7E0000003F00
7E0000001F00
7C0000001F80
7C0000001F80
7C0000000F80
FC0000000F80
FC0000000F80
FC0000000F80
FC0000000F80
FC0000000F80
FC0000000F80
FC0000000F80
FC0000000F80
7C0000001F80
7C0000001F80
7E0000001F00
7E0000001F00
3E0000003F00
3F0000003E00
3F8000007E00
1F800000FE00
1FC00000FC00
0FE00001F800
07F00007F800
03FC000FF000
01FF003FE000
00FFFFFFC000
007FFFFF8000
003FFFFE0000
0007FFF80000
0000FF800000
ENDCHAR
STARTCHAR 00D7
ENCODING 215
SWIDTH 582 0
DWIDTH 34 0
BBX 22 23 6 2
BITMAP
200010
700038
F8007C
FC00FC
7E01F8
3F03F0
1F87E0
0FCFC0
07FF80
03FF00
01FE00
00FC00
01FE00
03FF00
07FF80
0FCFC0
1F87E0
3F03F0
7E01F8
FC00FC
F8007C
700038
200010
ENDCHAR
STARTCHAR 00D8
ENCODING 216
SWIDTH 771 0
DWIDTH 45 0
BBX 41 45 2 0
BITMAP
0000FFC00380
0007FFF80780
003FFFFE0F00
007FFFFF1E00
00FFFFFFFC00
03FF007FFC00
07FC000FF800
07F00007F800
0FE00003F800
1FC00003FC00
1F800007FC00
3F00000F7E00
3F00001E7E00
7E00003C3F00
7E0000783F00
7C0000F01F00
7C0001F01F80
FC0003E01F80
FC0003C01F80
FC0007801F80
FC000F000F80
F8001E000F80
F8003C000F80
FC0078000F80
FC00F0000F80
FC01E0000F80
FC03E0001F80
FC07C0001F80
7C0780001F80
7C0F00001F00
7E1E00003F00
7E3C00003F00
3F7800007E00
3FF000007E00
1FE00000FC00
1FC00001FC00
0FE00003F800
0FF00007F800
1FFC000FF000
1FFF007FE000
3DFFFFFFC000
787FFFFF0000
F03FFFFE0000
600FFFF80000
0000FF800000
ENDCHAR
STARTCHAR 00D9
ENCODING 217
SWIDTH 720 0
DWIDTH 42 0
BBX 33 56 5 -1
BITMAP
00FE000000
003F000000
001F000000
000F800000
0007C00000
0003C00000
0001E00000
0000F00000
0000000000
0000000000
0000000000
0000000000
F800001F80
F800001F80
F800001F80
F800001F80
F800001F80
F800001F80
F800001F80
F800001F80
F800001F80
F800001F80
F800001F80
F800001F80
F800001F80
F800001F80
F800001F80
F800001F80
F800001F80
F800001F80
F800001F80
F800001F80
F800001F80
F800001F80
F800001F80
F800001F80
F800001F80
F800001F80
F800001F80
F800001F80
F800001F80
F800001F80
F800001F80
FC00001F80
FC00001F00
FC00001F00
7E00003F00
7E00007F00
7F00007E00
3F8001FE00
1FF007FC00
0FFFFFF800
07FFFFF000
03FFFFC000
00FFFF0000
001FF80000
ENDCHAR
STARTCHAR 00DA
ENCODING 218
SWIDTH 720 0
DWIDTH 42 0
BBX 33 56 5 -1
BITMAP
00007F0000
0000FC0000
0000F80000
0001F00000
0003E00000
0003C00000
0007800000
0007000000
0008000000
0000000000
0000000000
0000000000
F800001F80
F800001F80
F800001F80
F800001F80
F800001F80
F800001F80
F800001F80
F800001F80
F800001F80
F800001F80
F800001F80
F800001F80
F800001F80
F800001F80
F800001F80
F800001F80
F800001F80
F800001F80
F800001F80
F800001F80
F800001F80
F800001F80
F800001F80
F800001F80
F800001F80
F800001F80
F800001F80
F800001F80
F800001F80
F800001F80
F800001F80
FC00001F80
FC00001F00
FC00001F00
7E00003F00
7E00007F00
7F00007E00
3F8001FE00
1FF007FC00
0FFFFFF800
07FFFFF000
03FFFFC000
00FFFF0000
001FF80000
ENDCHAR
STARTCHAR 00DB
ENCODING 219
SWIDTH 720 0
DWIDTH 42 0
BBX 33 56 5 -1
BITMAP
0007F00000
000FF00000
000FF80000
001F7C0000
003E3C0000
003C3E0000
00781E0000
00700F0000
0080000000
0000000000
0000000000
0000000000
F800001F80
F800001F80
F800001F80
F800001F80
F800001F80
F800001F80
F800001F80
F800001F80
F800001F80
F800001F80
F800001F80
F800001F80
F800001F80
F800001F80
F800001F80
F800001F80
F800001F80
F800001F80
F800001F80
F800001F80
F800001F80
F800001F80
F800001F80
F800001F80
F800001F80
F800001F80
F800001F80
F800001F80
F800001F80
F800001F80
F800001F80
FC00001F80
FC00001F00
FC00001F00
7E00003F00
7E00007F00
7F00007E00
3F8001FE00
1FF007FC00
0FFFFFF800
07FFFFF000
03FFFFC000
00FFFF0000
001FF80000
ENDCHAR
STARTCHAR 00DC
ENCODING 220
SWIDTH 720 0
DWIDTH 42 0
BBX 33 55 5 -1
BITMAP
007E3F0000
007E3F0000
007E3F0000
007E3F0000
007E3F0000
007E3F0000
0000000000
0000000000
0000000000
0000000000
0000000000
F800001F80
F800001F80
F800001F80
F800001F80
F800001F80
F800001F80
F800001F80
F800001F80
F800001F80
F800001F80
F800001F80
F800001F80
F800001F80
F800001F80
F800001F80
F800001F80
F800001F80
F800001F80
F800001F80
F800001F80
F800001F80
F800001F80
F800001F80
F800001F80
F800001F80
F800001F80
F800001F80
F800001F80
F800001F80
F800001F80
F800001F80
FC00001F80
FC00001F00
FC00001F00
7E00003F00
7E00007F00
7F00007E00
3F8001FE00
1FF007FC00
0FFFFFF800
07FFFFF000
03FFFFC000
00FFFF0000
001FF80000
ENDCHAR
STARTCHAR 00DD
ENCODING 221
SWIDTH 668 0
DWIDTH 39 0
BBX 37 55 1 0
BITMAP
00000FC000
00001F8000
00001F0000
00003E0000
00007C0000
0000780000
0000F00000
0001E00000
0000000000
0000000000
0000000000
0000000000
FE000001F8
7E000003F8
7F000003F0
3F800007E0
1F80000FE0
1FC0000FC0
0FC0001FC0
0FE0001F80
07F0003F00
03F0003F00
03F8007E00
01F800FC00
00FC00FC00
00FC01F800
007E01F800
007F03F000
003F07E000
001F87E000
001F8FC000
000FCFC000
0007FF8000
0007FF0000
0003FF0000
0003FE0000
0001FE0000
0000FC0000
0000FC0000
0000FC0000
0000FC0000
0000FC0000
0000FC0000
0000FC0000
0000FC0000
0000FC0000
0000FC0000
0000FC0000
0000FC0000
0000FC0000
0000FC0000
0000FC0000
0000FC0000
0000FC0000
0000FC0000
ENDCHAR
STARTCHAR 00DE
ENCODING 222
SWIDTH 668 0
DWIDTH 39 0
BBX 31 43 5 0
BITMAP
FC000000
FC000000
FC000000
FC000000
FC000000
FC000000
FC000000
FFFFFC00
FFFFFF80
FFFFFFE0
FFFFFFF0
FFFFFFF8
FC0007F8
FC0001FC
FC0000FC
FC0000FC
FC00007E
FC00007E
FC00007E
FC00007E
FC00007E
FC00007E
FC00007E
FC0000FC
FC0000FC
FC0003FC
FC000FF8
FFFFFFF0
FFFFFFE0
FFFFFFC0
FFFFFF80
FFFFFC00
FC000000
FC000000
FC000000
FC000000
FC000000
FC000000
FC000000
FC000000
FC000000
FC000000
FC000000
ENDCHAR
STARTCHAR 00DF
ENCODING 223
SWIDTH 617 0
DWIDTH 36 0
BBX 28 44 4 -1
BITMAP
007FC000
03FFF800
0FFFFC00
1FFFFE00
3FFFFF00
7F803F80
7E001FC0
7C000FC0
FC0007C0
F80007C0
F80007C0
F80007C0
F80007C0
F80007C0
F8000FC0
F8001F80
F8003F00
F807FE00
F80FF800
F80FF000
F80FFC00
F80FFF00
F800FF80
F8000FC0
F80007E0
F80003F0
F80003F0
F80001F0
F80001F0
F80001F0
F80001F0
F80001F0
F80001F0
F80001F0
F80003F0
F80003F0
F80007E0
F8000FE0
F8003FC0
F81FFF80
F81FFF00
F81FFE00
F81FF800
001FC000
ENDCHAR
STARTCHAR 00E0
ENCODING 224
SWIDTH 548 0
DWIDTH 32 0
BBX 29 45 2 -1
BITMAP
03F80000
01FC0000
00FC0000
007E0000
003E0000
001F0000
000F8000
00078000
0003C000
00000000
00000000
00000000
003FE000
01FFFC00
07FFFE00
0FFFFF00
1FFFFF80
1F801F80
3F000F80
3E000FC0
3E0007C0
3E0007C0
000007C0
000007C0
00000FC0
00007FC0
001FFFC0
03FFFFC0
0FFFFFC0
1FFF87C0
3FE007C0
7F0007C0
7E0007C0
7C0007C0
7C0007C0
FC0007C0
FC000FC0
7C001FC0
7C003FC0
7E007FC0
3FC3FFE0
3FFFF7F8
1FFFC7F8
0FFF83F8
01FC01F8
ENDCHAR
STARTCHAR 00E1
ENCODING 225
SWIDTH 548 0
DWIDTH 32 0
BBX 29 45 2 -1
BITMAP
0001FC00
0001F800
0003F000
0007E000
0007C000
000F8000
000F0000
001E0000
003C0000
00000000
00000000
00000000
003FE000
01FFFC00
07FFFE00
0FFFFF00
1FFFFF80
1F801F80
3F000F80
3E000FC0
3E0007C0
3E0007C0
000007C0
000007C0
00000FC0
00007FC0
001FFFC0
03FFFFC0
0FFFFFC0
1FFF87C0
3FE007C0
7F0007C0
7E0007C0
7C0007C0
7C0007C0
FC0007C0
FC000FC0
7C001FC0
7C003FC0
7E007FC0
3FC3FFE0
3FFFF7F8
1FFFC7F8
0FFF83F8
01FC01F8
ENDCHAR
STARTCHAR 00E2
ENCODING 226
SWIDTH 548 0
DWIDTH 32 0
BBX 29 45 2 -1
BITMAP
001F8000
003FC000
003FC000
007FE000
00F9F000
00F0F000
01E07800
01E03C00
03C03C00
00000000
00000000
00000000
003FE000
01FFFC00
07FFFE00
0FFFFF00
1FFFFF80
1F801F80
3F000F80
3E000FC0
3E0007C0
3E0007C0
000007C0
000007C0
00000FC0
00007FC0
001FFFC0
03FFFFC0
0FFFFFC0
1FFF87C0
3FE007C0
7F0007C0
7E0007C0
7C0007C0
7C0007C0
FC0007C0
FC000FC0
7C001FC0
7C003FC0
7E007FC0
3FC3FFE0
3FFFF7F8
1FFFC7F8
0FFF83F8
01FC01F8
ENDCHAR
STARTCHAR 00E3
ENCODING 227
SWIDTH 548 0
DWIDTH 32 0
BBX 29 43 2 -1
BITMAP
00F80E00
01FE1E00
03FFFE00
03FFFC00
0787F800
0701F000
00000000
00000000
00000000
00000000
003FE000
01FFFC00
07FFFE00
0FFFFF00
1FFFFF80
1F801F80
3F000F80
3E000FC0
3E0007C0
3E0007C0
000007C0
000007C0
00000FC0
00007FC0
001FFFC0
03FFFFC0
0FFFFFC0
1FFF87C0
3FE007C0
7F0007C0
7E0007C0
7C0007C0
7C0007C0
FC0007C0
FC000FC0
7C001FC0
7C003FC0
7E007FC0
3FC3FFE0
3FFFF7F8
1FFFC7F8
0FFF83F8
01FC01F8
ENDCHAR
STARTCHAR 00E4
ENCODING 228
SWIDTH 548 0
DWIDTH 32 0
BBX 29 43 2 -1
BITMAP
03F0FC00
03F0FC00
03F0FC00
03F0FC00
03F0FC00
03F0FC00
00000000
00000000
00000000
00000000
003FE000
01FFFC00
07FFFE00
0FFFFF00
1FFFFF80
1F801F80
3F000F80
3E000FC0
3E0007C0
3E0007C0
000007C0
000007C0
00000FC0
00007FC0
001FFFC0
03FFFFC0
0FFFFFC0
1FFF87C0
3FE007C0
7F0007C0
7E0007C0
7C0007C0
7C0007C0
FC0007C0
FC000FC0
7C001FC0
7C003FC0
7E007FC0
3FC3FFE0
3FFFF7F8
1FFFC7F8
0FFF83F8
01FC01F8
ENDCHAR
STARTCHAR 00E5
ENCODING 229
SWIDTH 548 0
DWIDTH 32 0
BBX 29 45 2 0
BITMAP
001F8000
003FC000
0078E000
0070E000
00606000
0070E000
0078E000
003FC000
001F8000
00000000
00000000
00000000
003FE000
01FFFC00
07FFFE00
0FFFFF00
1FFFFF80
1F801F80
3F000F80
3E000FC0
3E0007C0
3E0007C0
000007C0
000007C0
00000FC0
00007FC0
001FFFC0
03FFFFC0
0FFFFFC0
1FFF87C0
3FE007C0
7F0007C0
7E0007C0
7C0007C0
7C0007C0
FC0007C0
FC000FC0
7C001FC0
7C003FC0
7E007FC0
3FC3FFE0
3FFFF7F8
1FFFC7F8
0FFF83F8
01FC01F8
ENDCHAR
STARTCHAR 00E6
ENCODING 230
SWIDTH 891 0
DWIDTH 52 0
BBX 47 33 2 -1
BITMAP
007FC003FC00
03FFF00FFF00
07FFFC3FFFC0
1FFFFE7FFFE0
1FFFFFFFFFF0
3F803FFC03F8
3F001FF001F8
3E000FE000FC
7E000FE0007C
7C000FC0007E
00000FC0003E
00000F80003E
00000F80003E
00003F80003E
001FFFFFFFFE
03FFFFFFFFFE
0FFFFFFFFFFE
1FFF8FFFFFFE
3FE00F800000
7F000F800000
7C000F800000
FC000F800000
F8000F80003E
F8000FC0007C
F8001FC0007C
F8001FE000FC
FC007FF001F8
7E00F9FC03F8
7F87F0FFFFF0
3FFFE0FFFFE0
1FFFC03FFFC0
0FFF001FFF00
03F80003FC00
ENDCHAR
STARTCHAR 00E7
ENCODING 231
SWIDTH 497 0
DWIDTH 29 0
BBX 26 44 2 -12
BITMAP
003F8000
01FFF000
03FFF800
07FFFE00
0FFFFE00
1FC07F00
3F003F80
3E001F80
7E000F80
7C000F80
7C000F80
FC000000
F8000000
F8000000
F8000000
F8000000
F8000000
F8000000
F8000000
F8000000
F8000000
F80007C0
FC0007C0
7C000FC0
7C000F80
7E000F80
3F001F80
3F803F00
1FE0FF00
0FFFFE00
07FFFC00
03FFF000
00FFE000
00180000
00180000
003F0000
003FC000
006FE000
0003E000
0003E000
0403E000
0787C000
0FFF8000
01FF0000
ENDCHAR
STARTCHAR 00E8
ENCODING 232
SWIDTH 548 0
DWIDTH 32 0
BBX 28 45 2 -1
BITMAP
01F80000
00FC0000
007C0000
003E0000
003F0000
001F0000
000F8000
00078000
0003C000
00000000
00000000
00000000
001FC000
00FFF800
03FFFE00
07FFFF00
0FFFFF80
1FC03F80
1F800FC0
3F0007C0
3E0007E0
7E0003E0
7C0003E0
7C0003F0
7C0001F0
7C0001F0
FFFFFFF0
FFFFFFF0
FFFFFFF0
FFFFFFF0
F8000000
FC000000
7C000000
7C000000
7C0003E0
7E0003E0
3E0007E0
3F0007C0
1F800FC0
1FC01F80
0FFDFF80
07FFFF00
03FFFC00
00FFF800
003FC000
ENDCHAR
STARTCHAR 00E9
ENCODING 233
SWIDTH 548 0
DWIDTH 32 0
BBX 28 45 2 -1
BITMAP
0000FC00
0001F800
0003F000
0003E000
0007C000
000F8000
000F0000
001E0000
001C0000
00000000
00000000
00000000
001FC000
00FFF800
03FFFE00
07FFFF00
0FFFFF80
1FC03F80
1F800FC0
3F0007C0
3E0007E0
7E0003E0
7C0003E0
7C0003F0
7C0001F0
7C0001F0
FFFFFFF0
FFFFFFF0
FFFFFFF0
FFFFFFF0
F8000000
FC000000
7C000000
7C000000
7C0003E0
7E0003E0
3E0007E0
3F0007C0
1F800FC0
1FC01F80
0FFDFF80
07FFFF00
03FFFC00
00FFF800
003FC000
ENDCHAR
STARTCHAR 00EA
ENCODING 234
SWIDTH 548 0
DWIDTH 32 0
BBX 28 45 2 -1
BITMAP
000FC000
001FC000
003FE000
003DF000
007CF000
00F87800
00F07C00
01E03C00
01C01E00
00000000
00000000
00000000
001FC000
00FFF800
03FFFE00
07FFFF00
0FFFFF80
1FC03F80
1F800FC0
3F0007C0
3E0007E0
7E0003E0
7C0003E0
7C0003F0
7C0001F0
7C0001F0
FFFFFFF0
FFFFFFF0
FFFFFFF0
FFFFFFF0
F8000000
FC000000
7C000000
7C000000
7C0003E0
7E0003E0
3E0007E0
3F0007C0
1F800FC0
1FC01F80
0FFDFF80
07FFFF00
03FFFC00
00FFF800
003FC000
ENDCHAR
STARTCHAR 00EB
ENCODING 235
SWIDTH 548 0
DWIDTH 32 0
BBX 28 43 2 -1
BITMAP
01F8FC00
01F8FC00
01F8FC00
01F8FC00
01F8FC00
01F8FC00
00000000
00000000
00000000
00000000
001FC000
00FFF800
03FFFE00
07FFFF00
0FFFFF80
1FC03F80
1F800FC0
3F0007C0
3E0007E0
7E0003E0
7C0003E0
7C0003F0
7C0001F0
7C0001F0
FFFFFFF0
FFFFFFF0
FFFFFFF0
FFFFFFF0
F8000000
FC000000
7C000000
7C000000
7C0003E0
7E0003E0
3E0007E0
3F0007C0
1F800FC0
1FC01F80
0FFDFF80
07FFFF00
03FFFC00
00FFF800
003FC000
ENDCHAR
STARTCHAR 00EC
ENCODING 236
SWIDTH 274 0
DWIDTH 16 0
BBX 12 44 0 0
BITMAP
FE00
7E00
3F00
1F80
0F80
07C0
03C0
01E0
00F0
0000
0000
0000
0000
07C0
07C0
07C0
07C0
07C0
07C0
07C0
07C0
07C0
07C0
07C0
07C0
07C0
07C0
07C0
07C0
07C0
07C0
07C0
07C0
07C0
07C0
07C0
07C0
07C0
07C0
07C0
07C0
07C0
07C0
07C0
ENDCHAR
STARTCHAR 00ED
ENCODING 237
SWIDTH 274 0
DWIDTH 16 0
BBX 12 44 4 0
BITMAP
07F0
0FC0
0FC0
1F80
1F00
3E00
7C00
7800
F000
0000
0000
0000
0000
7C00
7C00
7C00
7C00
7C00
7C00
7C00
7C00
7C00
7C00
7C00
7C00
7C00
7C00
7C00
7C00
7C00
7C00
7C00
7C00
7C00
7C00
7C00
7C00
7C00
7C00
7C00
7C00
7C00
7C00
7C00
ENDCHAR
STARTCHAR 00EE
ENCODING 238
SWIDTH 274 0
DWIDTH 16 0
BBX 16 44 0 0
BITMAP
07E0
0FF0
0FF0
1FF8
3E7C
3C3C
781E
781E
F00F
0000
0000
0000
0000
07C0
07C0
07C0
07C0
07C0
07C0
07C0
07C0
07C0
07C0
07C0
07C0
07C0
07C0
07C0
07C0
07C0
07C0
07C0
07C0
07C0
07C0
07C0
07C0
07C0
07C0
07C0
07C0
07C0
07C0
07C0
ENDCHAR
STARTCHAR 00EF
ENCODING 239
SWIDTH 274 0
DWIDTH 16 0
BBX 16 41 0 0
BITMAP
FC3F
FC3F
FC3F
FC3F
FC3F
FC3F
0000
0000
0000
0000
07C0
07C0
07C0
07C0
07C0
07C0
07C0
07C0
07C0
07C0
07C0
07C0
07C0
07C0
07C0
07C0
07C0
07C0
07C0
07C0
07C0
07C0
07C0
07C0
07C0
07C0
07C0
07C0
07C0
07C0
07C0
ENDCHAR
STARTCHAR 00F0
ENCODING 240
SWIDTH 548 0
DWIDTH 32 0
BBX 28 45 2 -1
BITMAP
06000000
0F804000
1FC1E000
07F7F000
03FF8000
00FE0000
03FF0000
0FFF8000
0F8FE000
0E07F000
0003F800
0001FC00
007FFC00
01FFFE00
03FFFF00
0FFFFF00
1FF9FF80
1FC03F80
3F001FC0
3F000FC0
7E0007E0
7C0007E0
7C0003E0
7C0003E0
FC0003F0
F80003F0
F80001F0
F80001F0
F80001F0
F80001F0
F80001F0
F80001F0
FC0003F0
7C0003E0
7C0003E0
7E0007E0
7E0007E0
3F000FC0
3F801FC0
1FC03F80
0FFFFF00
0FFFFE00
03FFFC00
01FFF800
003FC000
ENDCHAR
STARTCHAR 00F1
ENCODING 241
SWIDTH 548 0
DWIDTH 32 0
BBX 24 42 4 0
BITMAP
03E038
07FC78
0FFFF8
0FFFF0
1E1FF0
1E03C0
000000
000000
000000
000000
001FC0
F87FF8
F8FFFC
F9FFFE
FBE1FF
FF807F
FF003F
FE001F
FC001F
FC000F
FC000F
F8000F
F8000F
F8000F
F8000F
F8000F
F8000F
F8000F
F8000F
F8000F
F8000F
F8000F
F8000F
F8000F
F8000F
F8000F
F8000F
F8000F
F8000F
F8000F
F8000F
F8000F
ENDCHAR
STARTCHAR 00F2
ENCODING 242
SWIDTH 548 0
DWIDTH 32 0
BBX 28 45 2 -1
BITMAP
03F80000
01F80000
00FC0000
007E0000
003E0000
001F0000
000F0000
00078000
0003C000
00000000
00000000
00000000
003FC000
01FFF800
03FFFC00
07FFFE00
0FFFFF00
1FC03F80
3F801FC0
3F000FC0
7E0007E0
7E0007E0
7C0003E0
7C0003E0
FC0003F0
F80003F0
F80001F0
F80001F0
F80001F0
F80001F0
F80001F0
F80001F0
FC0003E0
7C0003E0
7C0003E0
7E0007E0
7E0007C0
3F000FC0
3F801FC0
1FC03F80
0FFFFF00
07FFFE00
03FFFC00
01FFF800
003FC000
ENDCHAR
STARTCHAR 00F3
ENCODING 243
SWIDTH 548 0
DWIDTH 32 0
BBX 28 45 2 -1
BITMAP
0001F800
0003F800
0003F000
0007E000
0007C000
000F8000
001F0000
001E0000
003C0000
00000000
00000000
00000000
003FC000
01FFF800
03FFFC00
07FFFE00
0FFFFF00
1FC03F80
3F801FC0
3F000FC0
7E0007E0
7E0007E0
7C0003E0
7C0003E0
FC0003F0
F80003F0
F80001F0
F80001F0
F80001F0
F80001F0
F80001F0
F80001F0
FC0003E0
7C0003E0
7C0003E0
7E0007E0
7E0007C0
3F000FC0
3F801FC0
1FC03F80
0FFFFF00
07FFFE00
03FFFC00
01FFF800
003FC000
ENDCHAR
STARTCHAR 00F4
ENCODING 244
SWIDTH 548 0
DWIDTH 32 0
BBX 28 45 2 -1
BITMAP
001F8000
003FC000
003FC000
007FE000
00F9F000
00F0F000
01E07800
03C07800
03C03C00
00000000
00000000
00000000
003FC000
01FFF800
03FFFC00
07FFFE00
0FFFFF00
1FC03F80
3F801FC0
3F000FC0
7E0007E0
7E0007E0
7C0003E0
7C0003E0
FC0003F0
F80003F0
F80001F0
F80001F0
F80001F0
F80001F0
F80001F0
F80001F0
FC0003E0
7C0003E0
7C0003E0
7E0007E0
7E0007C0
3F000FC0
3F801FC0
1FC03F80
0FFFFF00
07FFFE00
03FFFC00
01FFF800
003FC000
ENDCHAR
STARTCHAR 00F5
ENCODING 245
SWIDTH 548 0
DWIDTH 32 0
BBX 28 43 2 -1
BITMAP
00F80E00
01FE1E00
03FFFE00
03FFFC00
0787FC00
0701F000
00000000
00000000
00000000
00000000
003FC000
01FFF800
03FFFC00
07FFFE00
0FFFFF00
1FC03F80
3F801FC0
3F000FC0
7E0007E0
7E0007E0
7C0003E0
7C0003E0
FC0003F0
F80003F0
F80001F0
F80001F0
F80001F0
F80001F0
F80001F0
F80001F0
FC0003E0
7C0003E0
7C0003E0
7E0007E0
7E0007C0
3F000FC0
3F801FC0
1FC03F80
0FFFFF00
07FFFE00
03FFFC00
01FFF800
003FC000
ENDCHAR
STARTCHAR 00F6
ENCODING 246
SWIDTH 548 0
DWIDTH 32 0
BBX 28 43 2 -1
BITMAP
03F0FC00
03F0FC00
03F0FC00
03F0FC00
03F0FC00
03F0FC00
00000000
00000000
00000000
00000000
003FC000
01FFF800
03FFFC00
07FFFE00
0FFFFF00
1FC03F80
3F801FC0
3F000FC0
7E0007E0
7E0007E0
7C0003E0
7C0003E0
FC0003F0
F80003F0
F80001F0
F80001F0
F80001F0
F80001F0
F80001F0
F80001F0
FC0003E0
7C0003E0
7C0003E0
7E0007E0
7E0007C0
3F000FC0
3F801FC0
1FC03F80
0FFFFF00
07FFFE00
03FFFC00
01FFF800
003FC000
ENDCHAR
STARTCHAR 00F7
ENCODING 247
SWIDTH 582 0
DWIDTH 34 0
BBX 28 28 3 0
BITMAP
001F8000
001F8000
001F8000
001F8000
001F8000
001F8000
00000000
00000000
00000000
00000000
00000000
00000000
FFFFFFF0
FFFFFFF0
FFFFFFF0
FFFFFFF0
00000000
00000000
00000000
00000000
00000000
00000000
001F8000
001F8000
001F8000
001F8000
001F8000
001F8000
ENDCHAR
STARTCHAR 00F8
ENCODING 248
SWIDTH 617 0
DWIDTH 36 0
BBX 30 33 1 -1
BITMAP
001FE008
00FFFC1C
01FFFE38
03FFFF70
07FFFFE0
0FE01FC0
1FC00FE0
1F8007E0
3F000FF0
3F000FF0
3E001DF0
3E0039F0
7E0071F8
7C00E1F8
7C01E0F8
7C03C0F8
7C0780F8
7C0700F8
7C0E00F8
7C1C01F8
7E3801F0
3E7001F0
3EF001F0
3FE003F0
3FC003E0
1F8007E0
1FC00FE0
0FE01FC0
1FFFFF80
3BFFFF00
71FFFE00
F0FFFC00
601FE000
ENDCHAR
STARTCHAR 00F9
ENCODING 249
SWIDTH 548 0
DWIDTH 32 0
BBX 24 45 4 -1
BITMAP
0FE000
07E000
03F000
01F000
00F800
007C00
003C00
001E00
000F00
000000
000000
000000
000000
F8001F
F8001F
F8001F
F8001F
F8001F
F8001F
F8001F
F8001F
F8001F
F8001F
F8001F
F8001F
F8001F
F8001F
F8001F
F8001F
F8001F
F8001F
F8001F
F8001F
F8001F
F8001F
F8003F
F8003F
F8007F
FC007F
FE01FF
7F87EF
7FFFCF
3FFF8F
1FFF0F
03FC00
ENDCHAR
STARTCHAR 00FA
ENCODING 250
SWIDTH 548 0
DWIDTH 32 0
BBX 24 45 4 -1
BITMAP
0007E0
000FC0
000F80
001F00
003E00
003C00
007800
00F000
00E000
000000
000000
000000
000000
F8001F
F8001F
F8001F
F8001F
F8001F
F8001F
F8001F
F8001F
F8001F
F8001F
F8001F
F8001F
F8001F
F8001F
F8001F
F8001F
F8001F
F8001F
F8001F
F8001F
F8001F
F8001F
F8003F
F8003F
F8007F
FC007F
FE01FF
7F87EF
7FFFCF
3FFF8F
1FFF0F
03FC00
ENDCHAR
STARTCHAR 00FB
ENCODING 251
SWIDTH 548 0
DWIDTH 32 0
BBX 24 45 4 -1
BITMAP
007E00
00FF00
00FF00
01FF80
03E7C0
03C3C0
0781E0
0780F0
0F00F0
000000
000000
000000
000000
F8001F
F8001F
F8001F
F8001F
F8001F
F8001F
F8001F
F8001F
F8001F
F8001F
F8001F
F8001F
F8001F
F8001F
F8001F
F8001F
F8001F
F8001F
F8001F
F8001F
F8001F
F8001F
F8003F
F8003F
F8007F
FC007F
FE01FF
7F87EF
7FFFCF
3FFF8F
1FFF0F
03FC00
ENDCHAR
STARTCHAR 00FC
ENCODING 252
SWIDTH 548 0
DWIDTH 32 0
BBX 24 43 4 -1
BITMAP
0FC3F0
0FC3F0
0FC3F0
0FC3F0
0FC3F0
0FC3F0
000000
000000
000000
000000
000000
F8001F
F8001F
F8001F
F8001F
F8001F
F8001F
F8001F
F8001F
F8001F
F8001F
F8001F
F8001F
F8001F
F8001F
F8001F
F8001F
F8001F
F8001F
F8001F
F8001F
F8001F
F8001F
F8003F
F8003F
F8007F
FC007F
FE01FF
7F87EF
7FFFCF
3FFF8F
1FFF0F
03FC00
ENDCHAR
STARTCHAR 00FD
ENCODING 253
SWIDTH 497 0
DWIDTH 29 0
BBX 27 57 1 -13
BITMAP
0003F800
0003F000
0007E000
0007C000
000F8000
001F0000
001E0000
003C0000
00780000
00000000
00000000
00000000
00000000
FC0007E0
7C0007C0
7C0007C0
7C000FC0
3E000F80
3E000F80
3E001F80
1F001F00
1F001F00
1F003E00
0F803E00
0F803E00
0F807C00
07C07C00
07C07C00
07C0F800
03E0F800
03E1F800
03E1F000
01F1F000
01F3E000
01F3E000
00FBE000
00FFC000
00FFC000
007FC000
007F8000
007F8000
003F8000
003F0000
003F0000
003E0000
003E0000
003E0000
007C0000
007C0000
00FC0000
00F80000
01F80000
3FF00000
3FF00000
3FE00000
3FC00000
1E000000
ENDCHAR
STARTCHAR 00FE
ENCODING 254
SWIDTH 548 0
DWIDTH 32 0
BBX 27 54 3 -12
BITMAP
F8000000
F8000000
F8000000
F8000000
F8000000
F8000000
F8000000
F8000000
F8000000
F8000000
F81FC000
F87FF000
F9FFFC00
FBFFFE00
FFFFFF00
FFC07F80
FF001F80
FF000FC0
FE000FC0
FC0007C0
FC0007E0
FC0003E0
F80003E0
F80003E0
F80003E0
F80003E0
F80003E0
F80003E0
F80003E0
F80003E0
F80003E0
FC0003E0
FC0007E0
FC0007E0
FE000FC0
FF000FC0
FF801F80
FFC07F80
FFFFFF00
FBFFFE00
F9FFFC00
F8FFF000
F81FC000
F8000000
F8000000
F8000000
F8000000
F8000000
F8000000
F8000000
F8000000
F8000000
F8000000
F8000000
ENDCHAR
STARTCHAR 00FF
ENCODING 255
SWIDTH 497 0
DWIDTH 29 0
BBX 27 55 1 -13
BITMAP
03F1F800
03F1F800
03F1F800
03F1F800
03F1F800
03F1F800
00000000
00000000
00000000
00000000
00000000
FC0007E0
7C0007C0
7C0007C0
7C000FC0
3E000F80
3E000F80
3E001F80
1F001F00
1F001F00
1F003E00
0F803E00
0F803E00
0F807C00
07C07C00
07C07C00
07C0F800
03E0F800
03E1F800
03E1F000
01F1F000
01F3E000
01F3E000
00FBE000
00FFC000
00FFC000
007FC000
007F8000
007F8000
003F8000
003F0000
003F0000
003E0000
003E0000
003E0000
007C0000
007C0000
00FC0000
00F80000
01F80000
3FF00000
3FF00000
3FE00000
3FC00000
1E000000
ENDCHAR
STARTCHAR 0100
ENCODING 256
SWIDTH 668 0
DWIDTH 39 0
BBX 37 53 1 0
BITMAP
001FFFE000
001FFFE000
001FFFE000
001FFFE000
0000000000
0000000000
0000000000
0000000000
0000000000
0000000000
0001FC0000
0001FE0000
0003FE0000
0003FE0000
0003FF0000
0007FF0000
0007DF0000
0007DF8000
000FDF8000
000F8F8000
001F8FC000
001F8FC000
001F07E000
003F07E000
003F07E000
003E03F000
007E03F000
007C03F000
007C01F800
00FC01F800
00F801F800
00F800FC00
01F800FC00
01F000FC00
01F0007E00
03FFFFFE00
03FFFFFE00
07FFFFFF00
07FFFFFF00
07FFFFFF00
0FC0001F80
0FC0001F80
0F80001F80
1F80000FC0
1F80000FC0
1F00000FC0
3F000007E0
3F000007E0
3E000007F0
7E000003F0
7E000003F0
7C000003F8
FC000001F8
ENDCHAR
STARTCHAR 0101
ENCODING 257
SWIDTH 548 0
DWIDTH 32 0
BBX 29 42 2 -1
BITMAP
03FFFC00
03FFFC00
03FFFC00
03FFFC00
00000000
00000000
00000000
00000000
00000000
003FE000
01FFFC00
07FFFE00
0FFFFF00
1FFFFF80
1F801F80
3F000F80
3E000FC0
3E0007C0
3E0007C0
000007C0
000007C0
00000FC0
00007FC0
001FFFC0
03FFFFC0
0FFFFFC0
1FFF87C0
3FE007C0
7F0007C0
7E0007C0
7C0007C0
7C0007C0
FC0007C0
FC000FC0
7C001FC0
7C003FC0
7E007FC0
3FC3FFE0
3FFFF7F8
1FFFC7F8
0FFF83F8
01FC01F8
ENDCHAR
STARTCHAR 0102
ENCODING 258
SWIDTH 668 0
DWIDTH 39 0
BBX 37 55 1 0
BITMAP
003800E000
003C00E000
003C01E000
003F07E000
001FFFC000
000FFF8000
0007FF0000
0001FC0000
0000000000
0000000000
0000000000
0000000000
0001FC0000
0001FE0000
0003FE0000
0003FE0000
0003FF0000
0007FF0000
0007DF0000
0007DF8000
000FDF8000
000F8F8000
001F8FC000
001F8FC000
001F07E000
003F07E000
003F07E000
003E03F000
007E03F000
007C03F000
007C01F800
00FC01F800
00F801F800
00F800FC00
01F800FC00
01F000FC00
01F0007E00
03FFFFFE00
03FFFFFE00
07FFFFFF00
07FFFFFF00
07FFFFFF00
0FC0001F80
0FC0001F80
0F80001F80
1F80000FC0
1F80000FC0
1F00000FC0
3F000007E0
3F000007E0
3E000007F0
7E000003F0
7E000003F0
7C000003F8
FC000001F8
ENDCHAR
STARTCHAR 0103
ENCODING 259
SWIDTH 548 0
DWIDTH 32 0
BBX 29 44 2 -1
BITMAP
07801E00
07801E00
03C03C00
03E07C00
03FFFC00
01FFF800
00FFF000
003FC000
00000000
00000000
00000000
003FE000
01FFFC00
07FFFE00
0FFFFF00
1FFFFF80
1F801F80
3F000F80
3E000FC0
3E0007C0
3E0007C0
000007C0
000007C0
00000FC0
00007FC0
001FFFC0
03FFFFC0
0FFFFFC0
1FFF87C0
3FE007C0
7F0007C0
7E0007C0
7C0007C0
7C0007C0
FC0007C0
FC000FC0
7C001FC0
7C003FC0
7E007FC0
3FC3FFE0
3FFFF7F8
1FFFC7F8
0FFF83F8
01FC01F8
ENDCHAR
STARTCHAR 0104
ENCODING 260
SWIDTH 668 0
DWIDTH 39 0
BBX 39 55 1 -12
BITMAP
0001FC0000
0001FE0000
0003FE0000
0003FE0000
0003FF0000
0007FF0000
0007DF0000
0007DF8000
000FDF8000
000F8F8000
001F8FC000
001F8FC000
001F07E000
003F07E000
003F07E000
003E03F000
007E03F000
007C03F000
007C01F800
00FC01F800
00F801F800
00F800FC00
01F800FC00
01F000FC00
01F0007E00
03FFFFFE00
03FFFFFE00
07FFFFFF00
07FFFFFF00
07FFFFFF00
0FC0001F80
0FC0001F80
0F80001F80
1F80000FC0
1F80000FC0
1F00000FC0
3F000007E0
3F000007E0
3E000007F0
7E000003F0
7E000003F0
7C000003F8
FC000001F8
00000000F0
00000003C0
0000000780
0000000F00
0000000F00
0000001F00
0000001F00
0000001F00
0000000F80
0000000FFE
00000007FE
00000000FE
ENDCHAR
STARTCHAR 0105
ENCODING 261
SWIDTH 548 0
DWIDTH 32 0
BBX 32 44 3 -12
BITMAP
007FC000
03FFF800
0FFFFC00
1FFFFE00
3FFFFF00
3F003F00
7E001F00
7C001F80
7C000F80
7C000F80
00000F80
00000F80
00001F80
0000FF80
003FFF80
07FFFF80
1FFFFF80
3FFF0F80
7FC00F80
7E000F80
FC000F80
F8000F80
F8000F80
F8000F80
F8001F80
F8003F80
F8007F80
FC00FF80
7F87FFC0
7FFFEFF0
3FFF8FF0
1FFF07F0
03F803F0
000001C0
00000780
00000F00
00000F00
00000F00
00000F00
00000F00
00000FC1
000007FF
000003FF
00000038
ENDCHAR
STARTCHAR 0106
ENCODING 262
SWIDTH 720 0
DWIDTH 42 0
BBX 36 57 3 -1
BITMAP
000007E000
00000FC000
00001F8000
00001F0000
00003E0000
00007C0000
0000780000
0000F00000
0001E00000
0000000000
0000000000
0000000000
0001FF0000
001FFFE000
007FFFF800
00FFFFFC00
01FFFFFE00
03FC01FF00
07F0003F80
0FE0001FC0
1FC0000FC0
1F800007C0
3F000007E0
3F000007E0
3E000003E0
7E000003F0
7C00000000
7C00000000
FC00000000
FC00000000
FC00000000
F800000000
F800000000
F800000000
F800000000
F800000000
F800000000
F800000000
FC00000000
FC00000000
FC000001F0
7C000001F0
7C000003F0
7E000003F0
7E000003F0
3F000003E0
3F000007E0
1F800007E0
1FC0000FC0
0FE0001FC0
07F8003F80
07FE01FF00
03FFFFFE00
00FFFFFC00
007FFFF800
001FFFE000
0003FF0000
ENDCHAR
STARTCHAR 0107
ENCODING 263
SWIDTH 497 0
DWIDTH 29 0
BBX 26 45 2 -1
BITMAP
0001F800
0003F800
0003F000
0007E000
0007C000
000F8000
001F0000
001E0000
003C0000
00000000
00000000
00000000
003F8000
01FFF000
03FFF800
07FFFE00
0FFFFE00
1FC07F00
3F003F80
3E001F80
7E000F80
7C000F80
7C000F80
FC000000
F8000000
F8000000
F8000000
F8000000
F8000000
F8000000
F8000000
F8000000
F8000000
F80007C0
FC0007C0
7C000FC0
7E000F80
3E001F80
3F001F00
1FC07F00
1FFBFE00
0FFFFC00
07FFF800
01FFF000
003F8000
ENDCHAR
STARTCHAR 0108
ENCODING 264
SWIDTH 720 0
DWIDTH 42 0
BBX 36 57 3 -1
BITMAP
0000FC0000
0001FC0000
0001FE0000
0003FF0000
0007CF0000
00078F8000
000F078000
001F03C000
001E01E000
0000000000
0000000000
0000000000
0001FF0000
001FFFE000
007FFFF800
00FFFFFC00
01FFFFFE00
03FC01FF00
07F0003F80
0FE0001FC0
1FC0000FC0
1F800007C0
3F000007E0
3F000007E0
3E000003E0
7E000003F0
7C00000000
7C00000000
FC00000000
FC00000000
FC00000000
F800000000
F800000000
F800000000
F800000000
F800000000
F800000000
F800000000
FC00000000
FC00000000
FC000001F0
7C000001F0
7C000003F0
7E000003F0
7E000003F0
3F000003E0
3F000007E0
1F800007E0
1FC0000FC0
0FE0001FC0
07F8003F80
07FE01FF00
03FFFFFE00
00FFFFFC00
007FFFF800
001FFFE000
0003FF0000
ENDCHAR
STARTCHAR 0109
ENCODING 265
SWIDTH 497 0
DWIDTH 29 0
BBX 26 45 2 -1
BITMAP
001F8000
003F8000
007FC000
007BE000
00F9E000
01F1F000
01E0F000
03C07800
07803C00
00000000
00000000
00000000
003F8000
01FFF000
03FFF800
07FFFE00
0FFFFE00
1FC07F00
3F003F80
3E001F80
7E000F80
7C000F80
7C000F80
FC000000
F8000000
F8000000
F8000000
F8000000
F8000000
F8000000
F8000000
F8000000
F8000000
F80007C0
FC0007C0
7C000FC0
7E000F80
3E001F80
3F001F00
1FC07F00
1FFBFE00
0FFFFC00
07FFF800
01FFF000
003F8000
ENDCHAR
STARTCHAR 010A
ENCODING 266
SWIDTH 720 0
DWIDTH 42 0
BBX 36 55 3 -1
BITMAP
0000FC0000
0000FC0000
0000FC0000
0000FC0000
0000FC0000
0000FC0000
0000000000
0000000000
0000000000
0000000000
0001FF0000
001FFFE000
007FFFF800
00FFFFFC00
01FFFFFE00
03FC01FF00
07F0003F80
0FE0001FC0
1FC0000FC0
1F800007C0
3F000007E0
3F000007E0
3E000003E0
7E000003F0
7C00000000
7C00000000
FC00000000
FC00000000
FC00000000
F800000000
F800000000
F800000000
F800000000
F800000000
F800000000
F800000000
FC00000000
FC00000000
FC000001F0
7C000001F0
7C000003F0
7E000003F0
7E000003F0
3F000003E0
3F000007E0
1F800007E0
1FC0000FC0
0FE0001FC0
07F8003F80
07FE01FF00
03FFFFFE00
00FFFFFC00
007FFFF800
001FFFE000
0003FF0000
ENDCHAR
STARTCHAR 010B
ENCODING 267
SWIDTH 497 0
DWIDTH 29 0
BBX 26 43 2 -1
BITMAP
003F8000
003F8000
003F8000
003F8000
003F8000
003F8000
00000000
00000000
00000000
00000000
003F8000
01FFF000
03FFF800
07FFFE00
0FFFFE00
1FC07F00
3F003F80
3E001F80
7E000F80
7C000F80
7C000F80
FC000000
F8000000
F8000000
F8000000
F8000000
F8000000
F8000000
F8000000
F8000000
F8000000
F80007C0
FC0007C0
7C000FC0
7E000F80
3E001F80
3F001F00
1FC07F00
1FFBFE00
0FFFFC00
07FFF800
01FFF000
003F8000
ENDCHAR
STARTCHAR 010C
ENCODING 268
SWIDTH 720 0
DWIDTH 42 0
BBX 36 57 3 -1
BITMAP
001E00F000
000E01E000
000F03C000
000787C000
0007CF8000
0003EF0000
0001FF0000
0001FE0000
0000FC0000
0000000000
0000000000
0000000000
0001FF0000
001FFFE000
007FFFF800
00FFFFFC00
01FFFFFE00
03FC01FF00
07F0003F80
0FE0001FC0
1FC0000FC0
1F800007C0
3F000007E0
3F000007E0
3E000003E0
7E000003F0
7C00000000
7C00000000
FC00000000
FC00000000
FC00000000
F800000000
F800000000
F800000000
F800000000
F800000000
F800000000
F800000000
FC00000000
FC00000000
FC000001F0
7C000001F0
7C000003F0
7E000003F0
7E000003F0
3F000003E0
3F000007E0
1F800007E0
1FC0000FC0
0FE0001FC0
07F8003F80
07FE01FF00
03FFFFFE00
00FFFFFC00
007FFFF800
001FFFE000
0003FF0000
ENDCHAR
STARTCHAR 010D
ENCODING 269
SWIDTH 497 0
DWIDTH 29 0
BBX 26 45 2 -1
BITMAP
07803C00
03C07800
01E0F000
01F1F000
00FBE000
007BC000
007FC000
003F8000
003F8000
00000000
00000000
00000000
003F8000
01FFF000
03FFF800
07FFFE00
0FFFFE00
1FC07F00
3F003F80
3E001F80
7E000F80
7C000F80
7C000F80
FC000000
F8000000
F8000000
F8000000
F8000000
F8000000
F8000000
F8000000
F8000000
F8000000
F80007C0
FC0007C0
7C000FC0
7E000F80
3E001F80
3F001F00
1FC07F00
1FFBFE00
0FFFFC00
07FFF800
01FFF000
003F8000
ENDCHAR
STARTCHAR 010E
ENCODING 270
SWIDTH 720 0
DWIDTH 42 0
BBX 34 55 5 0
BITMAP
01E01E0000
00F03C0000
00F0780000
0078F80000
007DF00000
003FE00000
001FE00000
001FC00000
0000000000
0000000000
0000000000
0000000000
FFFFF80000
FFFFFF0000
FFFFFFC000
FFFFFFE000
FFFFFFF000
FC000FF800
FC0003FC00
FC0000FE00
FC00007E00
FC00003F00
FC00003F00
FC00001F00
FC00001F80
FC00001F80
FC00000F80
FC00000F80
FC00000FC0
FC00000FC0
FC00000FC0
FC00000FC0
FC00000FC0
FC00000FC0
FC00000FC0
FC00000FC0
FC00000FC0
FC00000FC0
FC00000FC0
FC00000F80
FC00000F80
FC00001F80
FC00001F80
FC00001F00
FC00003F00
FC00003F00
FC00007E00
FC0000FE00
FC0001FC00
FC000FF800
FFFFFFF000
FFFFFFE000
FFFFFFC000
FFFFFF0000
FFFFF80000
ENDCHAR
STARTCHAR 010F
ENCODING 271
SWIDTH 651 0
DWIDTH 38 0
BBX 36 44 2 -1
BITMAP
000003E3F0
000003E3F0
000003E3F0
000003E3F0
000003E3F0
000003E3F0
000003E070
000003E070
000003E060
000003E0E0
000003E1E0
007F03E3C0
01FFE3E300
07FFF3E000
0FFFFBE000
1FFFFFE000
3FC07FE000
3F001FE000
7E001FE000
7E000FE000
FC0007E000
FC0007E000
F80007E000
F80003E000
F80003E000
F80003E000
F80003E000
F80003E000
F80003E000
F80003E000
F80003E000
F80003E000
F80007E000
FC0007E000
7C0007E000
7E000FE000
7E000FE000
3F001FE000
3FC07FE000
1FFFFDE000
0FFFF9E000
07FFF1E000
01FFE1E000
007F000000
ENDCHAR
STARTCHAR 0110
ENCODING 272
SWIDTH 720 0
DWIDTH 42 0
BBX 38 43 1 0
BITMAP
0FFFFF8000
0FFFFFF000
0FFFFFFC00
0FFFFFFE00
0FFFFFFF00
0FC000FF80
0FC0003FC0
0FC0000FE0
0FC00007E0
0FC00003F0
0FC00003F0
0FC00001F0
0FC00001F8
0FC00001F8
0FC00000F8
0FC00000F8
0FC00000FC
0FC00000FC
0FC00000FC
FFFFF000FC
FFFFF000FC
FFFFF000FC
FFFFF000FC
0FC00000FC
0FC00000FC
0FC00000FC
0FC00000FC
0FC00000F8
0FC00000F8
0FC00001F8
0FC00001F8
0FC00001F0
0FC00003F0
0FC00003F0
0FC00007E0
0FC0000FE0
0FC0001FC0
0FC000FF80
0FFFFFFF00
0FFFFFFE00
0FFFFFFC00
0FFFFFF000
0FFFFF8000
ENDCHAR
STARTCHAR 0111
ENCODING 273
SWIDTH 548 0
DWIDTH 32 0
BBX 30 44 2 -1
BITMAP
000003E0
000003E0
000003E0
000003E0
0007FFFC
0007FFFC
0007FFFC
000003E0
000003E0
000003E0
000003E0
007F03E0
01FFE3E0
07FFF3E0
0FFFFBE0
1FFFFFE0
3FC07FE0
3F003FE0
7E001FE0
7E000FE0
FC0007E0
FC0007E0
F80007E0
F80003E0
F80003E0
F80003E0
F80003E0
F80003E0
F80003E0
F80003E0
F80003E0
F80003E0
F80007E0
FC0007E0
7C0007E0
7E000FE0
7E001FE0
3F803FE0
3FC07FE0
1FFFFFE0
0FFFFBE0
07FFF3E0
01FFE3E0
007F0000
ENDCHAR
STARTCHAR 0112
ENCODING 274
SWIDTH 668 0
DWIDTH 39 0
BBX 31 53 5 0
BITMAP
01FFFE00
01FFFE00
01FFFE00
01FFFE00
00000000
00000000
00000000
00000000
00000000
00000000
FFFFFFFC
FFFFFFFC
FFFFFFFC
FFFFFFFC
FFFFFFFC
FC000000
FC000000
FC000000
FC000000
FC000000
FC000000
FC000000
FC000000
FC000000
FC000000
FC000000
FC000000
FC000000
FFFFFFF8
FFFFFFF8
FFFFFFF8
FFFFFFF8
FFFFFFF8
FC000000
FC000000
FC000000
FC000000
FC000000
FC000000
FC000000
FC000000
FC000000
FC000000
FC000000
FC000000
FC000000
FC000000
FC000000
FFFFFFFE
FFFFFFFE
FFFFFFFE
FFFFFFFE
FFFFFFFE
ENDCHAR
STARTCHAR 0113
ENCODING 275
SWIDTH 548 0
DWIDTH 32 0
BBX 28 42 2 -1
BITMAP
01FFFE00
01FFFE00
01FFFE00
01FFFE00
00000000
00000000
00000000
00000000
00000000
001FC000
00FFF800
03FFFE00
07FFFF00
0FFFFF80
1FC03F80
1F800FC0
3F0007C0
3E0007E0
7E0003E0
7C0003E0
7C0003F0
7C0001F0
7C0001F0
FFFFFFF0
FFFFFFF0
FFFFFFF0
FFFFFFF0
F8000000
FC000000
7C000000
7C000000
7C0003E0
7E0003E0
3E0007E0
3F0007C0
1F800FC0
1FC01F80
0FFDFF80
07FFFF00
03FFFC00
00FFF800
003FC000
ENDCHAR
STARTCHAR 0114
ENCODING 276
SWIDTH 668 0
DWIDTH 39 0
BBX 31 55 5 0
BITMAP
03C00F00
03C00F00
01E01E00
01F03E00
01FFFE00
00FFFC00
007FF800
001FE000
00000000
00000000
00000000
00000000
FFFFFFFC
FFFFFFFC
FFFFFFFC
FFFFFFFC
FFFFFFFC
FC000000
FC000000
FC000000
FC000000
FC000000
FC000000
FC000000
FC000000
FC000000
FC000000
FC000000
FC000000
FC000000
FFFFFFF8
FFFFFFF8
FFFFFFF8
FFFFFFF8
FFFFFFF8
FC000000
FC000000
FC000000
FC000000
FC000000
FC000000
FC000000
FC000000
FC000000
FC000000
FC000000
FC000000
FC000000
FC000000
FC000000
FFFFFFFE
FFFFFFFE
FFFFFFFE
FFFFFFFE
FFFFFFFE
ENDCHAR
STARTCHAR 0115
ENCODING 277
SWIDTH 548 0
DWIDTH 32 0
BBX 28 44 2 -1
BITMAP
03800E00
03C00E00
03C01E00
03F03E00
01FFFC00
00FFF800
007FF000
001FC000
00000000
00000000
00000000
001FC000
00FFF800
03FFFE00
07FFFF00
0FFFFF80
1FC03F80
1F800FC0
3F0007C0
3E0007E0
7E0003E0
7C0003E0
7C0003F0
7C0001F0
7C0001F0
FFFFFFF0
FFFFFFF0
FFFFFFF0
FFFFFFF0
F8000000
FC000000
7C000000
7C000000
7C0003E0
7E0003E0
3E0007E0
3F0007C0
1F800FC0
1FC01F80
0FFDFF80
07FFFF00
03FFFC00
00FFF800
003FC000
ENDCHAR
STARTCHAR 0116
ENCODING 278
SWIDTH 668 0
DWIDTH 39 0
BBX 31 54 5 0
BITMAP
000FC000
000FC000
000FC000
000FC000
000FC000
000FC000
00000000
00000000
00000000
00000000
00000000
FFFFFFFC
FFFFFFFC
FFFFFFFC
FFFFFFFC
FFFFFFFC
FC000000
FC000000
FC000000
FC000000
FC000000
FC000000
FC000000
FC000000
FC000000
FC000000
FC000000
FC000000
FC000000
FFFFFFF8
FFFFFFF8
FFFFFFF8
FFFFFFF8
FFFFFFF8
FC000000
FC000000
FC000000
FC000000
FC000000
FC000000
FC000000
FC000000
FC000000
FC000000
FC000000
FC000000
FC000000
FC000000
FC000000
FFFFFFFE
FFFFFFFE
FFFFFFFE
FFFFFFFE
FFFFFFFE
ENDCHAR
STARTCHAR 0117
ENCODING 279
SWIDTH 548 0
DWIDTH 32 0
BBX 28 43 2 -1
BITMAP
000FC000
000FC000
000FC000
000FC000
000FC000
000FC000
00000000
00000000
00000000
00000000
001FC000
00FFF800
03FFFE00
07FFFF00
0FFFFF80
1FC03F80
1F800FC0
3F0007C0
3E0007E0
7E0003E0
7C0003E0
7C0003F0
7C0001F0
7C0001F0
FFFFFFF0
FFFFFFF0
FFFFFFF0
FFFFFFF0
F8000000
FC000000
7C000000
7C000000
7C0003E0
7E0003E0
3E0007E0
3F0007C0
1F800FC0
1FC01F80
0FFDFF80
07FFFF00
03FFFC00
00FFF800
003FC000
ENDCHAR
STARTCHAR 0118
ENCODING 280
SWIDTH 668 0
DWIDTH 39 0
BBX 33 55 5 -12
BITMAP
FFFFFFFC00
FFFFFFFC00
FFFFFFFC00
FFFFFFFC00
FFFFFFFC00
FC00000000
FC00000000
FC00000000
FC00000000
FC00000000
FC00000000
FC00000000
FC00000000
FC00000000
FC00000000
FC00000000
FC00000000
FC00000000
FFFFFFF800
FFFFFFF800
FFFFFFF800
FFFFFFF800
FFFFFFF800
FC00000000
FC00000000
FC00000000
FC00000000
FC00000000
FC00000000
FC00000000
FC00000000
FC00000000
FC00000000
FC00000000
FC00000000
FC00000000
FC00000000
FC00000000
FFFFFFFE00
FFFFFFFE00
FFFFFFFE00
FFFFFFFE00
FFFFFFFE00
0000003C00
000000F000
000001E000
000003C000
000007C000
0000078000
0000078000
0000078000
000007C000
000003FF80
000001FF80
0000007F80
ENDCHAR
STARTCHAR 0119
ENCODING 281
SWIDTH 548 0
DWIDTH 32 0
BBX 28 44 2 -12
BITMAP
001FC000
00FFF800
03FFFE00
07FFFF00
0FFFFF80
1FC03F80
1F800FC0
3F0007C0
3E0007E0
7E0003E0
7C0003E0
7C0003F0
7C0001F0
7C0001F0
FFFFFFF0
FFFFFFF0
FFFFFFF0
FFFFFFF0
F8000000
FC000000
7C000000
7C000000
7C0003E0
7E0003E0
3E0003E0
3F0007C0
1F800FC0
1FC01F80
0FFDFF80
07FFFF00
03FFFE00
00FFFC00
003FF800
00007000
0000F000
0001E000
0001E000
0003E000
0003E000
0003E000
0001F000
0000FFC0
00007FC0
00000200
ENDCHAR
STARTCHAR 011A
ENCODING 282
SWIDTH 668 0
DWIDTH 39 0
BBX 31 55 5 0
BITMAP
01E01E00
00F03C00
00787C00
007C7800
003CF000
003FF000
001FE000
000FC000
00000000
00000000
00000000
00000000
FFFFFFFC
FFFFFFFC
FFFFFFFC
FFFFFFFC
FFFFFFFC
FC000000
FC000000
FC000000
FC000000
FC000000
FC000000
FC000000
FC000000
FC000000
FC000000
FC000000
FC000000
FC000000
FFFFFFF8
FFFFFFF8
FFFFFFF8
FFFFFFF8
FFFFFFF8
FC000000
FC000000
FC000000
FC000000
FC000000
FC000000
FC000000
FC000000
FC000000
FC000000
FC000000
FC000000
FC000000
FC000000
FC000000
FFFFFFFE
FFFFFFFE
FFFFFFFE
FFFFFFFE
FFFFFFFE
ENDCHAR
STARTCHAR 011B
ENCODING 283
SWIDTH 548 0
DWIDTH 32 0
BBX 28 45 2 -1
BITMAP
01C01E00
01E03C00
00F07800
00787800
007CF000
003FF000
003FE000
001FC000
000FC000
00000000
00000000
00000000
001FC000
00FFF800
03FFFE00
07FFFF00
0FFFFF80
1FC03F80
1F800FC0
3F0007C0
3E0007E0
7E0003E0
7C0003E0
7C0003F0
7C0001F0
7C0001F0
FFFFFFF0
FFFFFFF0
FFFFFFF0
FFFFFFF0
F8000000
FC000000
7C000000
7C000000
7C0003E0
7E0003E0
3E0007E0
3F0007C0
1F800FC0
1FC01F80
0FFDFF80
07FFFF00
03FFFC00
00FFF800
003FC000
ENDCHAR
STARTCHAR 011C
ENCODING 284
SWIDTH 771 0
DWIDTH 45 0
BBX 38 57 3 -1
BITMAP
00007C0000
0000FE0000
0001FF0000
0001FF0000
0003EF8000
0007C7C000
000783C000
000F01E000
000E00E000
0000000000
0000000000
0000000000
0001FF8000
000FFFF000
003FFFFC00
00FFFFFF00
01FFFFFF80
03FE007FC0
07F8001FE0
0FE0000FF0
1FC00003F0
1F800003F8
3F000001F8
3F000000F8
7E000000FC
7E000000FC
7C00000000
FC00000000
FC00000000
F800000000
F800000000
F800000000
F800000000
F80007FFFC
F80007FFFC
F80007FFFC
F80007FFFC
F80007FFFC
F80000003C
FC0000003C
FC0000003C
FC0000007C
7C0000007C
7E0000007C
7E0000007C
3F000000FC
3F000001FC
1F800001FC
1FC00003FC
0FE00007FC
07F8001FBC
03FE007F3C
01FFFFFE3C
00FFFFFC3C
007FFFF01C
001FFFC01C
0003FE0000
ENDCHAR
STARTCHAR 011D
ENCODING 285
SWIDTH 548 0
DWIDTH 32 0
BBX 26 56 2 -12
BITMAP
001F8000
003FC000
003FC000
007FE000
00F9E000
00F0F000
01E07800
03C07800
03C03C00
00000000
00000000
00000000
007F0000
01FFC3C0
03FFE3C0
07FFF3C0
0FFFFBC0
1F807FC0
3F003FC0
3E001FC0
3E001FC0
7C000FC0
7C000FC0
7C0007C0
F80007C0
F80007C0
F80007C0
F80007C0
F80007C0
F80007C0
F80007C0
F80007C0
F80007C0
FC0007C0
7C000FC0
7C000FC0
7E000FC0
3E001FC0
3F003FC0
1F807FC0
0FFFF7C0
0FFFF7C0
03FFE7C0
01FF87C0
007E07C0
000007C0
00000780
7C000F80
7C000F80
3E001F80
3F003F00
1F80FE00
1FFFFE00
0FFFF800
03FFF000
00FF8000
ENDCHAR
STARTCHAR 011E
ENCODING 286
SWIDTH 771 0
DWIDTH 45 0
BBX 38 56 3 -1
BITMAP
000E003800
000E007800
000F007800
000FC1F000
0007FFF000
0007FFE000
0001FFC000
00007F0000
0000000000
0000000000
0000000000
0001FF8000
000FFFF000
003FFFFC00
00FFFFFF00
01FFFFFF80
03FE007FC0
07F8001FE0
0FE0000FF0
1FC00003F0
1F800003F8
3F000001F8
3F000000F8
7E000000FC
7E000000FC
7C00000000
FC00000000
FC00000000
F800000000
F800000000
F800000000
F800000000
F80007FFFC
F80007FFFC
F80007FFFC
F80007FFFC
F80007FFFC
F80000003C
FC0000003C
FC0000003C
FC0000007C
7C0000007C
7E0000007C
7E0000007C
3F000000FC
3F000001FC
1F800001FC
1FC00003FC
0FE00007FC
07F8001FBC
03FE007F3C
01FFFFFE3C
00FFFFFC3C
007FFFF01C
001FFFC01C
0003FE0000
ENDCHAR
STARTCHAR 011F
ENCODING 287
SWIDTH 548 0
DWIDTH 32 0
BBX 26 55 2 -12
BITMAP
07001C00
07801C00
07803C00
03E07C00
03FFF800
01FFF000
00FFE000
003F8000
00000000
00000000
00000000
007F0000
01FFC3C0
03FFE3C0
07FFF3C0
0FFFFBC0
1F807FC0
3F003FC0
3E001FC0
3E001FC0
7C000FC0
7C000FC0
7C0007C0
F80007C0
F80007C0
F80007C0
F80007C0
F80007C0
F80007C0
F80007C0
F80007C0
F80007C0
FC0007C0
7C000FC0
7C000FC0
7E000FC0
3E001FC0
3F003FC0
1F807FC0
0FFFF7C0
0FFFF7C0
03FFE7C0
01FF87C0
007E07C0
000007C0
00000780
7C000F80
7C000F80
3E001F80
3F003F00
1F80FE00
1FFFFE00
0FFFF800
03FFF000
00FF8000
ENDCHAR
STARTCHAR 0120
ENCODING 288
SWIDTH 771 0
DWIDTH 45 0
BBX 38 55 3 -1
BITMAP
00007E0000
00007E0000
00007E0000
00007E0000
00007E0000
00007E0000
0000000000
0000000000
0000000000
0000000000
0001FF8000
000FFFF000
003FFFFC00
00FFFFFF00
01FFFFFF80
03FE007FC0
07F8001FE0
0FE0000FF0
1FC00003F0
1F800003F8
3F000001F8
3F000000F8
7E000000FC
7E000000FC
7C00000000
FC00000000
FC00000000
F800000000
F800000000
F800000000
F800000000
F80007FFFC
F80007FFFC
F80007FFFC
F80007FFFC
F80007FFFC
F80000003C
FC0000003C
FC0000003C
FC0000007C
7C0000007C
7E0000007C
7E0000007C
3F000000FC
3F000001FC
1F800001FC
1FC00003FC
0FE00007FC
07F8001FBC
03FE007F3C
01FFFFFE3C
00FFFFFC3C
007FFFF01C
001FFFC01C
0003FE0000
ENDCHAR
STARTCHAR 0121
ENCODING 289
SWIDTH 548 0
DWIDTH 32 0
BBX 26 54 2 -12
BITMAP
003F0000
003F0000
003F0000
003F0000
003F0000
003F0000
00000000
00000000
00000000
00000000
007F0000
01FFC3C0
03FFE3C0
07FFF3C0
0FFFFBC0
1F807FC0
3F003FC0
3E001FC0
3E001FC0
7C000FC0
7C000FC0
7C0007C0
F80007C0
F80007C0
F80007C0
F80007C0
F80007C0
F80007C0
F80007C0
F80007C0
F80007C0
FC0007C0
7C000FC0
7C000FC0
7E000FC0
3E001FC0
3F003FC0
1F807FC0
0FFFF7C0
0FFFF7C0
03FFE7C0
01FF87C0
007E07C0
000007C0
00000780
7C000F80
7C000F80
3E001F80
3F003F00
1F80FE00
1FFFFE00
0FFFF800
03FFF000
00FF8000
ENDCHAR
STARTCHAR 0122
ENCODING 290
SWIDTH 771 0
DWIDTH 45 0
BBX 38 60 3 -16
BITMAP
0001FF8000
000FFFF000
003FFFFC00
00FFFFFF00
01FFFFFF80
03FE007FC0
07F8001FE0
0FE0000FF0
1FC00003F0
1F800003F8
3F000001F8
3F000000F8
7E000000FC
7E000000FC
7C00000000
FC00000000
FC00000000
F800000000
F800000000
F800000000
F800000000
F80007FFFC
F80007FFFC
F80007FFFC
F80007FFFC
F80007FFFC
F80000003C
FC0000003C
FC0000003C
FC0000007C
7C0000007C
7E0000007C
7E0000007C
3F000000FC
3F000001FC
1F800001FC
1FC00003FC
0FE00007FC
07F8001FBC
03FE007F3C
01FFFFFE3C
00FFFFFC3C
007FFFF01C
001FFFC01C
0003FE0000
0000000000
0000000000
00007C0000
00007C0000
00007C0000
00007C0000
00007C0000
00007C0000
00000C0000
00000C0000
00000C0000
00001C0000
0000380000
0000780000
0000700000
ENDCHAR
STARTCHAR 0123
ENCODING 291
SWIDTH 548 0
DWIDTH 32 0
BBX 26 60 2 -12
BITMAP
00070000
000F0000
000E0000
001C0000
00180000
00180000
00180000
001F0000
001F0000
001F0000
001F0000
001F0000
001F0000
00000000
00000000
00000000
007F0000
01FFC3C0
03FFE3C0
07FFF3C0
0FFFFBC0
1F807FC0
3F003FC0
3E001FC0
3E001FC0
7C000FC0
7C000FC0
7C0007C0
F80007C0
F80007C0
F80007C0
F80007C0
F80007C0
F80007C0
F80007C0
F80007C0
F80007C0
FC0007C0
7C000FC0
7C000FC0
7E000FC0
3E001FC0
3F003FC0
1F807FC0
0FFFF7C0
0FFFF7C0
03FFE7C0
01FF87C0
007E07C0
000007C0
00000780
7C000F80
7C000F80
3E001F80
3F003F00
1F80FE00
1FFFFE00
0FFFF800
03FFF000
00FF8000
ENDCHAR
STARTCHAR 0124
ENCODING 292
SWIDTH 720 0
DWIDTH 42 0
BBX 33 55 5 0
BITMAP
0007F00000
0007F80000
000FF80000
001F7C0000
001E3E0000
003C1E0000
003C0F0000
0078070000
0000008000
0000000000
0000000000
0000000000
F800001F80
F800001F80
F800001F80
F800001F80
F800001F80
F800001F80
F800001F80
F800001F80
F800001F80
F800001F80
F800001F80
F800001F80
F800001F80
F800001F80
F800001F80
F800001F80
F800001F80
F800001F80
FFFFFFFF80
FFFFFFFF80
FFFFFFFF80
FFFFFFFF80
FFFFFFFF80
F800001F80
F800001F80
F800001F80
F800001F80
F800001F80
F800001F80
F800001F80
F800001F80
F800001F80
F800001F80
F800001F80
F800001F80
F800001F80
F800001F80
F800001F80
F800001F80
F800001F80
F800001F80
F800001F80
F800001F80
ENDCHAR
STARTCHAR 0125
ENCODING 293
SWIDTH 548 0
DWIDTH 32 0
BBX 29 55 -1 0
BITMAP
0FE00000
0FF00000
1FF00000
3EF80000
3C780000
783C0000
F81E0000
F01E0000
00000000
00000000
00000000
00000000
07C00000
07C00000
07C00000
07C00000
07C00000
07C00000
07C00000
07C00000
07C00000
07C00000
07C00000
07C0FE00
07C3FFC0
07CFFFE0
07DFFFF0
07FF0FF8
07FC03F8
07F801F8
07F000F8
07E000F8
07E000F8
07E000F8
07C000F8
07C000F8
07C000F8
07C000F8
07C000F8
07C000F8
07C000F8
07C000F8
07C000F8
07C000F8
07C000F8
07C000F8
07C000F8
07C000F8
07C000F8
07C000F8
07C000F8
07C000F8
07C000F8
07C000F8
07C000F8
ENDCHAR
STARTCHAR 0126
ENCODING 294
SWIDTH 720 0
DWIDTH 42 0
BBX 42 43 0 0
BITMAP
07C00000FC00
07C00000FC00
07C00000FC00
07C00000FC00
07C00000FC00
07C00000FC00
07C00000FC00
07C00000FC00
07C00000FC00
FFFFFFFFFFC0
FFFFFFFFFFC0
FFFFFFFFFFC0
FFFFFFFFFFC0
07C00000FC00
07C00000FC00
07C00000FC00
07C00000FC00
07C00000FC00
07FFFFFFFC00
07FFFFFFFC00
07FFFFFFFC00
07FFFFFFFC00
07FFFFFFFC00
07C00000FC00
07C00000FC00
07C00000FC00
07C00000FC00
07C00000FC00
07C00000FC00
07C00000FC00
07C00000FC00
07C00000FC00
07C00000FC00
07C00000FC00
07C00000FC00
07C00000FC00
07C00000FC00
07C00000FC00
07C00000FC00
07C00000FC00
07C00000FC00
07C00000FC00
07C00000FC00
ENDCHAR
STARTCHAR 0127
ENCODING 295
SWIDTH 548 0
DWIDTH 32 0
BBX 27 43 1 0
BITMAP
1F000000
1F000000
1F000000
1F000000
FFFFF000
FFFFF000
FFFFF000
1F000000
1F000000
1F000000
1F000000
1F03F800
1F0FFF00
1F3FFF80
1F7FFFC0
1FFC3FE0
1FF00FE0
1FE007E0
1FC003E0
1F8003E0
1F8003E0
1F8003E0
1F0003E0
1F0003E0
1F0003E0
1F0003E0
1F0003E0
1F0003E0
1F0003E0
1F0003E0
1F0003E0
1F0003E0
1F0003E0
1F0003E0
1F0003E0
1F0003E0
1F0003E0
1F0003E0
1F0003E0
1F0003E0
1F0003E0
1F0003E0
1F0003E0
ENDCHAR
STARTCHAR 0128
ENCODING 296
SWIDTH 274 0
DWIDTH 16 0
BBX 18 54 -1 0
BITMAP
1E03C0
3FC3C0
7FFF80
FFFF80
F1FF00
E03E00
000000
000000
000000
000000
000000
01F000
01F000
01F000
01F000
01F000
01F000
01F000
01F000
01F000
01F000
01F000
01F000
01F000
01F000
01F000
01F000
01F000
01F000
01F000
01F000
01F000
01F000
01F000
01F000
01F000
01F000
01F000
01F000
01F000
01F000
01F000
01F000
01F000
01F000
01F000
01F000
01F000
01F000
01F000
01F000
01F000
01F000
01F000
ENDCHAR
STARTCHAR 0129
ENCODING 297
SWIDTH 274 0
DWIDTH 16 0
BBX 18 42 -1 0
BITMAP
1E03C0
3FC3C0
7FFF80
FFFF80
F1FF00
E03E00
000000
000000
000000
000000
000000
03E000
03E000
03E000
03E000
03E000
03E000
03E000
03E000
03E000
03E000
03E000
03E000
03E000
03E000
03E000
03E000
03E000
03E000
03E000
03E000
03E000
03E000
03E000
03E000
03E000
03E000
03E000
03E000
03E000
03E000
03E000
ENDCHAR
STARTCHAR 012A
ENCODING 298
SWIDTH 274 0
DWIDTH 16 0
BBX 15 53 1 0
BITMAP
FFFE
FFFE
FFFE
FFFE
0000
0000
0000
0000
0000
0000
07C0
07C0
07C0
07C0
07C0
07C0
07C0
07C0
07C0
07C0
07C0
07C0
07C0
07C0
07C0
07C0
07C0
07C0
07C0
07C0
07C0
07C0
07C0
07C0
07C0
07C0
07C0
07C0
07C0
07C0
07C0
07C0
07C0
07C0
07C0
07C0
07C0
07C0
07C0
07C0
07C0
07C0
07C0
ENDCHAR
STARTCHAR 012B
ENCODING 299
SWIDTH 274 0
DWIDTH 16 0
BBX 14 41 1 0
BITMAP
FFFC
FFFC
FFFC
FFFC
0000
0000
0000
0000
0000
0000
07C0
07C0
07C0
07C0
07C0
07C0
07C0
07C0
07C0
07C0
07C0
07C0
07C0
07C0
07C0
07C0
07C0
07C0
07C0
07C0
07C0
07C0
07C0
07C0
07C0
07C0
07C0
07C0
07C0
07C0
07C0
ENDCHAR
STARTCHAR 012C
ENCODING 300
SWIDTH 274 0
DWIDTH 16 0
BBX 18 55 -1 0
BITMAP
F003C0
F003C0
780780
7C0F80
7FFF80
3FFF00
1FFE00
07F800
000000
000000
000000
000000
03F000
03F000
03F000
03F000
03F000
03F000
03F000
03F000
03F000
03F000
03F000
03F000
03F000
03F000
03F000
03F000
03F000
03F000
03F000
03F000
03F000
03F000
03F000
03F000
03F000
03F000
03F000
03F000
03F000
03F000
03F000
03F000
03F000
03F000
03F000
03F000
03F000
03F000
03F000
03F000
03F000
03F000
03F000
ENDCHAR
STARTCHAR 012D
ENCODING 301
SWIDTH 274 0
DWIDTH 16 0
BBX 18 43 -1 0
BITMAP
F003C0
F003C0
780780
7C0F80
7FFF80
3FFF00
1FFE00
07F800
000000
000000
000000
000000
03E000
03E000
03E000
03E000
03E000
03E000
03E000
03E000
03E000
03E000
03E000
03E000
03E000
03E000
03E000
03E000
03E000
03E000
03E000
03E000
03E000
03E000
03E000
03E000
03E000
03E000
03E000
03E000
03E000
03E000
03E000
ENDCHAR
STARTCHAR 012E
ENCODING 302
SWIDTH 274 0
DWIDTH 16 0
BBX 10 55 4 -12
BITMAP
3E00
3E00
3E00
3E00
3E00
3E00
3E00
3E00
3E00
3E00
3E00
3E00
3E00
3E00
3E00
3E00
3E00
3E00
3E00
3E00
3E00
3E00
3E00
3E00
3E00
3E00
3E00
3E00
3E00
3E00
3E00
3E00
3E00
3E00
3E00
3E00
3E00
3E00
3E00
3E00
3E00
3E00
3E00
0E00
1C00
3800
7800
F000
F000
F000
F000
F800
7FC0
7FC0
1FC0
ENDCHAR
STARTCHAR 012F
ENCODING 303
SWIDTH 222 0
DWIDTH 13 0
BBX 10 55 1 -12
BITMAP
1F00
1F00
1F00
1F00
1F00
1F00
0000
0000
0000
0000
0000
0000
1F00
1F00
1F00
1F00
1F00
1F00
1F00
1F00
1F00
1F00
1F00
1F00
1F00
1F00
1F00
1F00
1F00
1F00
1F00
1F00
1F00
1F00
1F00
1F00
1F00
1F00
1F00
1F00
1F00
1F00
1F00
0E00
1C00
3C00
7800
7800
7800
F800
F800
7C00
7FC0
3FC0
0FC0
ENDCHAR
STARTCHAR 0130
ENCODING 304
SWIDTH 274 0
DWIDTH 16 0
BBX 6 54 5 0
BITMAP
FC
FC
FC
FC
FC
FC
00
00
00
00
00
7C
7C
7C
7C
7C
7C
7C
7C
7C
7C
7C
7C
7C
7C
7C
7C
7C
7C
7C
7C
7C
7C
7C
7C
7C
7C
7C
7C
7C
7C
7C
7C
7C
7C
7C
7C
7C
7C
7C
7C
7C
7C
7C
ENDCHAR
STARTCHAR 0131
ENCODING 305
SWIDTH 274 0
DWIDTH 16 0
BBX 5 31 5 0
BITMAP
F8
F8
F8
F8
F8
F8
F8
F8
F8
F8
F8
F8
F8
F8
F8
F8
F8
F8
F8
F8
F8
F8
F8
F8
F8
F8
F8
F8
F8
F8
F8
ENDCHAR
STARTCHAR 0132
ENCODING 306
SWIDTH 737 0
DWIDTH 43 0
BBX 32 44 6 -1
BITMAP
F800001F
F800001F
F800001F
F800001F
F800001F
F800001F
F800001F
F800001F
F800001F
F800001F
F800001F
F800001F
F800001F
F800001F
F800001F
F800001F
F800001F
F800001F
F800001F
F800001F
F800001F
F800001F
F800001F
F800001F
F800001F
F800001F
F800001F
F800001F
F800001F
F8FC001F
F8FC001F
F8FC001F
F8FC001F
F8FC001F
F87C001F
F87E003F
F87E003F
F87F007E
F83F80FE
F83FFFFC
F81FFFF8
F80FFFF0
F803FFE0
0000FF00
ENDCHAR
STARTCHAR 0133
ENCODING 307
SWIDTH 445 0
DWIDTH 26 0
BBX 16 56 5 -13
BITMAP
F81F
F81F
F81F
F81F
F81F
F81F
0000
0000
0000
0000
0000
0000
F81F
F81F
F81F
F81F
F81F
F81F
F81F
F81F
F81F
F81F
F81F
F81F
F81F
F81F
F81F
F81F
F81F
F81F
F81F
F81F
F81F
F81F
F81F
F81F
F81F
F81F
F81F
F81F
F81F
F81F
F81F
001F
001F
001F
001F
001F
001F
001F
001F
007F
03FF
03FE
03FC
03F0
ENDCHAR
STARTCHAR 0134
ENCODING 308
SWIDTH 497 0
DWIDTH 29 0
BBX 28 56 1 -1
BITMAP
00007F00
0000FF00
0000FF80
0001F7C0
0001E3C0
0003C1E0
000781E0
000780F0
00080000
00000000
00000000
00000000
00003F00
00003F00
00003F00
00003F00
00003F00
00003F00
00003F00
00003F00
00003F00
00003F00
00003F00
00003F00
00003F00
00003F00
00003F00
00003F00
00003F00
00003F00
00003F00
00003F00
00003F00
00003F00
00003F00
00003F00
00003F00
00003F00
00003F00
00003F00
00003F00
FC003F00
FC003F00
FC003F00
FC003F00
FC003F00
FC003F00
FC003F00
7E007E00
7E007E00
7F01FC00
3FFFFC00
1FFFF800
0FFFF000
07FFC000
00FF0000
ENDCHAR
STARTCHAR 0135
ENCODING 309
SWIDTH 222 0
DWIDTH 13 0
BBX 16 57 -2 -13
BITMAP
07E0
07F0
0FF8
1FF8
1E7C
3C3C
7C1E
780F
F007
0000
0000
0000
0000
03E0
03E0
03E0
03E0
03E0
03E0
03E0
03E0
03E0
03E0
03E0
03E0
03E0
03E0
03E0
03E0
03E0
03E0
03E0
03E0
03E0
03E0
03E0
03E0
03E0
03E0
03E0
03E0
03E0
03E0
03E0
03E0
03E0
03E0
03E0
03E0
03E0
03E0
03E0
0FE0
7FC0
7FC0
7F80
7C00
ENDCHAR
STARTCHAR 0136
ENCODING 310
SWIDTH 668 0
DWIDTH 39 0
BBX 33 59 5 -16
BITMAP
F800003F80
F800007F00
F80000FE00
F80001FC00
F80003F800
F80007F000
F8000FE000
F8001FC000
F8003F8000
F8007F0000
F800FE0000
F801FC0000
F803F80000
F807F00000
F80FE00000
F81FC00000
F83F800000
F87F000000
F8FF800000
F9FF800000
FBFFC00000
FFEFE00000
FFC7E00000
FF83F00000
FF03F80000
FE01F80000
FC00FC0000
FC00FE0000
F8007E0000
F8003F0000
F8003F8000
F8001F8000
F8000FC000
F8000FE000
F80007F000
F80003F000
F80001F800
F80001FC00
F80000FC00
F800007E00
F800007F00
F800003F00
F800001F80
0000000000
0000000000
0000000000
000FC00000
000FC00000
000FC00000
000FC00000
000FC00000
000FC00000
0000C00000
0000C00000
0001C00000
0001C00000
0003800000
000F800000
000E000000
ENDCHAR
STARTCHAR 0137
ENCODING 311
SWIDTH 497 0
DWIDTH 29 0
BBX 26 59 3 -16
BITMAP
F8000000
F8000000
F8000000
F8000000
F8000000
F8000000
F8000000
F8000000
F8000000
F8000000
F8000000
F8000000
F8003F00
F8007E00
F800FC00
F801F800
F803F000
F807E000
F80FC000
F81F8000
F83F0000
F87E0000
F8FC0000
F9FC0000
FBFE0000
FFFF0000
FFFF0000
FF9F8000
FF1F8000
FE0FC000
FC07E000
F807E000
F803F000
F803F000
F801F800
F800FC00
F800FC00
F8007E00
F8007F00
F8003F00
F8001F80
F8001F80
F8000FC0
00000000
00000000
00000000
003E0000
003E0000
003E0000
003E0000
003E0000
003E0000
00060000
00060000
00060000
000E0000
001C0000
003C0000
00380000
ENDCHAR
STARTCHAR 0138
ENCODING 312
SWIDTH 497 0
DWIDTH 29 0
BBX 24 30 2 0
BITMAP
F0001F
F0003E
F0007C
F000F8
F001F0
F003E0
F007C0
F00F80
F01F00
F03E00
F07C00
F0F800
F1F000
F3F800
F7F800
FF3C00
FE3E00
FC1E00
F80F00
F00F80
F00780
F003C0
F003E0
F001F0
F000F0
F000F8
F0007C
F0003C
F0003E
F0001F
ENDCHAR
STARTCHAR 0139
ENCODING 313
SWIDTH 548 0
DWIDTH 32 0
BBX 26 55 5 0
BITMAP
0FE00000
0FC00000
1F000000
3E000000
3C000000
78000000
F0000000
E0000000
00000000
00000000
00000000
00000000
F8000000
F8000000
F8000000
F8000000
F8000000
F8000000
F8000000
F8000000
F8000000
F8000000
F8000000
F8000000
F8000000
F8000000
F8000000
F8000000
F8000000
F8000000
F8000000
F8000000
F8000000
F8000000
F8000000
F8000000
F8000000
F8000000
F8000000
F8000000
F8000000
F8000000
F8000000
F8000000
F8000000
F8000000
F8000000
F8000000
F8000000
F8000000
FFFFFFC0
FFFFFFC0
FFFFFFC0
FFFFFFC0
FFFFFFC0
ENDCHAR
STARTCHAR 013A
ENCODING 314
SWIDTH 222 0
DWIDTH 13 0
BBX 11 55 4 0
BITMAP
07E0
0FC0
1F80
1F00
3E00
3C00
7800
F000
0000
0000
0000
0000
F800
F800
F800
F800
F800
F800
F800
F800
F800
F800
F800
F800
F800
F800
F800
F800
F800
F800
F800
F800
F800
F800
F800
F800
F800
F800
F800
F800
F800
F800
F800
F800
F800
F800
F800
F800
F800
F800
F800
F800
F800
F800
F800
ENDCHAR
STARTCHAR 013B
ENCODING 315
SWIDTH 548 0
DWIDTH 32 0
BBX 26 59 5 -16
BITMAP
F8000000
F8000000
F8000000
F8000000
F8000000
F8000000
F8000000
F8000000
F8000000
F8000000
F8000000
F8000000
F8000000
F8000000
F8000000
F8000000
F8000000
F8000000
F8000000
F8000000
F8000000
F8000000
F8000000
F8000000
F8000000
F8000000
F8000000
F8000000
F8000000
F8000000
F8000000
F8000000
F8000000
F8000000
F8000000
F8000000
F8000000
F8000000
FFFFFFC0
FFFFFFC0
FFFFFFC0
FFFFFFC0
FFFFFFC0
00000000
00000000
00000000
003F0000
003F0000
003F0000
003F0000
003F0000
003F0000
00070000
00070000
00070000
00060000
000E0000
003C0000
00380000
ENDCHAR
STARTCHAR 013C
ENCODING 316
SWIDTH 222 0
DWIDTH 13 0
BBX 6 59 4 -16
BITMAP
F8
F8
F8
F8
F8
F8
F8
F8
F8
F8
F8
F8
F8
F8
F8
F8
F8
F8
F8
F8
F8
F8
F8
F8
F8
F8
F8
F8
F8
F8
F8
F8
F8
F8
F8
F8
F8
F8
F8
F8
F8
F8
F8
00
00
00
FC
FC
FC
FC
FC
FC
1C
18
18
38
78
F0
E0
ENDCHAR
STARTCHAR 013D
ENCODING 317
SWIDTH 548 0
DWIDTH 32 0
BBX 26 43 5 0
BITMAP
F81F8000
F81F8000
F81F8000
F81F8000
F81F8000
F81F8000
F8038000
F8038000
F8030000
F8070000
F8070000
F81E0000
F81C0000
F8000000
F8000000
F8000000
F8000000
F8000000
F8000000
F8000000
F8000000
F8000000
F8000000
F8000000
F8000000
F8000000
F8000000
F8000000
F8000000
F8000000
F8000000
F8000000
F8000000
F8000000
F8000000
F8000000
F8000000
F8000000
FFFFFFC0
FFFFFFC0
FFFFFFC0
FFFFFFC0
FFFFFFC0
ENDCHAR
STARTCHAR 013E
ENCODING 318
SWIDTH 291 0
DWIDTH 17 0
BBX 14 43 4 0
BITMAP
F8FC
F8FC
F8FC
F8FC
F8FC
F8FC
F81C
F81C
F81C
F818
F838
F8F0
F8E0
F800
F800
F800
F800
F800
F800
F800
F800
F800
F800
F800
F800
F800
F800
F800
F800
F800
F800
F800
F800
F800
F800
F800
F800
F800
F800
F800
F800
F800
F800
ENDCHAR
STARTCHAR 013F
ENCODING 319
SWIDTH 548 0
DWIDTH 32 0
BBX 26 43 5 0
BITMAP
F8000000
F8000000
F8000000
F8000000
F8000000
F8000000
F8000000
F8000000
F8000000
F8000000
F8000000
F8000000
F8000000
F8000000
F8000000
F8000000
F8000000
F8000000
F8000000
F801F800
F801F800
F801F800
F801F800
F801F800
F801F800
F8000000
F8000000
F8000000
F8000000
F8000000
F8000000
F8000000
F8000000
F8000000
F8000000
F8000000
F8000000
F8000000
FFFFFFC0
FFFFFFC0
FFFFFFC0
FFFFFFC0
FFFFFFC0
ENDCHAR
STARTCHAR 0140
ENCODING 320
SWIDTH 325 0
DWIDTH 19 0
BBX 15 43 4 0
BITMAP
F800
F800
F800
F800
F800
F800
F800
F800
F800
F800
F800
F800
F800
F800
F800
F800
F800
F800
F800
F87E
F87E
F87E
F87E
F87E
F87E
F800
F800
F800
F800
F800
F800
F800
F800
F800
F800
F800
F800
F800
F800
F800
F800
F800
F800
ENDCHAR
STARTCHAR 0141
ENCODING 321
SWIDTH 548 0
DWIDTH 32 0
BBX 32 43 0 0
BITMAP
07C00000
07C00000
07C00000
07C00000
07C00000
07C00000
07C00000
07C00000
07C00000
07C00000
07C00000
07C00000
07C01000
07C03000
07C0F000
07C1F000
07C3F000
07CFE000
07DF8000
07FF0000
07FC0000
07F80000
0FF00000
1FC00000
7FC00000
FFC00000
FFC00000
E7C00000
C7C00000
87C00000
07C00000
07C00000
07C00000
07C00000
07C00000
07C00000
07C00000
07C00000
07FFFFFF
07FFFFFF
07FFFFFF
07FFFFFF
07FFFFFF
ENDCHAR
STARTCHAR 0142
ENCODING 322
SWIDTH 222 0
DWIDTH 13 0
BBX 12 43 0 0
BITMAP
0F80
0F80
0F80
0F80
0F80
0F80
0F80
0F80
0F80
0F80
0F80
0F80
0F80
0F80
0F80
0F80
0F90
0FF0
0FF0
0FF0
0FC0
1F80
3F80
FF80
FF80
CF80
8F80
0F80
0F80
0F80
0F80
0F80
0F80
0F80
0F80
0F80
0F80
0F80
0F80
0F80
0F80
0F80
0F80
ENDCHAR
STARTCHAR 0143
ENCODING 323
SWIDTH 720 0
DWIDTH 42 0
BBX 34 55 4 0
BITMAP
00003F8000
00003F0000
00007E0000
0000F80000
0000F00000
0001E00000
0003C00000
0003800000
0000000000
0000000000
0000000000
0000000000
FE000007C0
FE000007C0
FF000007C0
FF800007C0
FF800007C0
FFC00007C0
FFC00007C0
FFE00007C0
FFF00007C0
FFF00007C0
FDF80007C0
FCFC0007C0
FCFC0007C0
FC7E0007C0
FC3E0007C0
FC3F0007C0
FC1F8007C0
FC1F8007C0
FC0FC007C0
FC07E007C0
FC07E007C0
FC03F007C0
FC01F807C0
FC01F807C0
FC00FC07C0
FC007C07C0
FC007E07C0
FC003F07C0
FC003F07C0
FC001F87C0
FC000FC7C0
FC000FC7C0
FC0007E7C0
FC0003F7C0
FC0003F7C0
FC0001FFC0
FC0001FFC0
FC0000FFC0
FC00007FC0
FC00007FC0
FC00003FC0
FC00001FC0
FC00001FC0
ENDCHAR
STARTCHAR 0144
ENCODING 324
SWIDTH 548 0
DWIDTH 32 0
BBX 24 44 4 0
BITMAP
0003F0
0007E0
0007C0
000F80
001F00
001E00
003C00
007800
007000
000000
000000
000000
001FC0
F87FF8
F8FFFC
F9FFFE
FBE1FF
FF807F
FF003F
FE001F
FC001F
FC000F
FC000F
F8000F
F8000F
F8000F
F8000F
F8000F
F8000F
F8000F
F8000F
F8000F
F8000F
F8000F
F8000F
F8000F
F8000F
F8000F
F8000F
F8000F
F8000F
F8000F
F8000F
F8000F
ENDCHAR
STARTCHAR 0145
ENCODING 325
SWIDTH 720 0
DWIDTH 42 0
BBX 34 59 4 -16
BITMAP
FE000007C0
FE000007C0
FF000007C0
FF800007C0
FF800007C0
FFC00007C0
FFC00007C0
FFE00007C0
FFF00007C0
FFF00007C0
FDF80007C0
FCFC0007C0
FCFC0007C0
FC7E0007C0
FC3E0007C0
FC3F0007C0
FC1F8007C0
FC1F8007C0
FC0FC007C0
FC07E007C0
FC07E007C0
FC03F007C0
FC01F807C0
FC01F807C0
FC00FC07C0
FC007C07C0
FC007E07C0
FC003F07C0
FC003F07C0
FC001F87C0
FC000FC7C0
FC000FC7C0
FC0007E7C0
FC0003F7C0
FC0003F7C0
FC0001FFC0
FC0001FFC0
FC0000FFC0
FC00007FC0
FC00007FC0
FC00003FC0
FC00001FC0
FC00001FC0
0000000000
0000000000
0000000000
0007E00000
0007E00000
0007E00000
0007E00000
0007E00000
0007E00000
0000600000
0000600000
0000E00000
0000E00000
0001C00000
0007C00000
0007000000
ENDCHAR
STARTCHAR 0146
ENCODING 326
SWIDTH 548 0
DWIDTH 32 0
BBX 24 48 4 -16
BITMAP
001FC0
F87FF8
F8FFFC
F9FFFE
FBE1FF
FF807F
FF003F
FE001F
FC001F
FC000F
FC000F
F8000F
F8000F
F8000F
F8000F
F8000F
F8000F
F8000F
F8000F
F8000F
F8000F
F8000F
F8000F
F8000F
F8000F
F8000F
F8000F
F8000F
F8000F
F8000F
F8000F
F8000F
000000
000000
000000
007E00
007E00
007E00
007E00
007E00
007E00
000600
000600
000E00
000E00
001C00
007800
007000
ENDCHAR
STARTCHAR 0147
ENCODING 327
SWIDTH 720 0
DWIDTH 42 0
BBX 34 55 4 0
BITMAP
0078078000
003C0F0000
003E1F0000
001F1E0000
000F3C0000
000FFC0000
0007F80000
0003F00000
0000000000
0000000000
0000000000
0000000000
FE000007C0
FE000007C0
FF000007C0
FF800007C0
FF800007C0
FFC00007C0
FFC00007C0
FFE00007C0
FFF00007C0
FFF00007C0
FDF80007C0
FCFC0007C0
FCFC0007C0
FC7E0007C0
FC3E0007C0
FC3F0007C0
FC1F8007C0
FC1F8007C0
FC0FC007C0
FC07E007C0
FC07E007C0
FC03F007C0
FC01F807C0
FC01F807C0
FC00FC07C0
FC007C07C0
FC007E07C0
FC003F07C0
FC003F07C0
FC001F87C0
FC000FC7C0
FC000FC7C0
FC0007E7C0
FC0003F7C0
FC0003F7C0
FC0001FFC0
FC0001FFC0
FC0000FFC0
FC00007FC0
FC00007FC0
FC00003FC0
FC00001FC0
FC00001FC0
ENDCHAR
STARTCHAR 0148
ENCODING 328
SWIDTH 548 0
DWIDTH 32 0
BBX 24 44 4 0
BITMAP
0F00F0
0780F0
07C1E0
03C3C0
01E7C0
01FF80
00FF80
007F00
007E00
000000
000000
000000
001FC0
F87FF8
F8FFFC
F9FFFE
FBE1FF
FF807F
FF003F
FE001F
FC001F
FC000F
FC000F
F8000F
F8000F
F8000F
F8000F
F8000F
F8000F
F8000F
F8000F
F8000F
F8000F
F8000F
F8000F
F8000F
F8000F
F8000F
F8000F
F8000F
F8000F
F8000F
F8000F
F8000F
ENDCHAR
STARTCHAR 0149
ENCODING 329
SWIDTH 600 0
DWIDTH 35 0
BBX 30 45 1 0
BITMAP
F8000000
F8000000
F8000000
F8000000
F8000000
F8000000
18000000
18000000
18000000
38000000
70000000
E0000000
C0000000
00007F00
03C1FFE0
03C7FFF0
03CFFFF8
03CF8FF8
03DE01FC
03FC00FC
03F8007C
03F0007C
03F0007C
03E0007C
03E0007C
03E0007C
03E0007C
03E0007C
03E0007C
03E0007C
03E0007C
03E0007C
03E0007C
03E0007C
03E0007C
03E0007C
03E0007C
03E0007C
03E0007C
03E0007C
03E0007C
03E0007C
03E0007C
03E0007C
03E0007C
ENDCHAR
STARTCHAR 014A
ENCODING 330
SWIDTH 720 0
DWIDTH 42 0
BBX 32 61 5 -17
BITMAP
0001FE00
F80FFFC0
F81FFFF0
F83FFFF8
F8FFFFFC
F8FC03FC
F9F000FE
FBC0007E
FF80007F
FF00003F
FF00003F
FE00003F
FE00003F
FE00001F
FC00001F
FC00001F
FC00001F
FC00001F
FC00001F
FC00001F
FC00001F
FC00001F
FC00001F
FC00001F
FC00001F
FC00001F
FC00001F
FC00001F
FC00001F
FC00001F
FC00001F
FC00001F
FC00001F
FC00001F
FC00001F
FC00001F
FC00001F
FC00001F
FC00001F
FC00001F
FC00001F
FC00001F
FC00001F
FC00001F
0000001F
0000001F
0000001F
0000001F
0000001F
0000001F
0000001F
0000001F
0000001F
0000003F
0000003F
0000007E
00001FFE
00001FFC
00001FFC
00001FF0
00001FC0
ENDCHAR
STARTCHAR 014B
ENCODING 331
SWIDTH 548 0
DWIDTH 32 0
BBX 24 45 4 -13
BITMAP
001FE0
F87FF8
F8FFFC
F9FFFE
FBE1FF
FF807F
FF003F
FE001F
FC001F
FC000F
FC000F
F8000F
F8000F
F8000F
F8000F
F8000F
F8000F
F8000F
F8000F
F8000F
F8000F
F8000F
F8000F
F8000F
F8000F
F8000F
F8000F
F8000F
F8000F
F8000F
F8000F
F8000F
00000F
00000F
00000F
00000F
00000F
00000F
00001F
00001F
00007F
0003FF
0003FE
0003FC
0003F0
ENDCHAR
STARTCHAR 014C
ENCODING 332
SWIDTH 771 0
DWIDTH 45 0
BBX 41 54 2 -1
BITMAP
0007FFF80000
0007FFF80000
0007FFF80000
0007FFF80000
000000000000
000000000000
000000000000
000000000000
000000000000
0000FFC00000
0007FFF80000
001FFFFE0000
007FFFFF8000
00FFFFFFC000
01FF007FE000
03FC000FF000
07F00007F800
0FE00001FC00
1FC00000FC00
1F800000FE00
3F0000007E00
3F0000003F00
3E0000003F00
7E0000003F00
7E0000001F00
7C0000001F80
7C0000001F80
7C0000000F80
FC0000000F80
FC0000000F80
FC0000000F80
FC0000000F80
FC0000000F80
FC0000000F80
FC0000000F80
FC0000000F80
7C0000001F80
7C0000001F80
7E0000001F00
7E0000001F00
3E0000003F00
3F0000003E00
3F8000007E00
1F800000FE00
1FC00000FC00
0FE00001F800
07F00007F800
03FC000FF000
01FF003FE000
00FFFFFFC000
007FFFFF8000
003FFFFE0000
0007FFF80000
0000FF800000
ENDCHAR
STARTCHAR 014D
ENCODING 333
SWIDTH 548 0
DWIDTH 32 0
BBX 28 42 2 -1
BITMAP
03FFFC00
03FFFC00
03FFFC00
03FFFC00
00000000
00000000
00000000
00000000
00000000
003FC000
01FFF800
03FFFC00
07FFFE00
0FFFFF00
1FC03F80
3F801FC0
3F000FC0
7E0007E0
7E0007E0
7C0003E0
7C0003E0
FC0003F0
F80003F0
F80001F0
F80001F0
F80001F0
F80001F0
F80001F0
F80001F0
FC0003E0
7C0003E0
7C0003E0
7E0007E0
7E0007C0
3F000FC0
3F801FC0
1FC03F80
0FFFFF00
07FFFE00
03FFFC00
01FFF800
003FC000
ENDCHAR
STARTCHAR 014E
ENCODING 334
SWIDTH 771 0
DWIDTH 45 0
BBX 41 56 2 -1
BITMAP
000E00380000
000F00380000
000F00780000
000FC1F80000
0007FFF00000
0003FFE00000
0001FFC00000
00007F000000
000000000000
000000000000
000000000000
0000FFC00000
0007FFF80000
001FFFFE0000
007FFFFF8000
00FFFFFFC000
01FF007FE000
03FC000FF000
07F00007F800
0FE00001FC00
1FC00000FC00
1F800000FE00
3F0000007E00
3F0000003F00
3E0000003F00
7E0000003F00
7E0000001F00
7C0000001F80
7C0000001F80
7C0000000F80
FC0000000F80
FC0000000F80
FC0000000F80
FC0000000F80
FC0000000F80
FC0000000F80
FC0000000F80
FC0000000F80
7C0000001F80
7C0000001F80
7E0000001F00
7E0000001F00
3E0000003F00
3F0000003E00
3F8000007E00
1F800000FE00
1FC00000FC00
0FE00001F800
07F00007F800
03FC000FF000
01FF003FE000
00FFFFFFC000
007FFFFF8000
003FFFFE0000
0007FFF80000
0000FF800000
ENDCHAR
STARTCHAR 014F
ENCODING 335
SWIDTH 548 0
DWIDTH 32 0
BBX 28 44 2 -1
BITMAP
07801E00
07801C00
07C03C00
03E07C00
03FFF800
01FFF800
00FFE000
003F8000
00000000
00000000
00000000
003FC000
01FFF800
03FFFC00
07FFFE00
0FFFFF00
1FC03F80
3F801FC0
3F000FC0
7E0007E0
7E0007E0
7C0003E0
7C0003E0
FC0003F0
F80003F0
F80001F0
F80001F0
F80001F0
F80001F0
F80001F0
F80001F0
FC0003E0
7C0003E0
7C0003E0
7E0007E0
7E0007C0
3F000FC0
3F801FC0
1FC03F80
0FFFFF00
07FFFE00
03FFFC00
01FFF800
003FC000
ENDCHAR
STARTCHAR 0150
ENCODING 336
SWIDTH 771 0
DWIDTH 45 0
BBX 41 57 2 -1
BITMAP
00001FC7F000
00001F87E000
00003F0FC000
00007E1F8000
00007C1F0000
0000F83E0000
0001F03C0000
0001E0780000
0003C0F00000
000000000000
000000000000
000000000000
0000FFC00000
0007FFF80000
001FFFFE0000
007FFFFF8000
00FFFFFFC000
01FF007FE000
03FC000FF000
07F00007F800
0FE00001FC00
1FC00000FC00
1F800000FE00
3F0000007E00
3F0000003F00
3E0000003F00
7E0000003F00
7E0000001F00
7C0000001F80
7C0000001F80
7C0000000F80
FC0000000F80
FC0000000F80
FC0000000F80
FC0000000F80
FC0000000F80
FC0000000F80
FC0000000F80
FC0000000F80
7C0000001F80
7C0000001F80
7E0000001F00
7E0000001F00
3E0000003F00
3F0000003E00
3F8000007E00
1F800000FE00
1FC00000FC00
0FE00001F800
07F00007F800
03FC000FF000
01FF003FE000
00FFFFFFC000
007FFFFF8000
003FFFFE0000
0007FFF80000
0000FF800000
ENDCHAR
STARTCHAR 0151
ENCODING 337
SWIDTH 548 0
DWIDTH 32 0
BBX 28 45 2 -1
BITMAP
000FC3F0
001F87E0
003F07C0
003E0F80
007C1F00
00781E00
00F03C00
01E07800
01C07000
00000000
00000000
00000000
003FC000
01FFF800
03FFFC00
07FFFE00
0FFFFF00
1FC03F80
3F801FC0
3F000FC0
7E0007E0
7E0007E0
7C0003E0
7C0003E0
FC0003F0
F80003F0
F80001F0
F80001F0
F80001F0
F80001F0
F80001F0
F80001F0
FC0003E0
7C0003E0
7C0003E0
7E0007E0
7E0007C0
3F000FC0
3F801FC0
1FC03F80
0FFFFF00
07FFFE00
03FFFC00
01FFF800
003FC000
ENDCHAR
STARTCHAR 0152
ENCODING 338
SWIDTH 994 0
DWIDTH 58 0
BBX 53 45 3 -1
BITMAP
0007F800000000
003FFF0FFFFFF8
00FFFF8FFFFFF8
01FFFFCFFFFFF8
03FFFFEFFFFFF8
07F807FFFFFFF8
0FE001FF800000
1FC000FF800000
1F80007F800000
3F00003F800000
3E00001F800000
7E00001F800000
7C00000F800000
7C00000F800000
FC00000F800000
FC00000F800000
F800000F800000
F800000F800000
F800000F800000
F800000F800000
F800000FFFFFF0
F800000FFFFFF0
F800000FFFFFF0
F800000FFFFFF0
F800000FFFFFF0
F800000F800000
F800000F800000
F800000F800000
F800000F800000
FC00000F800000
FC00000F800000
FC00000F800000
7C00000F800000
7E00001F800000
7E00001F800000
3F00003F800000
3F80007F800000
1FC000FF800000
0FE001FF800000
0FF807FFFFFFF8
07FFFFEFFFFFF8
03FFFFCFFFFFF8
00FFFF8FFFFFF8
003FFE0FFFFFF8
0007F800000000
ENDCHAR
STARTCHAR 0153
ENCODING 339
SWIDTH 942 0
DWIDTH 55 0
BBX 50 33 2 -1
BITMAP
003FC0007F8000
00FFF801FFE000
03FFFC07FFF800
07FFFF0FFFFC00
0FFFFF1FFFFE00
1FC03FBF807F00
3F801FFE003F00
3F000FFC001F80
3E0007FC000F80
7E0003F8000FC0
7C0003F80007C0
7C0003F00007C0
7C0001F00007C0
7C0001F00007C0
FC0001FFFFFFC0
F80001FFFFFFC0
F80001FFFFFFC0
F80001FFFFFFC0
FC0001F0000000
FC0001F0000000
7C0001F0000000
7C0003F0000000
7C0003F80007C0
7E0003F8000FC0
3E0007FC000F80
3F000FFC001F80
3F800FFE003F00
1FC03FBF807F00
0FFFFF1FFFFE00
07FFFF1FFFFC00
03FFFC07FFF800
01FFF803FFE000
003FC0007F8000
ENDCHAR
STARTCHAR 0154
ENCODING 340
SWIDTH 720 0
DWIDTH 42 0
BBX 35 55 5 0
BITMAP
00007E0000
0000FC0000
0000F80000
0001F00000
0003E00000
0003C00000
0007800000
000F000000
0000000000
0000000000
0000000000
0000000000
FFFFFF8000
FFFFFFF000
FFFFFFF800
FFFFFFFC00
FFFFFFFE00
FC0001FF00
FC00007F00
FC00003F00
FC00001F80
FC00001F80
FC00001F80
FC00001F80
FC00001F80
FC00001F80
FC00001F80
FC00001F00
FC00001F00
FC00003F00
FC00007E00
FC0001FC00
FFFFFFF800
FFFFFFE000
FFFFFFE000
FFFFFFF800
FFFFFFFC00
FC0000FE00
FC00007E00
FC00003F00
FC00003F00
FC00001F00
FC00001F00
FC00001F00
FC00001F00
FC00001F00
FC00001F00
FC00001F00
FC00001F00
FC00001F00
FC00001F80
FC00001F80
FC00001F80
FC00001FC0
FC00000FE0
ENDCHAR
STARTCHAR 0155
ENCODING 341
SWIDTH 325 0
DWIDTH 19 0
BBX 15 44 4 0
BITMAP
00FE
00FC
01F8
01F0
03E0
07C0
0780
0F00
1E00
0000
0000
0000
003E
F87E
F8FE
F9FE
FBFE
FFF0
FF80
FF00
FE00
FC00
FC00
F800
F800
F800
F800
F800
F800
F800
F800
F800
F800
F800
F800
F800
F800
F800
F800
F800
F800
F800
F800
F800
ENDCHAR
STARTCHAR 0156
ENCODING 342
SWIDTH 720 0
DWIDTH 42 0
BBX 35 59 5 -16
BITMAP
FFFFFF8000
FFFFFFF000
FFFFFFF800
FFFFFFFC00
FFFFFFFE00
FC0001FF00
FC00007F00
FC00003F00
FC00001F80
FC00001F80
FC00001F80
FC00001F80
FC00001F80
FC00001F80
FC00001F80
FC00001F00
FC00001F00
FC00003F00
FC00007E00
FC0001FC00
FFFFFFF800
FFFFFFE000
FFFFFFE000
FFFFFFF800
FFFFFFFC00
FC0000FE00
FC00007E00
FC00003F00
FC00003F00
FC00001F00
FC00001F00
FC00001F00
FC00001F00
FC00001F00
FC00001F00
FC00001F00
FC00001F00
FC00001F00
FC00001F80
FC00001F80
FC00001F80
FC00001FC0
FC00000FE0
0000000000
0000000000
0000000000
0003E00000
0003E00000
0003E00000
0003E00000
0003E00000
0003E00000
0000600000
0000600000
0000600000
0000E00000
0001C00000
0003C00000
0003800000
ENDCHAR
STARTCHAR 0157
ENCODING 343
SWIDTH 325 0
DWIDTH 19 0
BBX 15 48 4 -16
BITMAP
003E
F87E
F8FE
F9FE
FBFE
FFF0
FF80
FF00
FE00
FC00
FC00
F800
F800
F800
F800
F800
F800
F800
F800
F800
F800
F800
F800
F800
F800
F800
F800
F800
F800
F800
F800
F800
0000
0000
0000
FC00
FC00
FC00
FC00
FC00
FC00
1C00
1C00
1800
3800
3800
F000
E000
ENDCHAR
STARTCHAR 0158
ENCODING 344
SWIDTH 720 0
DWIDTH 42 0
BBX 35 55 5 0
BITMAP
00F00F0000
00781E0000
00783C0000
003C7C0000
003EF80000
001FF00000
000FF00000
000FE00000
0000000000
0000000000
0000000000
0000000000
FFFFFF8000
FFFFFFF000
FFFFFFF800
FFFFFFFC00
FFFFFFFE00
FC0001FF00
FC00007F00
FC00003F00
FC00001F80
FC00001F80
FC00001F80
FC00001F80
FC00001F80
FC00001F80
FC00001F80
FC00001F00
FC00001F00
FC00003F00
FC00007E00
FC0001FC00
FFFFFFF800
FFFFFFE000
FFFFFFE000
FFFFFFF800
FFFFFFFC00
FC0000FE00
FC00007E00
FC00003F00
FC00003F00
FC00001F00
FC00001F00
FC00001F00
FC00001F00
FC00001F00
FC00001F00
FC00001F00
FC00001F00
FC00001F00
FC00001F80
FC00001F80
FC00001F80
FC00001FC0
FC00000FE0
ENDCHAR
STARTCHAR 0159
ENCODING 345
SWIDTH 325 0
DWIDTH 19 0
BBX 16 44 3 0
BITMAP
F00F
780F
7C1E
3C3C
1E7C
1FF8
0FF0
0FF0
07E0
0000
0000
0000
001F
7C3F
7C7F
7CFF
7DFF
7FF8
7FC0
7F80
7F00
7E00
7E00
7C00
7C00
7C00
7C00
7C00
7C00
7C00
7C00
7C00
7C00
7C00
7C00
7C00
7C00
7C00
7C00
7C00
7C00
7C00
7C00
7C00
ENDCHAR
STARTCHAR 015A
ENCODING 346
SWIDTH 668 0
DWIDTH 39 0
BBX 33 57 3 -1
BITMAP
00003F8000
00007F0000
00007E0000
0000FC0000
0001F80000
0001F00000
0003E00000
0003C00000
0007800000
0000000000
0000000000
0000000000
001FF80000
00FFFF0000
03FFFFC000
07FFFFF000
0FFFFFF800
1FE003FC00
1F8001FC00
3F00007E00
3E00007E00
7E00003E00
7E00003F00
7E00003F00
7E00001F00
7E00000000
7E00000000
7F00000000
3F80000000
3FE0000000
1FFE000000
0FFFC00000
07FFFC0000
03FFFFC000
007FFFF000
0007FFF800
0000FFFC00
00000FFE00
000001FF00
0000007F00
0000003F80
0000001F80
F800001F80
F800000F80
F800000F80
F800000F80
FC00000F80
7C00001F80
7E00001F00
7F00003F00
3F80007E00
1FF001FE00
0FFFFFFC00
07FFFFF800
03FFFFE000
00FFFF8000
000FFC0000
ENDCHAR
STARTCHAR 015B
ENCODING 347
SWIDTH 497 0
DWIDTH 29 0
BBX 25 45 2 -1
BITMAP
0003F000
0007E000
000FC000
000F8000
001F0000
001E0000
003C0000
00780000
00700000
00000000
00000000
00000000
00FF8000
03FFE000
0FFFF800
1FFFFC00
3FFFFC00
3F00FE00
7E007E00
7C003E00
7C003F00
7C000000
7C000000
7E000000
7F000000
3FE00000
3FFE0000
1FFFE000
07FFF800
00FFFC00
001FFE00
0001FF00
00003F00
00001F80
00000F80
F8000F80
FC000F80
FC001F80
7E001F00
7F007F00
3FF7FE00
3FFFFC00
1FFFF800
07FFF000
00FF8000
ENDCHAR
STARTCHAR 015C
ENCODING 348
SWIDTH 668 0
DWIDTH 39 0
BBX 33 57 3 -1
BITMAP
0007E00000
0007F00000
000FF00000
000FF80000
001E7C0000
003E3C0000
003C1E0000
00780F0000
00F00F0000
0000000000
0000000000
0000000000
001FF80000
00FFFF0000
03FFFFC000
07FFFFF000
0FFFFFF800
1FE003FC00
1F8001FC00
3F00007E00
3E00007E00
7E00003E00
7E00003F00
7E00003F00
7E00001F00
7E00000000
7E00000000
7F00000000
3F80000000
3FE0000000
1FFE000000
0FFFC00000
07FFFC0000
03FFFFC000
007FFFF000
0007FFF800
0000FFFC00
00000FFE00
000001FF00
0000007F00
0000003F80
0000001F80
F800001F80
F800000F80
F800000F80
F800000F80
FC00000F80
7C00001F80
7E00001F00
7F00003F00
3F80007E00
1FF001FE00
0FFFFFFC00
07FFFFF800
03FFFFE000
00FFFF8000
000FFC0000
ENDCHAR
STARTCHAR 015D
ENCODING 349
SWIDTH 497 0
DWIDTH 29 0
BBX 25 45 2 -1
BITMAP
007F0000
007F0000
00FF8000
00F7C000
01F3C000
03E3E000
03C1E000
0780F000
0F007800
00000000
00000000
00000000
00FF8000
03FFE000
0FFFF800
1FFFFC00
3FFFFC00
3F00FE00
7E007E00
7C003E00
7C003F00
7C000000
7C000000
7E000000
7F000000
3FE00000
3FFE0000
1FFFE000
07FFF800
00FFFC00
001FFE00
0001FF00
00003F00
00001F80
00000F80
F8000F80
FC000F80
FC001F80
7E001F00
7F007F00
3FF7FE00
3FFFFC00
1FFFF800
07FFF000
00FF8000
ENDCHAR
STARTCHAR 015E
ENCODING 350
SWIDTH 668 0
DWIDTH 39 0
BBX 33 56 3 -12
BITMAP
000FF80000
007FFF8000
01FFFFE000
07FFFFF000
0FFFFFF800
1FE003FC00
1F8000FC00
3F00007E00
3F00003E00
3E00003F00
7E00003F00
7E00001F00
7E00001F00
7E00000000
7E00000000
3F00000000
3F80000000
3FF0000000
1FFE000000
0FFFC00000
07FFFC0000
03FFFFC000
007FFFF000
0007FFF800
0000FFFE00
00000FFE00
000001FF00
0000007F80
0000003F80
0000001F80
F800000F80
F800000F80
F800000F80
FC00000F80
FC00000F80
7E00001F80
7E00001F80
3F00003F00
3FC0007F00
1FF001FE00
0FFFFFFC00
07FFFFF800
03FFFFF000
00FFFFC000
001FFC0000
0003800000
0003000000
0007F00000
0007F80000
00007C0000
00003C0000
00003C0000
00407C0000
00F0F80000
00FFF80000
003FE00000
ENDCHAR
STARTCHAR 015F
ENCODING 351
SWIDTH 497 0
DWIDTH 29 0
BBX 25 44 2 -12
BITMAP
00FF8000
03FFE000
0FFFF800
1FFFFC00
3FFFFC00
3F00FE00
7E007E00
7C003E00
7C003F00
7C003F00
7C000000
7E000000
7F000000
3FE00000
3FFE0000
1FFFC000
07FFF800
01FFFC00
003FFE00
0003FF00
00007F00
00001F80
00001F80
F8000F80
F8000F80
FC001F80
FC001F00
7E003F00
7F80FE00
3FFFFE00
1FFFFC00
0FFFF000
03FFC000
00380000
00700000
007E0000
007F8000
00DF8000
0007C000
0007C000
08078000
0F0F8000
1FFF0000
03FE0000
ENDCHAR
STARTCHAR 0160
ENCODING 352
SWIDTH 668 0
DWIDTH 39 0
BBX 33 57 3 -1
BITMAP
00F0078000
00780F0000
007C1E0000
003C3E0000
001E3C0000
001F7C0000
000FF80000
0007F00000
0007F00000
0000000000
0000000000
0000000000
001FF80000
00FFFF0000
03FFFFC000
07FFFFF000
0FFFFFF800
1FE003FC00
1F8001FC00
3F00007E00
3E00007E00
7E00003E00
7E00003F00
7E00003F00
7E00001F00
7E00000000
7E00000000
7F00000000
3F80000000
3FE0000000
1FFE000000
0FFFC00000
07FFFC0000
03FFFFC000
007FFFF000
0007FFF800
0000FFFC00
00000FFE00
000001FF00
0000007F00
0000003F80
0000001F80
F800001F80
F800000F80
F800000F80
F800000F80
FC00000F80
7C00001F80
7E00001F00
7F00003F00
3F80007E00
1FF001FE00
0FFFFFFC00
07FFFFF800
03FFFFE000
00FFFF8000
000FFC0000
ENDCHAR
STARTCHAR 0161
ENCODING 353
SWIDTH 497 0
DWIDTH 29 0
BBX 25 45 2 -1
BITMAP
0F007000
0780F000
03C1E000
03E3E000
01E7C000
01F78000
00FF8000
007F0000
007E0000
00000000
00000000
00000000
00FF8000
03FFE000
0FFFF800
1FFFFC00
3FFFFC00
3F00FE00
7E007E00
7C003E00
7C003F00
7C000000
7C000000
7E000000
7F000000
3FE00000
3FFE0000
1FFFE000
07FFF800
00FFFC00
001FFE00
0001FF00
00003F00
00001F80
00000F80
F8000F80
FC000F80
FC001F80
7E001F00
7F007F00
3FF7FE00
3FFFFC00
1FFFF800
07FFF000
00FF8000
ENDCHAR
STARTCHAR 0162
ENCODING 354
SWIDTH 617 0
DWIDTH 36 0
BBX 34 55 1 -12
BITMAP
FFFFFFFFC0
FFFFFFFFC0
FFFFFFFFC0
FFFFFFFFC0
FFFFFFFFC0
0003F00000
0003F00000
0003F00000
0003F00000
0003F00000
0003F00000
0003F00000
0003F00000
0003F00000
0003F00000
0003F00000
0003F00000
0003F00000
0003F00000
0003F00000
0003F00000
0003F00000
0003F00000
0003F00000
0003F00000
0003F00000
0003F00000
0003F00000
0003F00000
0003F00000
0003F00000
0003F00000
0003F00000
0003F00000
0003F00000
0003F00000
0003F00000
0003F00000
0003F00000
0003F00000
0003F00000
0003F00000
0003F00000
0000600000
0000E00000
0000C00000
0001FC0000
0001FE0000
00013F0000
00000F0000
00000F0000
00100F0000
003C1F0000
003FFE0000
000FF80000
ENDCHAR
STARTCHAR 0163
ENCODING 355
SWIDTH 274 0
DWIDTH 16 0
BBX 14 51 1 -12
BITMAP
0F80
0F80
0F80
0F80
0F80
0F80
0F80
0F80
FFFC
FFFC
FFFC
FFFC
0F80
0F80
0F80
0F80
0F80
0F80
0F80
0F80
0F80
0F80
0F80
0F80
0F80
0F80
0F80
0F80
0F80
0F80
0F80
0F80
0F80
0F80
0F80
0FC0
0FFC
0FFC
07FC
01FC
0300
0300
07F0
07FC
007C
003C
003C
E07C
FDF8
7FF0
1FC0
ENDCHAR
STARTCHAR 0164
ENCODING 356
SWIDTH 617 0
DWIDTH 36 0
BBX 34 55 1 0
BITMAP
0078078000
003C0F0000
003E1F0000
001E3E0000
000F3C0000
000FFC0000
0007F80000
0003F00000
0000000000
0000000000
0000000000
0000000000
FFFFFFFFC0
FFFFFFFFC0
FFFFFFFFC0
FFFFFFFFC0
FFFFFFFFC0
0003F00000
0003F00000
0003F00000
0003F00000
0003F00000
0003F00000
0003F00000
0003F00000
0003F00000
0003F00000
0003F00000
0003F00000
0003F00000
0003F00000
0003F00000
0003F00000
0003F00000
0003F00000
0003F00000
0003F00000
0003F00000
0003F00000
0003F00000
0003F00000
0003F00000
0003F00000
0003F00000
0003F00000
0003F00000
0003F00000
0003F00000
0003F00000
0003F00000
0003F00000
0003F00000
0003F00000
0003F00000
0003F00000
ENDCHAR
STARTCHAR 0165
ENCODING 357
SWIDTH 308 0
DWIDTH 18 0
BBX 18 48 1 -1
BITMAP
000FC0
000FC0
000FC0
000FC0
000FC0
000FC0
0001C0
0001C0
0F8180
0F8380
0F8780
0F8F00
0F8C00
0F8000
0F8000
0F8000
FFFC00
FFFC00
FFFC00
FFFC00
0F8000
0F8000
0F8000
0F8000
0F8000
0F8000
0F8000
0F8000
0F8000
0F8000
0F8000
0F8000
0F8000
0F8000
0F8000
0F8000
0F8000
0F8000
0F8000
0F8000
0F8000
0F8000
0F8000
0FC000
0FFC00
0FFC00
07FC00
01FC00
ENDCHAR
STARTCHAR 0166
ENCODING 358
SWIDTH 617 0
DWIDTH 36 0
BBX 34 43 1 0
BITMAP
FFFFFFFFC0
FFFFFFFFC0
FFFFFFFFC0
FFFFFFFFC0
FFFFFFFFC0
0003F00000
0003F00000
0003F00000
0003F00000
0003F00000
0003F00000
0003F00000
0003F00000
0003F00000
0003F00000
07FFFFF800
07FFFFF800
07FFFFF800
07FFFFF800
0003F00000
0003F00000
0003F00000
0003F00000
0003F00000
0003F00000
0003F00000
0003F00000
0003F00000
0003F00000
0003F00000
0003F00000
0003F00000
0003F00000
0003F00000
0003F00000
0003F00000
0003F00000
0003F00000
0003F00000
0003F00000
0003F00000
0003F00000
0003F00000
ENDCHAR
STARTCHAR 0167
ENCODING 359
SWIDTH 274 0
DWIDTH 16 0
BBX 14 40 1 -1
BITMAP
0F80
0F80
0F80
0F80
0F80
0F80
0F80
0F80
FFFC
FFFC
FFFC
FFFC
0F80
0F80
0F80
0F80
0F80
FFF8
FFF8
FFF8
0F80
0F80
0F80
0F80
0F80
0F80
0F80
0F80
0F80
0F80
0F80
0F80
0F80
0F80
0F80
0FC0
0FFC
0FFC
07FC
01FC
ENDCHAR
STARTCHAR 0168
ENCODING 360
SWIDTH 720 0
DWIDTH 42 0
BBX 33 55 5 -1
BITMAP
003C078000
007F878000
00FFFF0000
01FFFF0000
01E3FE0000
01C07C0000
0000000000
0000000000
0000000000
0000000000
0000000000
F800001F80
F800001F80
F800001F80
F800001F80
F800001F80
F800001F80
F800001F80
F800001F80
F800001F80
F800001F80
F800001F80
F800001F80
F800001F80
F800001F80
F800001F80
F800001F80
F800001F80
F800001F80
F800001F80
F800001F80
F800001F80
F800001F80
F800001F80
F800001F80
F800001F80
F800001F80
F800001F80
F800001F80
F800001F80
F800001F80
F800001F80
FC00001F80
FC00001F00
FC00001F00
7C00003F00
7E00007F00
7F00007E00
3F8001FE00
1FF007FC00
0FFFFFF800
07FFFFF000
03FFFFC000
00FFFF0000
001FF80000
ENDCHAR
STARTCHAR 0169
ENCODING 361
SWIDTH 548 0
DWIDTH 32 0
BBX 24 43 4 -1
BITMAP
03E038
07F878
0FFFF8
0FFFF0
1E3FE0
1C07C0
000000
000000
000000
000000
000000
F8001F
F8001F
F8001F
F8001F
F8001F
F8001F
F8001F
F8001F
F8001F
F8001F
F8001F
F8001F
F8001F
F8001F
F8001F
F8001F
F8001F
F8001F
F8001F
F8001F
F8001F
F8001F
F8003F
F8003F
F8007F
FC007F
FE01FF
7F87EF
7FFFCF
3FFF8F
1FFF0F
03FC00
ENDCHAR
STARTCHAR 016A
ENCODING 362
SWIDTH 720 0
DWIDTH 42 0
BBX 33 54 5 -1
BITMAP
00FFFF0000
00FFFF0000
00FFFF0000
00FFFF0000
0000000000
0000000000
0000000000
0000000000
0000000000
0000000000
F800001F80
F800001F80
F800001F80
F800001F80
F800001F80
F800001F80
F800001F80
F800001F80
F800001F80
F800001F80
F800001F80
F800001F80
F800001F80
F800001F80
F800001F80
F800001F80
F800001F80
F800001F80
F800001F80
F800001F80
F800001F80
F800001F80
F800001F80
F800001F80
F800001F80
F800001F80
F800001F80
F800001F80
F800001F80
F800001F80
F800001F80
FC00001F80
FC00001F00
FC00001F00
7C00003F00
7E00007F00
7F00007E00
3F8001FE00
1FF007FC00
0FFFFFF800
07FFFFF000
03FFFFC000
00FFFF0000
001FF80000
ENDCHAR
STARTCHAR 016B
ENCODING 363
SWIDTH 548 0
DWIDTH 32 0
BBX 24 42 4 -1
BITMAP
0FFFF0
0FFFF0
0FFFF0
0FFFF0
000000
000000
000000
000000
000000
000000
F8001F
F8001F
F8001F
F8001F
F8001F
F8001F
F8001F
F8001F
F8001F
F8001F
F8001F
F8001F
F8001F
F8001F
F8001F
F8001F
F8001F
F8001F
F8001F
F8001F
F8001F
F8001F
F8003F
F8003F
F8007F
FC007F
FE01FF
7F87EF
7FFFCF
3FFF8F
1FFF0F
03FC00
ENDCHAR
STARTCHAR 016C
ENCODING 364
SWIDTH 720 0
DWIDTH 42 0
BBX 33 56 5 -1
BITMAP
01E0078000
01E0078000
01F00F0000
00F81F0000
00FFFF0000
007FFE0000
003FFC0000
000FF00000
0000000000
0000000000
0000000000
0000000000
F800001F80
F800001F80
F800001F80
F800001F80
F800001F80
F800001F80
F800001F80
F800001F80
F800001F80
F800001F80
F800001F80
F800001F80
F800001F80
F800001F80
F800001F80
F800001F80
F800001F80
F800001F80
F800001F80
F800001F80
F800001F80
F800001F80
F800001F80
F800001F80
F800001F80
F800001F80
F800001F80
F800001F80
F800001F80
F800001F80
F800001F80
FC00001F80
FC00001F00
FC00001F00
7C00003F00
7E00007F00
7F00007E00
3F8001FE00
1FF007FC00
0FFFFFF800
07FFFFF000
03FFFFC000
00FFFF0000
001FF80000
ENDCHAR
STARTCHAR 016D
ENCODING 365
SWIDTH 548 0
DWIDTH 32 0
BBX 24 44 4 -1
BITMAP
1E0038
0E0078
0F0078
0FC1F0
07FFF0
07FFE0
01FFC0
007F00
000000
000000
000000
000000
F8001F
F8001F
F8001F
F8001F
F8001F
F8001F
F8001F
F8001F
F8001F
F8001F
F8001F
F8001F
F8001F
F8001F
F8001F
F8001F
F8001F
F8001F
F8001F
F8001F
F8001F
F8001F
F8003F
F8003F
F8007F
FC007F
FE01FF
7F87EF
7FFFCF
3FFF8F
1FFF0F
03FC00
ENDCHAR
STARTCHAR 016E
ENCODING 366
SWIDTH 720 0
DWIDTH 42 0
BBX 33 57 5 -1
BITMAP
0003E00000
0007F00000
000FF80000
001C380000
001C180000
001C180000
001C380000
000FF80000
0007F00000
0003C00000
0000000000
0000000000
0000000000
F800001F80
F800001F80
F800001F80
F800001F80
F800001F80
F800001F80
F800001F80
F800001F80
F800001F80
F800001F80
F800001F80
F800001F80
F800001F80
F800001F80
F800001F80
F800001F80
F800001F80
F800001F80
F800001F80
F800001F80
F800001F80
F800001F80
F800001F80
F800001F80
F800001F80
F800001F80
F800001F80
F800001F80
F800001F80
F800001F80
F800001F80
FC00001F80
FC00001F00
FC00001F00
7C00003F00
7E00007F00
7F00007E00
3F8001FE00
1FF007FC00
0FFFFFF800
07FFFFF000
03FFFFC000
00FFFF0000
001FF80000
ENDCHAR
STARTCHAR 016F
ENCODING 367
SWIDTH 548 0
DWIDTH 32 0
BBX 24 45 4 0
BITMAP
007E00
00FF00
01E780
01C380
018180
01C380
01C380
00FF00
00FF00
003C00
000000
000000
000000
F8001F
F8001F
F8001F
F8001F
F8001F
F8001F
F8001F
F8001F
F8001F
F8001F
F8001F
F8001F
F8001F
F8001F
F8001F
F8001F
F8001F
F8001F
F8001F
F8001F
F8001F
F8001F
F8003F
F8003F
F8007F
FC007F
FE01FF
7F87EF
7FFFCF
3FFF8F
1FFF0F
03FC00
ENDCHAR
STARTCHAR 0170
ENCODING 368
SWIDTH 720 0
DWIDTH 42 0
BBX 33 56 5 -1
BITMAP
0003F0FC00
0007E1F800
000FC1F000
000F83E000
001F07C000
003E078000
003C0F0000
00781E0000
00701C0000
0000000000
0000000000
0000000000
F800001F80
F800001F80
F800001F80
F800001F80
F800001F80
F800001F80
F800001F80
F800001F80
F800001F80
F800001F80
F800001F80
F800001F80
F800001F80
F800001F80
F800001F80
F800001F80
F800001F80
F800001F80
F800001F80
F800001F80
F800001F80
F800001F80
F800001F80
F800001F80
F800001F80
F800001F80
F800001F80
F800001F80
F800001F80
F800001F80
F800001F80
FC00001F80
FC00001F00
FC00001F00
7C00003F00
7E00007F00
7F00007E00
3F8001FE00
1FF007FC00
0FFFFFF800
07FFFFF000
03FFFFC000
00FFFF0000
001FF80000
ENDCHAR
STARTCHAR 0171
ENCODING 369
SWIDTH 548 0
DWIDTH 32 0
BBX 26 45 4 -1
BITMAP
003F0FC0
007E1F80
007C1F00
00F83E00
01F07E00
01E07C00
03C0F800
0780F000
0701E000
00000000
00000000
00000000
00000000
F8001F00
F8001F00
F8001F00
F8001F00
F8001F00
F8001F00
F8001F00
F8001F00
F8001F00
F8001F00
F8001F00
F8001F00
F8001F00
F8001F00
F8001F00
F8001F00
F8001F00
F8001F00
F8001F00
F8001F00
F8001F00
F8001F00
F8003F00
F8003F00
F8007F00
FC007F00
FE01FF00
7F87EF00
7FFFCF00
3FFF8F00
1FFF0F00
03FC0000
ENDCHAR
STARTCHAR 0172
ENCODING 370
SWIDTH 720 0
DWIDTH 42 0
BBX 33 55 5 -12
BITMAP
F800001F80
F800001F80
F800001F80
F800001F80
F800001F80
F800001F80
F800001F80
F800001F80
F800001F80
F800001F80
F800001F80
F800001F80
F800001F80
F800001F80
F800001F80
F800001F80
F800001F80
F800001F80
F800001F80
F800001F80
F800001F80
F800001F80
F800001F80
F800001F80
F800001F80
F800001F80
F800001F80
F800001F80
F800001F80
F800001F80
F800001F80
FC00001F80
FC00001F00
FC00001F00
7C00003F00
7E00003F00
7F00007E00
3F8001FE00
1FF007FC00
0FFFFFF800
07FFFFF800
03FFFFF000
00FFFFE000
001FFBC000
0000078000
00001F0000
00001E0000
00003E0000
00003C0000
00003C0000
00003E0000
00001F0000
00001FFC00
000007FC00
000000E000
ENDCHAR
STARTCHAR 0173
ENCODING 371
SWIDTH 548 0
DWIDTH 32 0
BBX 26 43 4 -12
BITMAP
F8001F00
F8001F00
F8001F00
F8001F00
F8001F00
F8001F00
F8001F00
F8001F00
F8001F00
F8001F00
F8001F00
F8001F00
F8001F00
F8001F00
F8001F00
F8001F00
F8001F00
F8001F00
F8001F00
F8001F00
F8001F00
F8001F00
F8003F00
F8003F00
F8007F00
FC007F00
FE01FF00
7F87EF00
7FFFCF00
3FFF8F00
1FFF0F00
03F80E00
00003C00
00007800
0000F000
0000F000
0001F000
0001F000
0000F000
0000F800
00007FC0
00003FC0
00000100
ENDCHAR
STARTCHAR 0174
ENCODING 372
SWIDTH 942 0
DWIDTH 55 0
BBX 53 55 1 0
BITMAP
000001FC000000
000003FC000000
000003FE000000
000007DF000000
00000F8F000000
00000F07800000
00001E07800000
00001E03C00000
00002000000000
00000000000000
00000000000000
00000000000000
FC0000FC0001F8
7E0001FC0001F8
7E0001FC0001F8
7E0001FE0003F0
7E0001FE0003F0
3F0003FE0003F0
3F0003FE0003F0
3F0003FF0007E0
3F0007DF0007E0
1F8007DF0007E0
1F8007DF8007E0
1F8007CF8007C0
1F800F8F800FC0
0F800F8F800FC0
0FC00F87C00FC0
0FC00F87C00F80
0FC01F07C01F80
07C01F07C01F80
07E01F03E01F80
07E03E03E01F00
07E03E03E01F00
03E03E03F03F00
03F03E01F03F00
03F07C01F03E00
03F07C01F03E00
01F07C00F87E00
01F07C00F87E00
01F8F800F87C00
01F8F800FC7C00
00F8F8007C7C00
00F8F8007CFC00
00FDF0007CF800
007DF0003EF800
007DF0003EF800
007FE0003FF800
007FE0003FF000
003FE0001FF000
003FE0001FF000
003FC0001FF000
003FC0001FE000
001FC0000FE000
001FC0000FE000
001F80000FE000
ENDCHAR
STARTCHAR 0175
ENCODING 373
SWIDTH 720 0
DWIDTH 42 0
BBX 41 44 0 0
BITMAP
00003F000000
00007F000000
0000FF800000
0000FFC00000
0001F3C00000
0001E1E00000
0003C1F00000
000780F00000
000780780000
000000000000
000000000000
000000000000
000000000000
FC003F000F80
7C007F001F80
7C007F001F80
7E007F801F00
3E007F801F00
3E00FF803F00
3E00FF803E00
3F00F7C03E00
1F00F7C03E00
1F01F7C07E00
1F01F3C07C00
0F81E3E07C00
0F81E3E07C00
0F81E3E0F800
0F83E1E0F800
07C3C1F0F800
07C3C1F0F800
07C3C1F1F000
03E7C0F1F000
03E780F9F000
03E780F9E000
03E780FBE000
01FF807BE000
01FF807FC000
01FF007FC000
00FF007FC000
00FF003FC000
00FF003F8000
00FE003F8000
007E003F8000
007E001F0000
ENDCHAR
STARTCHAR 0176
ENCODING 374
SWIDTH 668 0
DWIDTH 39 0
BBX 37 55 1 0
BITMAP
0000FC0000
0001FE0000
0001FF0000
0003EF0000
0007CF8000
000787C000
000F03C000
001E01E000
0000000000
0000000000
0000000000
0000000000
FE000001F8
7E000003F8
7F000003F0
3F800007E0
1F80000FE0
1FC0000FC0
0FC0001FC0
0FE0001F80
07F0003F00
03F0003F00
03F8007E00
01F800FE00
00FC00FC00
00FE01F800
007E01F800
007F03F000
003F03E000
001F87E000
001F8FC000
000FCFC000
0007FF8000
0007FF0000
0003FF0000
0003FE0000
0001FE0000
0000FC0000
0000FC0000
0000FC0000
0000FC0000
0000FC0000
0000FC0000
0000FC0000
0000FC0000
0000FC0000
0000FC0000
0000FC0000
0000FC0000
0000FC0000
0000FC0000
0000FC0000
0000FC0000
0000FC0000
0000FC0000
ENDCHAR
STARTCHAR 0177
ENCODING 375
SWIDTH 497 0
DWIDTH 29 0
BBX 27 57 1 -13
BITMAP
001F8000
003F8000
007FC000
007BE000
00F9E000
01F1F000
01E0F000
03C07800
03803C00
00000000
00000000
00000000
00000000
FC0007E0
7C0007C0
7C0007C0
7C000FC0
3E000F80
3E000F80
3E001F80
1F001F00
1F001F00
1F003E00
0F803E00
0F803E00
0F807C00
07C07C00
07C07C00
07C0F800
03E0F800
03E1F800
03E1F000
01F1F000
01F3E000
01F3E000
00FBE000
00FFC000
00FFC000
007FC000
007F8000
007F8000
003F8000
003F0000
003F0000
003E0000
003E0000
003E0000
007C0000
007C0000
00FC0000
00F80000
01F80000
3FF00000
3FF00000
3FE00000
3FC00000
1E000000
ENDCHAR
STARTCHAR 0178
ENCODING 376
SWIDTH 668 0
DWIDTH 39 0
BBX 37 54 1 0
BITMAP
001F87E000
001F87E000
001F87E000
001F87E000
001F87E000
001F87E000
0000000000
0000000000
0000000000
0000000000
0000000000
FE000001F8
7E000003F8
7F000003F0
3F800007E0
1F80000FE0
1FC0000FC0
0FC0001FC0
0FE0001F80
07F0003F00
03F0003F00
03F8007E00
01F800FE00
00FC00FC00
00FE01F800
007E01F800
007F03F000
003F03E000
001F87E000
001F8FC000
000FCFC000
0007FF8000
0007FF0000
0003FF0000
0003FE0000
0001FE0000
0000FC0000
0000FC0000
0000FC0000
0000FC0000
0000FC0000
0000FC0000
0000FC0000
0000FC0000
0000FC0000
0000FC0000
0000FC0000
0000FC0000
0000FC0000
0000FC0000
0000FC0000
0000FC0000
0000FC0000
0000FC0000
ENDCHAR
STARTCHAR 0179
ENCODING 377
SWIDTH 617 0
DWIDTH 36 0
BBX 32 55 2 0
BITMAP
00003F00
00007E00
0000FC00
0000F800
0001F000
0001E000
0003C000
00078000
00000000
00000000
00000000
00000000
7FFFFFFF
7FFFFFFF
7FFFFFFF
7FFFFFFF
7FFFFFFF
0000007E
000000FE
000001FC
000003F8
000003F0
000007F0
00000FE0
00001FC0
00001F80
00003F80
00007F00
0000FE00
0001FC00
0001FC00
0003F800
0007F000
000FE000
000FC000
001FC000
003F8000
007F0000
007E0000
00FE0000
01FC0000
03F80000
03F00000
07F00000
0FE00000
1FC00000
3F800000
3F800000
7F000000
FE000000
FFFFFFFF
FFFFFFFF
FFFFFFFF
FFFFFFFF
FFFFFFFF
ENDCHAR
STARTCHAR 017A
ENCODING 378
SWIDTH 497 0
DWIDTH 29 0
BBX 25 44 2 0
BITMAP
0003F000
0007E000
0007C000
000F8000
001F0000
001E0000
003C0000
00380000
00780000
00000000
00000000
00000000
00000000
7FFFFF00
7FFFFF00
7FFFFF00
7FFFFF00
00003F00
00007E00
0000FC00
0001F800
0001F000
0003F000
0007E000
000FC000
001F8000
001F0000
003F0000
007E0000
00FC0000
01F80000
03F00000
03F00000
07E00000
0FC00000
1F800000
3F000000
3F000000
7E000000
FC000000
FFFFFF80
FFFFFF80
FFFFFF80
FFFFFF80
ENDCHAR
STARTCHAR 017B
ENCODING 379
SWIDTH 617 0
DWIDTH 36 0
BBX 32 54 2 0
BITMAP
0003F000
0003F000
0003F000
0003F000
0003F000
0003F000
00000000
00000000
00000000
00000000
00000000
7FFFFFFF
7FFFFFFF
7FFFFFFF
7FFFFFFF
7FFFFFFF
0000007E
000000FE
000001FC
000003F8
000003F0
000007F0
00000FE0
00001FC0
00001F80
00003F80
00007F00
0000FE00
0001FC00
0001FC00
0003F800
0007F000
000FE000
000FC000
001FC000
003F8000
007F0000
007E0000
00FE0000
01FC0000
03F80000
03F00000
07F00000
0FE00000
1FC00000
3F800000
3F800000
7F000000
FE000000
FFFFFFFF
FFFFFFFF
FFFFFFFF
FFFFFFFF
FFFFFFFF
ENDCHAR
STARTCHAR 017C
ENCODING 380
SWIDTH 497 0
DWIDTH 29 0
BBX 25 42 2 0
BITMAP
003F0000
003F0000
003F0000
003F0000
003F0000
003F0000
00000000
00000000
00000000
00000000
00000000
7FFFFF00
7FFFFF00
7FFFFF00
7FFFFF00
00003F00
00007E00
0000FC00
0001F800
0001F000
0003F000
0007E000
000FC000
001F8000
001F0000
003F0000
007E0000
00FC0000
01F80000
03F00000
03F00000
07E00000
0FC00000
1F800000
3F000000
3F000000
7E000000
FC000000
FFFFFF80
FFFFFF80
FFFFFF80
FFFFFF80
ENDCHAR
STARTCHAR 017D
ENCODING 381
SWIDTH 617 0
DWIDTH 36 0
BBX 32 55 2 0
BITMAP
00780700
00780F00
003C1E00
001E3E00
001F7C00
000FF800
0007F800
0007F000
00000000
00000000
00000000
00000000
7FFFFFFF
7FFFFFFF
7FFFFFFF
7FFFFFFF
7FFFFFFF
0000007E
000000FE
000001FC
000003F8
000003F0
000007F0
00000FE0
00001FC0
00001F80
00003F80
00007F00
0000FE00
0001FC00
0001FC00
0003F800
0007F000
000FE000
000FC000
001FC000
003F8000
007F0000
007E0000
00FE0000
01FC0000
03F80000
03F00000
07F00000
0FE00000
1FC00000
3F800000
3F800000
7F000000
FE000000
FFFFFFFF
FFFFFFFF
FFFFFFFF
FFFFFFFF
FFFFFFFF
ENDCHAR
STARTCHAR 017E
ENCODING 382
SWIDTH 497 0
DWIDTH 29 0
BBX 25 44 2 0
BITMAP
07007800
0780F000
03C1E000
03E3E000
01F3C000
00F7C000
00FF8000
007F0000
003F0000
00000000
00000000
00000000
00000000
7FFFFF00
7FFFFF00
7FFFFF00
7FFFFF00
00003F00
00007E00
0000FC00
0001F800
0001F000
0003F000
0007E000
000FC000
001F8000
001F0000
003F0000
007E0000
00FC0000
01F80000
03F00000
03F00000
07E00000
0FC00000
1F800000
3F000000
3F000000
7E000000
FC000000
FFFFFF80
FFFFFF80
FFFFFF80
FFFFFF80
ENDCHAR
STARTCHAR 017F
ENCODING 383
SWIDTH 222 0
DWIDTH 13 0
BBX 14 43 -1 0
BITMAP
007C
01FC
03FC
07FC
07E0
07C0
0780
0F80
0F80
0F80
0F80
0F80
FF80
FF80
FF80
FF80
0F80
0F80
0F80
0F80
0F80
0F80
0F80
0F80
0F80
0F80
0F80
0F80
0F80
0F80
0F80
0F80
0F80
0F80
0F80
0F80
0F80
0F80
0F80
0F80
0F80
0F80
0F80
ENDCHAR
STARTCHAR 0192
ENCODING 402
SWIDTH 548 0
DWIDTH 32 0
BBX 30 57 1 -13
BITMAP
000001F8
000007FC
00000FFC
00001FFC
00003FF8
00007E08
00007C00
0000FC00
0000F800
0000F800
0000F800
0001F000
0001F000
0001F000
0001F000
0001F000
01FFFFC0
01FFFFC0
01FFFFC0
01FFFFC0
0003E000
0007E000
0007C000
0007C000
0007C000
0007C000
0007C000
000FC000
000F8000
000F8000
000F8000
000F8000
001F8000
001F0000
001F0000
001F0000
001F0000
001F0000
003F0000
003E0000
003E0000
003E0000
003E0000
007E0000
007C0000
007C0000
007C0000
007C0000
00F80000
00F80000
01F80000
43F00000
FFE00000
FFC00000
FF800000
FE000000
20000000
ENDCHAR
STARTCHAR 01FA
ENCODING 506
SWIDTH 668 0
DWIDTH 39 0
BBX 37 63 1 0
BITMAP
0001F80000
0003F00000
0003E00000
0007C00000
000F800000
000F000000
001E000000
003CF80000
0039FC0000
0003FE0000
00030E0000
0007070000
0007070000
0003860000
0003FE0000
0001FC0000
0000F80000
0000000000
0000000000
0000000000
0001FC0000
0001FE0000
0003FE0000
0003FE0000
0003FF0000
0007FF0000
0007DF0000
0007DF8000
000FDF8000
000F8F8000
001F8FC000
001F8FC000
001F07E000
003F07E000
003F07E000
003E03F000
007E03F000
007C03F000
007C01F800
00FC01F800
00F801F800
00F800FC00
01F800FC00
01F000FC00
01F0007E00
03FFFFFE00
03FFFFFE00
07FFFFFF00
07FFFFFF00
07FFFFFF00
0FC0001F80
0FC0001F80
0F80001F80
1F80000FC0
1F80000FC0
1F00000FC0
3F000007E0
3F000007E0
3E000007F0
7E000003F0
7E000003F0
7C000003F8
FC000001F8
ENDCHAR
STARTCHAR 01FB
ENCODING 507
SWIDTH 548 0
DWIDTH 32 0
BBX 29 54 2 -1
BITMAP
001FC000
001F8000
003F0000
007E0000
007C0000
00F80000
01F00000
01E00000
03C20000
001F8000
003FC000
0038E000
00706000
00706000
00706000
0038E000
003FC000
001F8000
00020000
00000000
00000000
003FE000
01FFFC00
07FFFE00
0FFFFF00
1FFFFF80
1F801F80
3F000F80
3E000FC0
3E0007C0
3E0007C0
000007C0
000007C0
00000FC0
00007FC0
001FFFC0
03FFFFC0
0FFFFFC0
1FFF87C0
3FE007C0
7F0007C0
7E0007C0
7C0007C0
7C0007C0
FC0007C0
FC000FC0
7C001FC0
7C003FC0
7E007FC0
3FC3FFE0
3FFFF7F8
1FFFC7F8
0FFF83F8
01FC01F8
ENDCHAR
STARTCHAR 01FC
ENCODING 508
SWIDTH 994 0
DWIDTH 58 0
BBX 54 55 1 0
BITMAP
000000003F8000
000000003E0000
000000007C0000
00000000F80000
00000000F00000
00000001E00000
00000003C00000
00000003800000
00000000000000
00000000000000
00000000000000
00000000000000
00007FFFFFFFF8
0000FFFFFFFFF8
0000FFFFFFFFF8
0000FFFFFFFFF8
0001FFFFFFFFF8
0001F03F000000
0003F03F000000
0003E03F000000
0003E03F000000
0007E03F000000
0007C03F000000
000FC03F000000
000F803F000000
000F803F000000
001F803F000000
001F003F000000
003F003F000000
003E003F000000
003E003FFFFFF0
007E003FFFFFF0
007C003FFFFFF0
00FC003FFFFFF0
00F8003FFFFFF0
00F8003F000000
01F8003F000000
01FFFFFF000000
03FFFFFF000000
03FFFFFF000000
03FFFFFF000000
07FFFFFF000000
07C0003F000000
0FC0003F000000
0FC0003F000000
1F80003F000000
1F80003F000000
1F00003F000000
3F00003F000000
3F00003F000000
7E00003FFFFFFC
7E00003FFFFFFC
7E00003FFFFFFC
FC00003FFFFFFC
FC00003FFFFFFC
ENDCHAR
STARTCHAR 01FD
ENCODING 509
SWIDTH 891 0
DWIDTH 52 0
BBX 47 45 2 -1
BITMAP
0000007E0000
000000FC0000
000000F80000
000001F00000
000003E00000
000003C00000
000007800000
00000F000000
00000E000000
000000000000
000000000000
000000000000
007FC003FC00
03FFF00FFF00
07FFFC3FFFC0
1FFFFE7FFFE0
1FFFFFFFFFF0
3F803FFC03F8
3F001FF001F8
3E000FE000FC
7E000FE0007C
7C000FC0007E
00000FC0003E
00000F80003E
00000F80003E
00003F80003E
001FFFFFFFFE
03FFFFFFFFFE
0FFFFFFFFFFE
1FFF8FFFFFFE
3FE00F800000
7F000F800000
7C000F800000
FC000F800000
F8000F80003E
F8000FC0007C
F8001FC0007C
F8001FE000FC
FC007FF001F8
7E00F9FC03F8
7F87F0FFFFF0
3FFFE0FFFFE0
1FFFC03FFFC0
0FFF001FFF00
03F80003FC00
ENDCHAR
STARTCHAR 01FE
ENCODING 510
SWIDTH 771 0
DWIDTH 45 0
BBX 41 57 2 -1
BITMAP
000007E00000
00000FC00000
00000F800000
00001F000000
00003E000000
00003C000000
000078000000
0000F0000000
0000E0000000
000000000000
000000000000
000000000000
0000FFC00380
0007FFF80780
003FFFFE0F00
007FFFFF1E00
00FFFFFFFC00
03FF007FFC00
07FC000FF800
07F00007F800
0FE00003F800
1FC00003FC00
1F800007FC00
3F00000F7E00
3F00001E7E00
7E00003C3F00
7E0000783F00
7C0000F01F00
7C0001F01F80
FC0003E01F80
FC0003C01F80
FC0007801F80
FC000F000F80
F8001E000F80
F8003C000F80
FC0078000F80
FC00F0000F80
FC01E0000F80
FC03E0001F80
FC07C0001F80
7C0780001F80
7C0F00001F00
7E1E00003F00
7E3C00003F00
3F7800007E00
3FF000007E00
1FE00000FC00
1FC00001FC00
0FE00003F800
0FF00007F800
1FFC000FF000
1FFF007FE000
3DFFFFFFC000
787FFFFF0000
F03FFFFE0000
600FFFF80000
0000FF800000
ENDCHAR
STARTCHAR 01FF
ENCODING 511
SWIDTH 617 0
DWIDTH 36 0
BBX 30 46 1 -1
BITMAP
0000FC00
0001F800
0003F000
0003E000
0007C000
00078000
000F0000
001E0000
001C0000
00000000
00000000
00000000
00000000
001FE008
00FFFC1C
01FFFE38
03FFFF70
07FFFFE0
0FE01FC0
1FC00FE0
1F8007E0
3F000FF0
3F000FF0
3E001DF0
3E0039F0
7E0071F8
7C00E1F8
7C01E0F8
7C03C0F8
7C0780F8
7C0700F8
7C0E00F8
7C1C01F8
7E3801F0
3E7001F0
3EF001F0
3FE003F0
3FC003E0
1F8007E0
1FC00FE0
0FE01FC0
1FFFFF80
3BFFFF00
71FFFE00
F0FFFC00
601FE000
ENDCHAR
STARTCHAR 0218
ENCODING 536
SWIDTH 668 0
DWIDTH 39 0
BBX 33 60 3 -16
BITMAP
001FF80000
00FFFF0000
03FFFFC000
07FFFFF000
0FFFFFF800
1FE003FC00
1F8001FC00
3F00007E00
3E00007E00
7E00003E00
7E00003F00
7E00003F00
7E00001F00
7E00000000
7E00000000
7F00000000
3F80000000
3FE0000000
1FFE000000
0FFFC00000
07FFFC0000
03FFFFC000
007FFFF000
0007FFF800
0000FFFC00
00000FFE00
000001FF00
0000007F00
0000003F80
0000001F80
F800001F80
F800000F80
F800000F80
F800000F80
FC00000F80
7C00001F80
7E00001F00
7F00003F00
3F80007E00
1FF001FE00
0FFFFFFC00
07FFFFF800
03FFFFE000
00FFFF8000
000FFC0000
0000000000
0000000000
0003F00000
0003F00000
0003F00000
0003F00000
0003F00000
0003F00000
0000700000
0000700000
0000700000
0000600000
0000E00000
0003C00000
0003800000
ENDCHAR
STARTCHAR 0219
ENCODING 537
SWIDTH 497 0
DWIDTH 29 0
BBX 25 48 2 -16
BITMAP
00FF8000
03FFE000
0FFFF800
1FFFFC00
3FFFFC00
3F00FE00
7E007E00
7C003E00
7C003F00
7C000000
7C000000
7E000000
7F000000
3FE00000
3FFE0000
1FFFE000
07FFF800
00FFFC00
001FFE00
0001FF00
00003F00
00001F80
00000F80
F8000F80
FC000F80
FC001F80
7E001F00
7F007F00
3FF7FE00
3FFFFC00
1FFFF800
07FFF000
00FF8000
00000000
00000000
007E0000
007E0000
007E0000
007E0000
007E0000
007E0000
00060000
00060000
00060000
000E0000
001C0000
007C0000
00700000
ENDCHAR
STARTCHAR 021A
ENCODING 538
SWIDTH 617 0
DWIDTH 36 0
BBX 34 59 1 -16
BITMAP
FFFFFFFFC0
FFFFFFFFC0
FFFFFFFFC0
FFFFFFFFC0
FFFFFFFFC0
0003F00000
0003F00000
0003F00000
0003F00000
0003F00000
0003F00000
0003F00000
0003F00000
0003F00000
0003F00000
0003F00000
0003F00000
0003F00000
0003F00000
0003F00000
0003F00000
0003F00000
0003F00000
0003F00000
0003F00000
0003F00000
0003F00000
0003F00000
0003F00000
0003F00000
0003F00000
0003F00000
0003F00000
0003F00000
0003F00000
0003F00000
0003F00000
0003F00000
0003F00000
0003F00000
0003F00000
0003F00000
0003F00000
0000000000
0000000000
0000000000
0003F00000
0003F00000
0003F00000
0003F00000
0003F00000
0003F00000
0000700000
0000700000
0000700000
0000600000
0000E00000
0003C00000
0003800000
ENDCHAR
STARTCHAR 021B
ENCODING 539
SWIDTH 274 0
DWIDTH 16 0
BBX 14 55 1 -16
BITMAP
0F80
0F80
0F80
0F80
0F80
0F80
0F80
0F80
FFFC
FFFC
FFFC
FFFC
0F80
0F80
0F80
0F80
0F80
0F80
0F80
0F80
0F80
0F80
0F80
0F80
0F80
0F80
0F80
0F80
0F80
0F80
0F80
0F80
0F80
0F80
0F80
0FC0
0FFC
0FFC
07FC
01FC
0000
0000
07E0
07E0
07E0
07E0
07E0
07E0
0060
0060
00E0
00E0
01C0
07C0
0700
ENDCHAR
STARTCHAR 02C6
ENCODING 710
SWIDTH 325 0
DWIDTH 19 0
BBX 17 9 1 35
BITMAP
07F000
07F000
0FF800
0F7C00
1E3C00
3E3E00
3C1E00
780F00
F00780
ENDCHAR
STARTCHAR 02C7
ENCODING 711
SWIDTH 325 0
DWIDTH 19 0
BBX 17 9 1 35
BITMAP
F00780
780F00
3C1E00
3E3E00
1F7C00
0F7800
0FF800
07F000
03E000
ENDCHAR
STARTCHAR 02C9
ENCODING 713
SWIDTH 325 0
DWIDTH 19 0
BBX 16 4 2 37
BITMAP
FFFF
FFFF
FFFF
FFFF
ENDCHAR
STARTCHAR 02D8
ENCODING 728
SWIDTH 325 0
DWIDTH 19 0
BBX 17 8 1 35
BITMAP
E00380
F00380
F00780
FC1F80
7FFF00
3FFE00
1FFC00
07F000
ENDCHAR
STARTCHAR 02D9
ENCODING 729
SWIDTH 325 0
DWIDTH 19 0
BBX 6 6 7 36
BITMAP
FC
FC
FC
FC
FC
FC
ENDCHAR
STARTCHAR 02DA
ENCODING 730
SWIDTH 325 0
DWIDTH 19 0
BBX 10 10 5 34
BITMAP
1E00
7F00
FF80
E1C0
C1C0
C1C0
E1C0
FF80
7F00
1E00
ENDCHAR
STARTCHAR 02DB
ENCODING 731
SWIDTH 325 0
DWIDTH 19 0
BBX 12 12 3 -12
BITMAP
0780
1F00
3C00
7800
7800
F800
F800
F800
7C00
7FF0
3FF0
07F0
ENDCHAR
STARTCHAR 02DC
ENCODING 732
SWIDTH 325 0
DWIDTH 19 0
BBX 19 6 0 36
BITMAP
1F01E0
3FE3C0
7FFFC0
7FFFC0
70FF80
F01F00
ENDCHAR
STARTCHAR 02DD
ENCODING 733
SWIDTH 325 0
DWIDTH 19 0
BBX 22 9 -2 35
BITMAP
07F1FC
07E1F8
0FC3F0
1F87E0
1F07C0
3E0F80
7C0F00
781E00
F03C00
ENDCHAR
STARTCHAR 0384
ENCODING 900
SWIDTH 325 0
DWIDTH 19 0
BBX 5 11 7 34
BITMAP
F8
F8
F8
F8
F8
F8
78
70
70
70
30
ENDCHAR
STARTCHAR 0385
ENCODING 901
SWIDTH 325 0
DWIDTH 19 0
BBX 16 15 2 35
BITMAP
07C0
07C0
07C0
07C0
07C0
07C0
03C0
03C0
0380
FBBF
F9BF
F9BF
F83F
F83F
F83F
ENDCHAR
STARTCHAR 0386
ENCODING 902
SWIDTH 668 0
DWIDTH 39 0
BBX 37 43 1 0
BITMAP
3E01FC0000
3E01FE0000
3E03FE0000
3E03FE0000
3E03FF0000
3E07FF0000
3E07DF0000
1C07DF8000
1C0FDF8000
1C0F8F8000
1C1F8FC000
001F8FC000
001F07E000
003F07E000
003F07E000
003E03F000
007E03F000
007C03F000
007C01F800
00FC01F800
00F801F800
00F800FC00
01F800FC00
01F000FC00
01F0007E00
03FFFFFE00
03FFFFFE00
07FFFFFF00
07FFFFFF00
07FFFFFF00
0FC0001F80
0FC0001F80
0F80001F80
1F80000FC0
1F80000FC0
1F00000FC0
3F000007E0
3F000007E0
3E000007F0
7E000003F0
7E000003F0
7C000003F8
FC000001F8
ENDCHAR
STARTCHAR 0387
ENCODING 903
SWIDTH 274 0
DWIDTH 16 0
BBX 6 6 6 13
BITMAP
FC
FC
FC
FC
FC
FC
ENDCHAR
STARTCHAR 0388
ENCODING 904
SWIDTH 788 0
DWIDTH 46 0
BBX 38 43 2 0
BITMAP
F1FFFFFFF8
F1FFFFFFF8
F1FFFFFFF8
F1FFFFFFF8
F1FFFFFFF8
F1F8000000
F1F8000000
F1F8000000
F1F8000000
61F8000000
61F8000000
01F8000000
01F8000000
01F8000000
01F8000000
01F8000000
01F8000000
01F8000000
01FFFFFFF0
01FFFFFFF0
01FFFFFFF0
01FFFFFFF0
01FFFFFFF0
01F8000000
01F8000000
01F8000000
01F8000000
01F8000000
01F8000000
01F8000000
01F8000000
01F8000000
01F8000000
01F8000000
01F8000000
01F8000000
01F8000000
01F8000000
01FFFFFFFC
01FFFFFFFC
01FFFFFFFC
01FFFFFFFC
01FFFFFFFC
ENDCHAR
STARTCHAR 0389
ENCODING 905
SWIDTH 840 0
DWIDTH 49 0
BBX 41 43 1 0
BITMAP
F8FC00001F80
F8FC00001F80
F8FC00001F80
F8FC00001F80
F8FC00001F80
F8FC00001F80
F8FC00001F80
70FC00001F80
70FC00001F80
70FC00001F80
70FC00001F80
00FC00001F80
00FC00001F80
00FC00001F80
00FC00001F80
00FC00001F80
00FC00001F80
00FC00001F80
00FFFFFFFF80
00FFFFFFFF80
00FFFFFFFF80
00FFFFFFFF80
00FFFFFFFF80
00FC00001F80
00FC00001F80
00FC00001F80
00FC00001F80
00FC00001F80
00FC00001F80
00FC00001F80
00FC00001F80
00FC00001F80
00FC00001F80
00FC00001F80
00FC00001F80
00FC00001F80
00FC00001F80
00FC00001F80
00FC00001F80
00FC00001F80
00FC00001F80
00FC00001F80
00FC00001F80
ENDCHAR
STARTCHAR 038A
ENCODING 906
SWIDTH 377 0
DWIDTH 22 0
BBX 13 43 2 0
BITMAP
F1F8
F1F8
F1F8
F1F8
F1F8
F1F8
F1F8
F1F8
F1F8
61F8
61F8
61F8
01F8
01F8
01F8
01F8
01F8
01F8
01F8
01F8
01F8
01F8
01F8
01F8
01F8
01F8
01F8
01F8
01F8
01F8
01F8
01F8
01F8
01F8
01F8
01F8
01F8
01F8
01F8
01F8
01F8
01F8
01F8
ENDCHAR
STARTCHAR 038C
ENCODING 908
SWIDTH 771 0
DWIDTH 45 0
BBX 44 45 -1 -1
BITMAP
00001FF80000
F000FFFF0000
F007FFFFC000
F00FFFFFE000
F01FFFFFF800
F07FE00FFC00
F0FF0001FE00
F0FE0000FF00
F1FC00007F00
F3F800003F80
63F000001F80
67E000000FC0
07E000000FC0
07C0000007E0
0FC0000007E0
0F80000003E0
0F80000003F0
1F80000003F0
1F80000003F0
1F80000003F0
1F80000001F0
1F00000001F0
1F00000001F0
1F80000001F0
1F80000001F0
1F80000001F0
1F80000003F0
1F80000003F0
0F80000003F0
0FC0000003E0
0FC0000007E0
0FC0000007E0
07E0000007C0
07E000000FC0
03F000001F80
03F800003F80
01FC00007F00
00FE0000FF00
00FF8001FE00
007FE00FFC00
003FFFFFF800
000FFFFFE000
0007FFFFC000
0001FFFF0000
00001FF00000
ENDCHAR
STARTCHAR 038E
ENCODING 910
SWIDTH 857 0
DWIDTH 50 0
BBX 44 43 2 0
BITMAP
F9F8000007F0
F9FC000007E0
F8FE00000FE0
F87E00000FC0
F87F00001F80
F83F00001F80
F01F80003F00
F01FC0007F00
700FC0007E00
700FE000FC00
6007E000FC00
6003F001F800
0003F801F800
0001F803F000
0000FC07E000
0000FC07E000
00007E0FC000
00007F0FC000
00003F1F8000
00001FBF0000
00001FBF0000
00000FFE0000
000007FC0000
000007FC0000
000003F80000
000003F80000
000001F00000
000001F00000
000001F00000
000001F00000
000001F00000
000001F00000
000001F00000
000001F00000
000001F00000
000001F00000
000001F00000
000001F00000
000001F00000
000001F00000
000001F00000
000001F00000
000001F00000
ENDCHAR
STARTCHAR 038F
ENCODING 911
SWIDTH 754 0
DWIDTH 44 0
BBX 43 44 -1 0
BITMAP
00003FF00000
F801FFFE0000
F807FFFF8000
F81FFFFFE000
F83FFFFFF000
F87FC00FF800
F0FF0003FC00
F1FC0001FE00
F1F80000FE00
F3F000007F00
63F000003F00
67E000001F80
07E000001F80
0FC000000F80
0FC000000FC0
0FC000000FC0
0F8000000FC0
0F80000007C0
0F80000007C0
0F80000007C0
0F80000007C0
0F80000007C0
0F80000007C0
0F80000007C0
0F80000007C0
0FC000000FC0
0FC000000FC0
0FC000000F80
07C000000F80
07E000001F80
03E000001F00
03F000003F00
01F000003E00
01F800007E00
00FC0000FC00
007E0001F800
003F0003F000
001F8007C000
0007C00F8000
1FFFE03FFFE0
1FFFE03FFFE0
1FFFE03FFFE0
1FFFE03FFFE0
1FFFE03FFFE0
ENDCHAR
STARTCHAR 0390
ENCODING 912
SWIDTH 222 0
DWIDTH 13 0
BBX 15 50 -1 0
BITMAP
07C0
07C0
07C0
07C0
07C0
07C0
07C0
0380
0380
FBBE
FBBE
F93E
F83E
F83E
F83E
0000
0000
0000
0000
07C0
07C0
07C0
07C0
07C0
07C0
07C0
07C0
07C0
07C0
07C0
07C0
07C0
07C0
07C0
07C0
07C0
07C0
07C0
07C0
07C0
07C0
07C0
07C0
07C0
07C0
07C0
07C0
07C0
07C0
07C0
ENDCHAR
STARTCHAR 0391
ENCODING 913
SWIDTH 668 0
DWIDTH 39 0
BBX 37 43 1 0
BITMAP
0001FC0000
0001FE0000
0003FE0000
0003FE0000
0003FF0000
0007FF0000
0007DF0000
0007DF8000
000FDF8000
000F8F8000
001F8FC000
001F8FC000
001F07E000
003F07E000
003F07E000
003E03F000
007E03F000
007C03F000
007C01F800
00FC01F800
00F801F800
00F800FC00
01F800FC00
01F000FC00
01F0007E00
03FFFFFE00
03FFFFFE00
07FFFFFF00
07FFFFFF00
07FFFFFF00
0FC0001F80
0FC0001F80
0F80001F80
1F80000FC0
1F80000FC0
1F00000FC0
3F000007E0
3F000007E0
3E000007F0
7E000003F0
7E000003F0
7C000003F8
FC000001F8
ENDCHAR
STARTCHAR 0392
ENCODING 914
SWIDTH 668 0
DWIDTH 39 0
BBX 31 43 5 0
BITMAP
FFFFF800
FFFFFF00
FFFFFFC0
FFFFFFE0
FFFFFFF0
F8000FF0
F80003F8
F80001F8
F80001F8
F80000F8
F80000F8
F80000F8
F80000F8
F80000F8
F80001F8
F80001F0
F80003F0
F8000FE0
FFFFFFC0
FFFFFF00
FFFFFF80
FFFFFFE0
FFFFFFF0
F80007F8
F80001FC
F80000FC
F800007E
F800007E
F800003E
F800003E
F800003E
F800003E
F800003E
F800003E
F800007E
F800007C
F80000FC
F80003FC
FFFFFFF8
FFFFFFF0
FFFFFFE0
FFFFFF80
FFFFFE00
ENDCHAR
STARTCHAR 0393
ENCODING 915
SWIDTH 548 0
DWIDTH 32 0
BBX 27 43 5 0
BITMAP
FFFFFFE0
FFFFFFE0
FFFFFFE0
FFFFFFE0
FFFFFFE0
F8000000
F8000000
F8000000
F8000000
F8000000
F8000000
F8000000
F8000000
F8000000
F8000000
F8000000
F8000000
F8000000
F8000000
F8000000
F8000000
F8000000
F8000000
F8000000
F8000000
F8000000
F8000000
F8000000
F8000000
F8000000
F8000000
F8000000
F8000000
F8000000
F8000000
F8000000
F8000000
F8000000
F8000000
F8000000
F8000000
F8000000
F8000000
ENDCHAR
STARTCHAR 0394
ENCODING 916
SWIDTH 668 0
DWIDTH 39 0
BBX 40 43 -1 0
BITMAP
00007E0000
00007F0000
0000FF0000
0000FF8000
0000FF8000
0001FFC000
0001FFC000
0003F7C000
0003F7E000
0003E3E000
0007E3F000
0007E3F000
000FC1F000
000FC1F800
000F81F800
001F80FC00
001F80FC00
003F007C00
003F007E00
003E007E00
007E003F00
007E003F00
00FC001F00
00FC001F80
00F8001F80
01F8000FC0
01F8000FC0
03F00007C0
03F00007E0
03E00007E0
07E00003F0
07E00003F0
0FC00003F0
0FC00001F8
0FC00001F8
1F800000FC
1F800000FC
3F000000FC
3FFFFFFFFE
3FFFFFFFFE
7FFFFFFFFF
7FFFFFFFFF
FFFFFFFFFF
ENDCHAR
STARTCHAR 0395
ENCODING 917
SWIDTH 668 0
DWIDTH 39 0
BBX 31 43 5 0
BITMAP
FFFFFFFC
FFFFFFFC
FFFFFFFC
FFFFFFFC
FFFFFFFC
FC000000
FC000000
FC000000
FC000000
FC000000
FC000000
FC000000
FC000000
FC000000
FC000000
FC000000
FC000000
FC000000
FFFFFFF8
FFFFFFF8
FFFFFFF8
FFFFFFF8
FFFFFFF8
FC000000
FC000000
FC000000
FC000000
FC000000
FC000000
FC000000
FC000000
FC000000
FC000000
FC000000
FC000000
FC000000
FC000000
FC000000
FFFFFFFE
FFFFFFFE
FFFFFFFE
FFFFFFFE
FFFFFFFE
ENDCHAR
STARTCHAR 0396
ENCODING 918
SWIDTH 617 0
DWIDTH 36 0
BBX 32 43 2 0
BITMAP
7FFFFFFF
7FFFFFFF
7FFFFFFF
7FFFFFFF
7FFFFFFF
0000007E
000000FE
000001FC
000003F8
000003F0
000007F0
00000FE0
00001FC0
00001F80
00003F80
00007F00
0000FE00
0001FC00
0001FC00
0003F800
0007F000
000FE000
000FC000
001FC000
003F8000
007F0000
007E0000
00FE0000
01FC0000
03F80000
03F00000
07F00000
0FE00000
1FC00000
3F800000
3F800000
7F000000
FE000000
FFFFFFFF
FFFFFFFF
FFFFFFFF
FFFFFFFF
FFFFFFFF
ENDCHAR
STARTCHAR 0397
ENCODING 919
SWIDTH 720 0
DWIDTH 42 0
BBX 33 43 5 0
BITMAP
F800001F80
F800001F80
F800001F80
F800001F80
F800001F80
F800001F80
F800001F80
F800001F80
F800001F80
F800001F80
F800001F80
F800001F80
F800001F80
F800001F80
F800001F80
F800001F80
F800001F80
F800001F80
FFFFFFFF80
FFFFFFFF80
FFFFFFFF80
FFFFFFFF80
FFFFFFFF80
F800001F80
F800001F80
F800001F80
F800001F80
F800001F80
F800001F80
F800001F80
F800001F80
F800001F80
F800001F80
F800001F80
F800001F80
F800001F80
F800001F80
F800001F80
F800001F80
F800001F80
F800001F80
F800001F80
F800001F80
ENDCHAR
STARTCHAR 0398
ENCODING 920
SWIDTH 771 0
DWIDTH 45 0
BBX 41 45 2 -1
BITMAP
0000FFC00000
0007FFF80000
001FFFFE0000
007FFFFF8000
00FFFFFFC000
01FF007FE000
03FC000FF000
07F00007F800
0FE00001FC00
1FC00000FC00
1F800000FE00
3F0000007E00
3F0000003F00
3E0000003F00
7E0000003F00
7E0000001F00
7C0000001F80
7C0000001F80
FC0000000F80
FC0000000F80
FC0FFFF80F80
FC0FFFF80F80
FC0FFFF80F80
FC0FFFF80F80
FC0000000F80
FC0000000F80
FC0000000F80
7C0000001F80
7C0000001F80
7E0000001F00
7E0000003F00
3E0000003F00
3F0000003E00
3F8000007E00
1F800000FC00
1FC00001FC00
0FE00001F800
07F00007F800
03FC000FF000
01FF007FE000
00FFFFFFC000
007FFFFF8000
003FFFFE0000
0007FFF80000
0000FF800000
ENDCHAR
STARTCHAR 0399
ENCODING 921
SWIDTH 274 0
DWIDTH 16 0
BBX 5 43 6 0
BITMAP
F8
F8
F8
F8
F8
F8
F8
F8
F8
F8
F8
F8
F8
F8
F8
F8
F8
F8
F8
F8
F8
F8
F8
F8
F8
F8
F8
F8
F8
F8
F8
F8
F8
F8
F8
F8
F8
F8
F8
F8
F8
F8
F8
ENDCHAR
STARTCHAR 039A
ENCODING 922
SWIDTH 668 0
DWIDTH 39 0
BBX 33 43 5 0
BITMAP
F800003F80
F800007F00
F80000FE00
F80001FC00
F80003F800
F80007F000
F8000FE000
F8001FC000
F8003F8000
F8007F0000
F800FE0000
F801FC0000
F803F80000
F807F00000
F80FE00000
F81FC00000
F83F800000
F87F000000
F8FF800000
F9FF800000
FBFFC00000
FFEFE00000
FFC7E00000
FF83F00000
FF03F80000
FE01F80000
FC00FC0000
FC00FE0000
F8007E0000
F8003F0000
F8003F8000
F8001F8000
F8000FC000
F8000FE000
F80007F000
F80003F000
F80001F800
F80001FC00
F80000FC00
F800007E00
F800007F00
F800003F00
F800001F80
ENDCHAR
STARTCHAR 039B
ENCODING 923
SWIDTH 668 0
DWIDTH 39 0
BBX 37 43 1 0
BITMAP
0001FC0000
0003FE0000
0003FE0000
0003FE0000
0007FF0000
0007FF0000
0007DF0000
000FDF8000
000FDF8000
000F8F8000
001F8FC000
001F8FC000
001F07C000
003F07E000
003F07E000
007E03E000
007E03F000
007E03F000
00FC01F800
00FC01F800
00FC01F800
01F800FC00
01F800FC00
01F800FC00
03F0007E00
03F0007E00
03F0007E00
07E0003F00
07E0003F00
07E0003F00
0FC0001F80
0FC0001F80
0FC0001F80
1F80000FC0
1F80000FC0
1F80000FC0
3F000007E0
3F000007E0
7F000007E0
7E000003F0
7E000003F0
FE000003F8
FC000001F8
ENDCHAR
STARTCHAR 039C
ENCODING 924
SWIDTH 840 0
DWIDTH 49 0
BBX 40 43 4 0
BITMAP
FF0000007F
FF000000FF
FF800000FF
FF800000FF
FF800001FF
FFC00001FF
FFC00001FF
FFC00003FF
FFE00003FF
FFE00003DF
FDE00007DF
FDF00007DF
FDF000079F
FCF0000F9F
FCF8000F9F
FCF8000F1F
FC78001F1F
FC7C001F1F
FC7C001E1F
FC3C003E1F
FC3E003E1F
FC3E003C1F
FC1E007C1F
FC1F007C1F
FC1F00781F
FC0F00F81F
FC0F80F81F
FC0F80F01F
FC0781F01F
FC07C1F01F
FC07C1E01F
FC03E3E01F
FC03E3E01F
FC03E3C01F
FC01F7C01F
FC01F7C01F
FC01F7801F
FC00FF801F
FC00FF801F
FC00FF001F
FC007F001F
FC007F001F
FC007E001F
ENDCHAR
STARTCHAR 039D
ENCODING 925
SWIDTH 720 0
DWIDTH 42 0
BBX 34 43 4 0
BITMAP
FE000007C0
FE000007C0
FF000007C0
FF800007C0
FF800007C0
FFC00007C0
FFC00007C0
FFE00007C0
FFF00007C0
FFF00007C0
FDF80007C0
FCFC0007C0
FCFC0007C0
FC7E0007C0
FC3E0007C0
FC3F0007C0
FC1F8007C0
FC1F8007C0
FC0FC007C0
FC07E007C0
FC07E007C0
FC03F007C0
FC01F807C0
FC01F807C0
FC00FC07C0
FC007C07C0
FC007E07C0
FC003F07C0
FC003F07C0
FC001F87C0
FC000FC7C0
FC000FC7C0
FC0007E7C0
FC0003F7C0
FC0003F7C0
FC0001FFC0
FC0001FFC0
FC0000FFC0
FC00007FC0
FC00007FC0
FC00003FC0
FC00001FC0
FC00001FC0
ENDCHAR
STARTCHAR 039E
ENCODING 926
SWIDTH 651 0
DWIDTH 38 0
BBX 30 43 4 0
BITMAP
FFFFFFFC
FFFFFFFC
FFFFFFFC
FFFFFFFC
FFFFFFFC
00000000
00000000
00000000
00000000
00000000
00000000
00000000
00000000
00000000
00000000
00000000
00000000
00000000
3FFFFFF0
3FFFFFF0
3FFFFFF0
3FFFFFF0
3FFFFFF0
00000000
00000000
00000000
00000000
00000000
00000000
00000000
00000000
00000000
00000000
00000000
00000000
00000000
00000000
00000000
FFFFFFFC
FFFFFFFC
FFFFFFFC
FFFFFFFC
FFFFFFFC
ENDCHAR
STARTCHAR 039F
ENCODING 927
SWIDTH 771 0
DWIDTH 45 0
BBX 41 45 2 -1
BITMAP
0000FFC00000
0007FFF80000
001FFFFE0000
007FFFFF8000
00FFFFFFC000
01FF007FE000
03FC000FF000
07F00007F800
0FE00001FC00
1FC00000FC00
1F800000FE00
3F0000007E00
3F0000003F00
3E0000003F00
7E0000003F00
7E0000001F00
7C0000001F80
7C0000001F80
7C0000000F80
FC0000000F80
FC0000000F80
FC0000000F80
FC0000000F80
FC0000000F80
FC0000000F80
FC0000000F80
FC0000000F80
7C0000001F80
7C0000001F80
7E0000001F00
7E0000001F00
3E0000003F00
3F0000003E00
3F8000007E00
1F800000FE00
1FC00000FC00
0FE00001F800
07F00007F800
03FC000FF000
01FF003FE000
00FFFFFFC000
007FFFFF8000
003FFFFE0000
0007FFF80000
0000FF800000
ENDCHAR
STARTCHAR 03A0
ENCODING 928
SWIDTH 720 0
DWIDTH 42 0
BBX 32 43 5 0
BITMAP
FFFFFFFF
FFFFFFFF
FFFFFFFF
FFFFFFFF
FFFFFFFF
F800001F
F800001F
F800001F
F800001F
F800001F
F800001F
F800001F
F800001F
F800001F
F800001F
F800001F
F800001F
F800001F
F800001F
F800001F
F800001F
F800001F
F800001F
F800001F
F800001F
F800001F
F800001F
F800001F
F800001F
F800001F
F800001F
F800001F
F800001F
F800001F
F800001F
F800001F
F800001F
F800001F
F800001F
F800001F
F800001F
F800001F
F800001F
ENDCHAR
STARTCHAR 03A1
ENCODING 929
SWIDTH 668 0
DWIDTH 39 0
BBX 31 43 5 0
BITMAP
FFFFFC00
FFFFFF80
FFFFFFE0
FFFFFFF0
FFFFFFF8
FC0007F8
FC0001FC
FC0000FC
FC0000FE
FC00007E
FC00007E
FC00007E
FC00007E
FC00007E
FC00007E
FC00007E
FC0000FE
FC0000FC
FC0001FC
FC0007F8
FFFFFFF8
FFFFFFF0
FFFFFFC0
FFFFFF80
FFFFFC00
FC000000
FC000000
FC000000
FC000000
FC000000
FC000000
FC000000
FC000000
FC000000
FC000000
FC000000
FC000000
FC000000
FC000000
FC000000
FC000000
FC000000
FC000000
ENDCHAR
STARTCHAR 03A3
ENCODING 931
SWIDTH 617 0
DWIDTH 36 0
BBX 31 43 3 0
BITMAP
FFFFFFFC
FFFFFFFC
FFFFFFFC
FFFFFFFC
FFFFFFFC
FF000000
7F000000
3F800000
1FC00000
0FE00000
07F00000
03F80000
01FC0000
00FE0000
007F0000
003F8000
001FC000
000FE000
0007F000
0003F800
0001FC00
0000FE00
0001FC00
0003F800
0007F000
000FE000
001FC000
003F8000
007F0000
00FE0000
01FC0000
03F80000
07F00000
0FE00000
1FC00000
3F800000
7F000000
FE000000
FFFFFFFE
FFFFFFFE
FFFFFFFE
FFFFFFFE
FFFFFFFE
ENDCHAR
STARTCHAR 03A4
ENCODING 932
SWIDTH 617 0
DWIDTH 36 0
BBX 34 43 1 0
BITMAP
FFFFFFFFC0
FFFFFFFFC0
FFFFFFFFC0
FFFFFFFFC0
FFFFFFFFC0
0003F00000
0003F00000
0003F00000
0003F00000
0003F00000
0003F00000
0003F00000
0003F00000
0003F00000
0003F00000
0003F00000
0003F00000
0003F00000
0003F00000
0003F00000
0003F00000
0003F00000
0003F00000
0003F00000
0003F00000
0003F00000
0003F00000
0003F00000
0003F00000
0003F00000
0003F00000
0003F00000
0003F00000
0003F00000
0003F00000
0003F00000
0003F00000
0003F00000
0003F00000
0003F00000
0003F00000
0003F00000
0003F00000
ENDCHAR
STARTCHAR 03A5
ENCODING 933
SWIDTH 668 0
DWIDTH 39 0
BBX 37 43 1 0
BITMAP
FE000001F8
7E000003F8
7F000003F0
3F800007E0
1F80000FE0
1FC0000FC0
0FC0001FC0
0FE0001F80
07F0003F00
03F0003F00
03F8007E00
01F800FE00
00FC00FC00
00FE01F800
007E01F800
007F03F000
003F03E000
001F87E000
001F8FC000
000FCFC000
0007FF8000
0007FF0000
0003FF0000
0003FE0000
0001FE0000
0000FC0000
0000FC0000
0000FC0000
0000FC0000
0000FC0000
0000FC0000
0000FC0000
0000FC0000
0000FC0000
0000FC0000
0000FC0000
0000FC0000
0000FC0000
0000FC0000
0000FC0000
0000FC0000
0000FC0000
0000FC0000
ENDCHAR
STARTCHAR 03A6
ENCODING 934
SWIDTH 805 0
DWIDTH 47 0
BBX 38 45 4 -1
BITMAP
00007C0000
00007C0000
00007C0000
00007C0000
00007C0000
0000FC0000
001FFFF000
007FFFFC00
01FFFFFF00
03FFFFFF80
07FE7DFFC0
0FF07C1FE0
1FC07C0FE0
1F807C07F0
3F007C03F8
3F007C01F8
7E007C01F8
7E007C00FC
7C007C00FC
7C007C00FC
7C007C00FC
7C007C007C
FC007C007C
7C007C007C
7C007C00FC
7C007C00FC
7C007C00FC
7E007C00F8
7E007C01F8
3F007C01F8
3F007C03F0
1F807C07F0
1FE07C0FE0
0FF07C3FE0
07FE7DFFC0
03FFFFFF80
01FFFFFF00
007FFFFC00
001FFFE000
0000FE0000
00007C0000
00007C0000
00007C0000
00007C0000
00007C0000
ENDCHAR
STARTCHAR 03A7
ENCODING 935
SWIDTH 668 0
DWIDTH 39 0
BBX 36 43 2 0
BITMAP
7E00000FE0
7F00000FC0
3F00001F80
1F80003F80
1FC0003F00
0FC0007E00
07E000FE00
07F000FC00
03F001F800
01F803F800
01FC03F000
00FC07E000
007E07E000
007F0FC000
003F1F8000
001F9F8000
001FBF0000
000FFE0000
0007FC0000
0007FC0000
0003F80000
0003F80000
0007FC0000
0007FE0000
000FFE0000
001FBF0000
001FBF8000
003F1F8000
007E0FC000
00FE0FE000
00FC07E000
01F803F000
03F803F800
03F001F800
07E000FC00
0FE000FE00
0FC0007E00
1F80003F00
3F80003F80
3F00001F80
7F00001FC0
FE00000FE0
FC000007F0
ENDCHAR
STARTCHAR 03A8
ENCODING 936
SWIDTH 840 0
DWIDTH 49 0
BBX 41 43 4 0
BITMAP
F8003E001F80
F8003E001F80
F8003E001F80
F8003E001F80
F8003E001F80
F8003E001F80
F8003E001F80
F8003E001F80
F8003E001F80
F8003E001F80
F8003E001F80
F8003E001F80
F8003E001F80
F8003E001F80
F8003E001F80
F8003E001F80
F8003E001F80
F8003E001F80
F8003E001F80
FC003E001F80
FC003E001F80
FC003E001F00
FC003E001F00
7C003E001F00
7E003E003F00
7E003E007E00
3F003E007E00
3F803E01FC00
1FE03E03FC00
0FFC3E1FF800
07FFFFFFF000
03FFFFFFE000
00FFFFFF8000
003FFFFE0000
0007FFE00000
00003E000000
00003E000000
00003E000000
00003E000000
00003E000000
00003E000000
00003E000000
00003E000000
ENDCHAR
STARTCHAR 03A9
ENCODING 937
SWIDTH 754 0
DWIDTH 44 0
BBX 40 44 2 0
BITMAP
0001FF8000
000FFFF000
003FFFFC00
00FFFFFE00
01FFFFFF80
03FE00FFC0
07F8001FE0
0FE0000FF0
0FC00007F0
1F800003F8
1F800001F8
3F000000FC
3F000000FC
7E0000007C
7E0000007E
7E0000007E
7C0000007E
7C0000003E
7C0000003E
7C0000003E
7C0000003E
7C0000003E
7C0000003E
7C0000003E
7C0000003E
7C0000007E
7E0000007E
7E0000007C
3E0000007C
3F000000FC
3F000000F8
1F000001F8
0F800001F0
0FC00003E0
07E00007E0
03E0000FC0
01F8001F80
00FC003E00
003E00FC00
FFFF01FFFF
FFFF01FFFF
FFFF01FFFF
FFFF01FFFF
FFFF01FFFF
ENDCHAR
STARTCHAR 03AA
ENCODING 938
SWIDTH 274 0
DWIDTH 16 0
BBX 16 54 0 0
BITMAP
FC3F
FC3F
FC3F
FC3F
FC3F
FC3F
0000
0000
0000
0000
0000
03E0
03E0
03E0
03E0
03E0
03E0
03E0
03E0
03E0
03E0
03E0
03E0
03E0
03E0
03E0
03E0
03E0
03E0
03E0
03E0
03E0
03E0
03E0
03E0
03E0
03E0
03E0
03E0
03E0
03E0
03E0
03E0
03E0
03E0
03E0
03E0
03E0
03E0
03E0
03E0
03E0
03E0
03E0
ENDCHAR
STARTCHAR 03AB
ENCODING 939
SWIDTH 668 0
DWIDTH 39 0
BBX 37 54 1 0
BITMAP
001F8FC000
001F8FC000
001F8FC000
001F8FC000
001F8FC000
001F8FC000
0000000000
0000000000
0000000000
0000000000
0000000000
FE000001F8
7E000003F8
7F000003F0
3F800007E0
1F80000FE0
1FC0000FC0
0FC0001FC0
0FE0001F80
07F0003F00
03F0003F00
03F8007E00
01F800FE00
00FC00FC00
00FE01F800
007E01F800
007F03F000
003F03E000
001F87E000
001F8FC000
000FCFC000
0007FF8000
0007FF0000
0003FF0000
0003FE0000
0001FE0000
0000FC0000
0000FC0000
0000FC0000
0000FC0000
0000FC0000
0000FC0000
0000FC0000
0000FC0000
0000FC0000
0000FC0000
0000FC0000
0000FC0000
0000FC0000
0000FC0000
0000FC0000
0000FC0000
0000FC0000
0000FC0000
ENDCHAR
STARTCHAR 03AC
ENCODING 940
SWIDTH 582 0
DWIDTH 34 0
BBX 34 47 0 -1
BITMAP
000F800000
000F800000
000F800000
000F800000
000F800000
000F000000
000F000000
000F000000
0007000000
0006000000
0006000000
0000000000
0000000000
0000000000
003F800000
00FFF007C0
01FFF80FC0
07FFFC0F80
0FFDFE0F80
0FC03F1F80
1F801F1F00
3F000F9F00
3E000FBE00
3E0007FE00
7C0007FE00
7C0003FC00
7C0003FC00
7C0001FC00
FC0001F800
F80000F800
F80001F800
F80001F800
FC0001FC00
7C0003FC00
7C0003FC00
7C0003FE00
7E0007FE00
7E0007BE00
3F000F9F00
3F001F1F00
1F803F1F80
1FC07E0F80
0FFFFE0F80
07FFFC0FC0
03FFF807C0
00FFE007C0
003F800000
ENDCHAR
STARTCHAR 03AD
ENCODING 941
SWIDTH 445 0
DWIDTH 26 0
BBX 25 47 1 -1
BITMAP
003C0000
003C0000
003C0000
003C0000
003C0000
003C0000
003C0000
003C0000
003C0000
00180000
00180000
00000000
00000000
00000000
00FF0000
03FFE000
0FFFF000
1FFFF800
3FF7FC00
3F007E00
7E003E00
7C003F00
7C001F00
7C001F00
7C000000
3E000000
3F000000
1FE00000
0FFF0000
03FF0000
0FFF0000
1FFF0000
3F800000
7E000000
7C000000
F8000000
F8000F80
F8000F80
FC001F80
FC001F00
7E003F00
7F007E00
3FF7FC00
1FFFF800
0FFFF000
07FFC000
00FF0000
ENDCHAR
STARTCHAR 03AE
ENCODING 942
SWIDTH 548 0
DWIDTH 32 0
BBX 24 59 4 -13
BITMAP
001F00
001F00
001F00
001F00
001F00
001F00
001F00
001E00
000E00
000E00
000E00
000C00
000000
000000
001FC0
F87FF8
F8FFFC
F9FFFE
FBE1FF
FF807F
FF003F
FE001F
FC001F
FC001F
FC001F
F8001F
F8001F
F8001F
F8001F
F8001F
F8001F
F8001F
F8001F
F8001F
F8001F
F8001F
F8001F
F8001F
F8001F
F8001F
F8001F
F8001F
F8001F
F8001F
F8001F
F8001F
00001F
00001F
00001F
00001F
00001F
00001F
00001F
00001F
00001F
00001F
00001F
00001F
00001F
ENDCHAR
STARTCHAR 03AF
ENCODING 943
SWIDTH 222 0
DWIDTH 13 0
BBX 5 46 4 0
BITMAP
F8
F8
F8
F8
F8
F8
F8
70
70
70
70
20
00
00
00
F8
F8
F8
F8
F8
F8
F8
F8
F8
F8
F8
F8
F8
F8
F8
F8
F8
F8
F8
F8
F8
F8
F8
F8
F8
F8
F8
F8
F8
F8
F8
ENDCHAR
STARTCHAR 03B0
ENCODING 944
SWIDTH 548 0
DWIDTH 32 0
BBX 24 51 4 -1
BITMAP
003C00
003C00
003C00
003C00
003C00
003C00
003C00
003C00
003C00
0FDBF0
0FDBF0
0FDBF0
0FC3F0
0FC3F0
0FC3F0
000000
000000
000000
000000
F8001F
F8001F
F8001F
F8001F
F8001F
F8001F
F8001F
F8001F
F8001F
F8001F
F8001F
F8001F
F8001F
F8001F
F8001F
F8001F
F8001F
F8001F
F8001F
F8001F
F8001F
F8001F
F8001F
F8001F
FC001F
FC003F
7F00FE
7FFFFE
3FFFFC
1FFFF8
07FFE0
00FF00
ENDCHAR
STARTCHAR 03B1
ENCODING 945
SWIDTH 582 0
DWIDTH 34 0
BBX 33 33 2 -1
BITMAP
007F000000
01FFC01F00
07FFE01F00
0FFFF03E00
1FF7F83E00
1F80FC3E00
3F007C7C00
3E003E7C00
7E003E7C00
7C001FF800
7C000FF800
FC000FF000
F80007F000
F80007F000
F80007E000
F80003E000
F80003E000
F80007E000
F80007F000
F80007F000
F8000FF000
FC000FF800
7C001FF800
7C001F7C00
7E003E7C00
3E007E7C00
3F007C3E00
1F81F83E00
1FFFF83E00
0FFFF01F00
07FFE01F00
01FF801F80
007E000000
ENDCHAR
STARTCHAR 03B2
ENCODING 946
SWIDTH 582 0
DWIDTH 34 0
BBX 26 56 5 -12
BITMAP
00FE0000
07FFC000
1FFFE000
3FFFF000
3F87F800
7E01FC00
FC007C00
F8007E00
F8003E00
F8003E00
F8003E00
F8003E00
F0003E00
F0003E00
F0007E00
F0007C00
F000F800
F007F800
F03FF000
F03FE000
F03FF000
F03FFC00
F000FE00
F0007F00
F0003F00
F0001F80
F0000F80
F0000F80
F0000F80
F0000FC0
F0000FC0
F0000FC0
F0000FC0
F0000F80
F0000F80
F0000F80
F0001F80
F8001F00
FC003F00
FE00FE00
FFFFFE00
FFFFFC00
F7FFF800
F3FFE000
F07F0000
F0000000
F0000000
F0000000
F0000000
F0000000
F0000000
F0000000
F0000000
F0000000
F0000000
F0000000
ENDCHAR
STARTCHAR 03B3
ENCODING 947
SWIDTH 497 0
DWIDTH 29 0
BBX 27 43 1 -12
BITMAP
F80003E0
FC0007E0
7C0007E0
7E0007C0
7E000FC0
3E000F80
3F000F80
1F001F80
1F001F00
1F801F00
0F803E00
0FC03E00
07C07E00
07C07C00
07E07C00
03E0FC00
03E0F800
01F0F800
01F1F000
01F9F000
00F9F000
00FBE000
007FE000
007FE000
007FC000
003FC000
003F8000
001F8000
001F8000
001F0000
001F0000
001F0000
001F0000
001F0000
001F0000
001F0000
001F0000
001F0000
001F0000
001F0000
001F0000
001F0000
001F0000
ENDCHAR
STARTCHAR 03B4
ENCODING 948
SWIDTH 548 0
DWIDTH 32 0
BBX 28 44 2 -1
BITMAP
0FFFFF80
0FFFFF80
0FFFFF80
0FFFFF80
0FE00000
07F00000
01F80000
00FE0000
007F0000
003F8000
000FE000
0007F000
00FFF800
01FFFC00
07FFFF00
0FFFFF00
1FE03F80
1F801FC0
3F000FC0
3E0007E0
7E0003E0
7C0003E0
7C0003F0
7C0001F0
7C0001F0
7C0001F0
FC0001F0
FC0001F0
FC0001F0
7C0001F0
7C0001F0
7C0001F0
7C0003F0
7C0003E0
7E0003E0
3E0007E0
3F0007C0
1F800FC0
1FC03F80
0FFFFF80
07FFFF00
03FFFE00
00FFF800
003FC000
ENDCHAR
STARTCHAR 03B5
ENCODING 949
SWIDTH 445 0
DWIDTH 26 0
BBX 25 33 1 -1
BITMAP
00FF0000
03FFE000
0FFFF000
1FFFF800
3FF7FC00
3F007E00
7E003E00
7C003F00
7C001F00
7C001F00
7C000000
3E000000
3F000000
1FE00000
0FFF0000
03FF0000
0FFF0000
1FFF0000
3F800000
7E000000
7C000000
F8000000
F8000F80
F8000F80
FC001F80
FC001F00
7E003F00
7F007E00
3FF7FC00
1FFFF800
0FFFF000
07FFC000
00FF0000
ENDCHAR
STARTCHAR 03B6
ENCODING 950
SWIDTH 445 0
DWIDTH 26 0
BBX 24 55 2 -12
BITMAP
1FFFFE
1FFFFE
1FFFFE
1FFFFE
0000FE
0003F8
0007F0
000FC0
001F80
003F00
007E00
00FC00
01F800
03F000
03E000
07C000
0FC000
0F8000
1F8000
1F0000
3F0000
3E0000
3E0000
7C0000
7C0000
7C0000
7C0000
FC0000
F80000
F80000
F80000
FC0000
FC0000
7C0000
7C0000
7E0000
3F0000
3FC000
1FFFC0
0FFFFC
07FFFE
01FFFF
0003FF
00001F
00001F
00001F
00001F
00001F
00001F
00001F
00003E
00003E
00003E
00007C
00007C
ENDCHAR
STARTCHAR 03B7
ENCODING 951
SWIDTH 548 0
DWIDTH 32 0
BBX 24 45 4 -13
BITMAP
001FC0
F87FF8
F8FFFC
F9FFFE
FBE1FF
FF807F
FF003F
FE001F
FC001F
FC001F
FC001F
F8001F
F8001F
F8001F
F8001F
F8001F
F8001F
F8001F
F8001F
F8001F
F8001F
F8001F
F8001F
F8001F
F8001F
F8001F
F8001F
F8001F
F8001F
F8001F
F8001F
F8001F
00001F
00001F
00001F
00001F
00001F
00001F
00001F
00001F
00001F
00001F
00001F
00001F
00001F
ENDCHAR
STARTCHAR 03B8
ENCODING 952
SWIDTH 548 0
DWIDTH 32 0
BBX 27 44 3 -1
BITMAP
00FFC000
03FFF000
07FFFC00
0FFFFE00
1FC0FE00
1F003F00
3E001F00
3E000F80
7C000F80
7C0007C0
7C0007C0
F80007C0
F80007C0
F80007C0
F80003C0
F80003C0
F80003E0
F80003E0
FFFFFFE0
FFFFFFE0
FFFFFFE0
FFFFFFE0
F80003E0
F80003E0
F80003E0
F80003E0
F80003E0
F80003C0
F80003C0
F80007C0
F80007C0
F80007C0
7C0007C0
7C0007C0
7C000F80
3E000F80
3E001F80
3F003F00
1F807F00
0FFBFE00
0FFFFC00
07FFF800
01FFE000
007F8000
ENDCHAR
STARTCHAR 03B9
ENCODING 953
SWIDTH 222 0
DWIDTH 13 0
BBX 5 31 4 0
BITMAP
F8
F8
F8
F8
F8
F8
F8
F8
F8
F8
F8
F8
F8
F8
F8
F8
F8
F8
F8
F8
F8
F8
F8
F8
F8
F8
F8
F8
F8
F8
F8
ENDCHAR
STARTCHAR 03BA
ENCODING 954
SWIDTH 497 0
DWIDTH 29 0
BBX 26 31 3 0
BITMAP
F8003F00
F8007E00
F800FC00
F801F800
F803F000
F807E000
F80FC000
F81F8000
F83F0000
F87E0000
F8FC0000
F9FC0000
FBFE0000
FFFE0000
FFFF0000
FF9F8000
FF1F8000
FE0FC000
FC07E000
F807E000
F803F000
F803F000
F801F800
F800FC00
F800FC00
F8007E00
F8007E00
F8003F00
F8001F80
F8001F80
F8000FC0
ENDCHAR
STARTCHAR 03BB
ENCODING 955
SWIDTH 497 0
DWIDTH 29 0
BBX 27 43 1 0
BITMAP
03F00000
01F00000
01F00000
01F80000
00F80000
00F80000
00FC0000
007C0000
007C0000
003E0000
003E0000
003F0000
001F0000
001F0000
003F8000
003F8000
003F8000
007FC000
007FC000
007FC000
00FBE000
00FBE000
01FBF000
01F1F000
01F1F000
03F1F800
03E0F800
03E0F800
07C0FC00
07C07C00
07C07C00
0F803E00
0F803E00
0F803F00
1F001F00
1F001F00
1F001F80
3E000F80
3E000F80
3E000FC0
7C0007C0
7C0007C0
FC0007E0
ENDCHAR
STARTCHAR 03BC
ENCODING 956
SWIDTH 582 0
DWIDTH 34 0
BBX 24 44 5 -13
BITMAP
F8001F
F8001F
F8001F
F8001F
F8001F
F8001F
F8001F
F8001F
F8001F
F8001F
F8001F
F8001F
F8001F
F8001F
F8001F
F8001F
F8001F
F8001F
F8001F
F8001F
F8001F
F8001F
F8003F
F8003F
F8007F
FC00FF
FE01FF
FF87EF
FFFFCF
FFFF8F
FFFF0F
FBF800
F80000
F80000
F80000
F80000
F80000
F80000
F80000
F80000
F80000
F80000
F80000
F80000
ENDCHAR
STARTCHAR 03BD
ENCODING 957
SWIDTH 497 0
DWIDTH 29 0
BBX 27 31 1 0
BITMAP
F80003E0
FC0007E0
7C0007E0
7C0007C0
7E000FC0
3E000F80
3E000F80
3F001F80
1F001F00
1F001F00
1F803E00
0F803E00
0F803E00
0FC07C00
07C07C00
07C07C00
07E0F800
03E0F800
03E1F000
03F1F000
01F1F000
01F3E000
01FBE000
00FBE000
00FFC000
007FC000
007F8000
007F8000
003F8000
003F0000
003F0000
ENDCHAR
STARTCHAR 03BE
ENCODING 958
SWIDTH 445 0
DWIDTH 26 0
BBX 25 55 2 -12
BITMAP
7FFFFC00
7FFFFC00
7FFFFC00
7FFFFC00
01FE0000
07E00000
0F800000
1F800000
1F000000
1F000000
3E000000
3E000000
3F000000
3F000000
1F000000
1F800000
0FE00000
0FF80000
07FFF800
01FFF800
00FFF800
07FFF800
0FFE0000
3FC00000
3F000000
7E000000
7C000000
FC000000
F8000000
F8000000
F8000000
F8000000
F8000000
F8000000
FC000000
7E000000
7F000000
3FE00000
3FFFF000
1FFFFE00
07FFFF00
01FFFF00
0001FF80
00001F80
00000F80
00000F80
00000F80
00000F80
00001F00
00001F00
00001F00
00003E00
00003E00
00003E00
00007C00
ENDCHAR
STARTCHAR 03BF
ENCODING 959
SWIDTH 548 0
DWIDTH 32 0
BBX 28 33 2 -1
BITMAP
003FC000
00FFF800
03FFFE00
07FFFF00
0FFFFF80
1FC03F80
1F800FC0
3F000FC0
3E0007E0
7E0003E0
7C0003E0
7C0003F0
7C0001F0
7C0001F0
FC0001F0
F80001F0
F80001F0
FC0001F0
FC0001F0
7C0001F0
7C0001F0
7C0003F0
7C0003E0
7E0003E0
3E0007E0
3F000FC0
1F800FC0
1FC03F80
0FFFFF80
07FFFF00
03FFFC00
00FFF800
003FC000
ENDCHAR
STARTCHAR 03C0
ENCODING 960
SWIDTH 685 0
DWIDTH 40 0
BBX 32 31 4 0
BITMAP
FFFFFFFF
FFFFFFFF
FFFFFFFF
FFFFFFFF
0F8001F0
0F8001F0
0F8001F0
0F8001F0
0F8001F0
0F8001F0
0F8001F0
0F8001F0
0F8001F0
0F8001F0
0F8001F0
0F8001F0
0F8001F0
0F8001F0
0F8001F0
0F8001F0
0F8001F0
0F8001F0
0F8001F0
0F8001F0
0F8001F0
0F8001F0
0F8001F0
0F8001F0
0F8001F0
0F8001F0
0F8001F0
ENDCHAR
STARTCHAR 03C1
ENCODING 961
SWIDTH 565 0
DWIDTH 33 0
BBX 28 44 3 -12
BITMAP
001FC000
00FFF800
03FFFC00
07FFFE00
0FFFFF00
1FC03F80
1F801FC0
3F000FC0
3E0007C0
7E0007E0
7C0003E0
7C0003E0
7C0003F0
7C0003F0
780001F0
F80001F0
F80001F0
F80001F0
F80001F0
FC0001F0
FC0003F0
FC0003E0
FC0003E0
FE0007E0
FE0007C0
FF000FC0
FF801FC0
FFC03F80
FFFFFF00
FBFFFE00
F9FFFC00
F87FF800
F81FC000
F8000000
F8000000
F8000000
F8000000
F8000000
F8000000
F8000000
F8000000
F8000000
F8000000
F8000000
ENDCHAR
STARTCHAR 03C2
ENCODING 962
SWIDTH 480 0
DWIDTH 28 0
BBX 26 44 2 -12
BITMAP
003FC000
01FFF000
03FFFC00
0FFFFE00
1FFFFF00
1FC03F80
3F001F80
7E000FC0
7C000FC0
7C0007C0
F80007C0
F8000000
F8000000
F8000000
F8000000
F8000000
F8000000
F8000000
F8000000
F8000000
FC000000
7E000000
7E000000
3F000000
3FC00000
1FF00000
0FFE0000
07FF8000
01FFF000
007FFE00
000FFF00
0001FF80
00003F80
00001F80
00000F80
00000F80
00000F80
00000F80
00001F00
00001F00
00001F00
00003E00
00003E00
00003E00
ENDCHAR
STARTCHAR 03C3
ENCODING 963
SWIDTH 617 0
DWIDTH 36 0
BBX 30 33 4 -1
BITMAP
003FC000
01FFFFFC
07FFFFFC
0FFFFFFC
1FFFFFFC
3F807E00
3F001F00
7E000F80
7C000FC0
7C0007C0
F80007C0
F80007E0
F80003E0
F80003E0
F80003E0
F80003E0
F80003E0
F80003E0
F80003E0
F80003E0
F80003E0
F80003E0
FC0007C0
FC0007C0
7C000FC0
7E000F80
3F001F80
3F807F00
1FFFFF00
0FFFFE00
07FFFC00
01FFF000
007F8000
ENDCHAR
STARTCHAR 03C4
ENCODING 964
SWIDTH 394 0
DWIDTH 23 0
BBX 25 31 -1 0
BITMAP
FFFFFF80
FFFFFF80
FFFFFF80
FFFFFF80
003E0000
003E0000
003E0000
003E0000
003E0000
003E0000
003E0000
003E0000
003E0000
003E0000
003E0000
003E0000
003E0000
003E0000
003E0000
003E0000
003E0000
003E0000
003E0000
003E0000
003E0000
003E0000
003E0000
003E0000
003E0000
003E0000
003E0000
ENDCHAR
STARTCHAR 03C5
ENCODING 965
SWIDTH 548 0
DWIDTH 32 0
BBX 24 32 4 -1
BITMAP
F8001F
F8001F
F8001F
F8001F
F8001F
F8001F
F8001F
F8001F
F8001F
F8001F
F8001F
F8001F
F8001F
F8001F
F8001F
F8001F
F8001F
F8001F
F8001F
F8001F
F8001F
F8001F
F8001F
F8001F
FC001F
FC003F
7F00FE
7FFFFE
3FFFFC
1FFFF8
07FFE0
00FF00
ENDCHAR
STARTCHAR 03C6
ENCODING 966
SWIDTH 651 0
DWIDTH 38 0
BBX 33 44 2 -12
BITMAP
0003F80000
00C3FF0000
01C3FFC000
07C3FFF000
0FC3FFF800
1FC3E1FC00
1F83E0FE00
3F03E07E00
7E03E03F00
7C03E01F00
7C03E01F80
FC03E01F80
FC03E00F80
F803E00F80
F803E00F80
F803E00F80
F803E00F80
F803E00F80
F803E00F80
F803E00F80
FC03E00F80
FC03E01F80
7C03E01F80
7E03E01F00
7E03E03F00
3F03E07E00
1F83E0FE00
1FE3E1FC00
0FFFFFF800
07FFFFF000
01FFFFC000
00FFFF8000
000FF80000
0003E00000
0003E00000
0003E00000
0003E00000
0003E00000
0003E00000
0003E00000
0003E00000
0003E00000
0003E00000
0003E00000
ENDCHAR
STARTCHAR 03C7
ENCODING 967
SWIDTH 531 0
DWIDTH 31 0
BBX 27 43 2 -12
BITMAP
FC000FC0
7E000F80
7E001F80
3F001F00
3F003F00
1F003E00
1F807E00
0F807C00
0FC07C00
07C0F800
07E0F800
03E1F000
03F1F000
01F3E000
01FBE000
00FFC000
00FFC000
007F8000
007F8000
003F0000
003F0000
003F0000
003F8000
007F8000
007FC000
00FFC000
00FFE000
01F3E000
01F3F000
03F1F000
03E1F800
07E0F800
07C0FC00
0FC07C00
0F807E00
1F803E00
1F003F00
3F001F00
3E001F80
3E000F80
7C000FC0
7C000FC0
F80007E0
ENDCHAR
STARTCHAR 03C8
ENCODING 968
SWIDTH 720 0
DWIDTH 42 0
BBX 32 44 5 -13
BITMAP
F803E01F
F803E01F
F803E01F
F803E01F
F803E01F
F803E01F
F803E01F
F803E01F
F803E01F
F803E01F
F803E01F
F803E01F
F803E01F
F803E01F
F803E01F
F803E01F
F803E01F
F803E01F
F803E01F
F803E01F
F803E01F
FC03E01F
7C03E01F
7C03E03F
7E03E03E
3F03E07E
3F83E1FC
1FFBFFFC
0FFFFFF8
07FFFFE0
01FFFF80
003FFC00
0003E000
0003E000
0003E000
0003E000
0003E000
0003E000
0003E000
0003E000
0003E000
0003E000
0003E000
0003E000
ENDCHAR
STARTCHAR 03C9
ENCODING 969
SWIDTH 788 0
DWIDTH 46 0
BBX 35 32 5 -1
BITMAP
03F000FC00
07E0007C00
0FC0007E00
0F80003F00
1F80001F00
1F00001F80
3F00000F80
3E01F00FC0
7E01F007C0
7C01F007C0
7C01F007E0
7C01F003E0
7C01F003E0
F801F003E0
F801F003E0
F801F003E0
F801F003E0
F801F003E0
F801F003E0
F801F003E0
F801F003E0
FC01F003E0
7C01F003E0
7C01F007E0
7E01F807C0
3E03F80FC0
3F03FC0F80
1FCFBF3F80
1FFF9FFF00
0FFF0FFE00
07FE07FC00
01F803F000
ENDCHAR
STARTCHAR 03CA
ENCODING 970
SWIDTH 222 0
DWIDTH 13 0
BBX 16 42 -2 0
BITMAP
FE3F
FE3F
FE3F
FE3F
FE3F
FE3F
0000
0000
0000
0000
0000
03E0
03E0
03E0
03E0
03E0
03E0
03E0
03E0
03E0
03E0
03E0
03E0
03E0
03E0
03E0
03E0
03E0
03E0
03E0
03E0
03E0
03E0
03E0
03E0
03E0
03E0
03E0
03E0
03E0
03E0
03E0
ENDCHAR
STARTCHAR 03CB
ENCODING 971
SWIDTH 548 0
DWIDTH 32 0
BBX 24 43 4 -1
BITMAP
0FC3F0
0FC3F0
0FC3F0
0FC3F0
0FC3F0
0FC3F0
000000
000000
000000
000000
000000
F8001F
F8001F
F8001F
F8001F
F8001F
F8001F
F8001F
F8001F
F8001F
F8001F
F8001F
F8001F
F8001F
F8001F
F8001F
F8001F
F8001F
F8001F
F8001F
F8001F
F8001F
F8001F
F8001F
F8001F
FC001F
FC003F
7F00FE
7FFFFE
3FFFFC
1FFFF8
07FFE0
00FF00
ENDCHAR
STARTCHAR 03CC
ENCODING 972
SWIDTH 548 0
DWIDTH 32 0
BBX 28 47 2 -1
BITMAP
000F8000
000F8000
000F8000
000F8000
000F8000
000F8000
000F0000
000F0000
00070000
00070000
00060000
00000000
00000000
00000000
003FC000
00FFF800
03FFFE00
07FFFF00
0FFFFF80
1FC03F80
1F800FC0
3F000FC0
3E0007E0
7E0003E0
7C0003E0
7C0003F0
7C0001F0
7C0001F0
FC0001F0
F80001F0
F80001F0
FC0001F0
FC0001F0
7C0001F0
7C0001F0
7C0003F0
7C0003E0
7E0003E0
3E0007E0
3F000FC0
1F800FC0
1FC03F80
0FFFFF80
07FFFF00
03FFFC00
00FFF800
003FC000
ENDCHAR
STARTCHAR 03CD
ENCODING 973
SWIDTH 548 0
DWIDTH 32 0
BBX 24 47 4 -1
BITMAP
003C00
003C00
003C00
003C00
003C00
003C00
003C00
003C00
003C00
001800
001800
001800
000000
000000
000000
F8001F
F8001F
F8001F
F8001F
F8001F
F8001F
F8001F
F8001F
F8001F
F8001F
F8001F
F8001F
F8001F
F8001F
F8001F
F8001F
F8001F
F8001F
F8001F
F8001F
F8001F
F8001F
F8001F
F8001F
FC001F
FC003F
7F00FE
7FFFFE
3FFFFC
1FFFF8
07FFE0
00FF00
ENDCHAR
STARTCHAR 03CE
ENCODING 974
SWIDTH 788 0
DWIDTH 46 0
BBX 35 47 5 -1
BITMAP
0001F00000
0001F00000
0001F00000
0001F00000
0001F00000
0001F00000
0000F00000
0000F00000
0000E00000
0000E00000
0000600000
0000600000
0000000000
0000000000
0000000000
03F000FC00
07E0007C00
0FC0007E00
0F80003F00
1F80001F00
1F00001F80
3F00000F80
3E01F00FC0
7E01F007C0
7C01F007C0
7C01F007E0
7C01F003E0
7C01F003E0
F801F003E0
F801F003E0
F801F003E0
F801F003E0
F801F003E0
F801F003E0
F801F003E0
F801F003E0
FC01F003E0
7C01F003E0
7C01F007E0
7E01F807C0
3E03F80FC0
3F03FC0F80
1FCFBF3F80
1FFF9FFF00
0FFF0FFE00
07FE07FC00
01F803F000
ENDCHAR
STARTCHAR 03D1
ENCODING 977
SWIDTH 548 0
DWIDTH 32 0
BBX 31 45 0 -1
BITMAP
001FE000
007FF800
00FFFC00
01FFFF00
03FC7F00
03E01F80
07C00FC0
07C007C0
078003E0
078003E0
0F8001E0
078001F0
07C001F0
07C001F0
07C001F0
03E000F0
03F000F0
01FC00F0
00FF00F0
007FF0F0
003FFFFE
000FFFFE
0003FFFE
00001FFE
000000F0
000000F0
FE0000F0
FE0000F0
FE0001F0
FE0001F0
1E0001F0
1E0001F0
1F0001F0
1F0001F0
1F0001E0
1F0003E0
0F8003E0
0F8007C0
0FC00FC0
07E01F80
03FEFF80
03FFFF00
01FFFE00
007FF800
001FE000
ENDCHAR
STARTCHAR 03D5
ENCODING 981
SWIDTH 565 0
DWIDTH 33 0
BBX 31 52 1 -13
BITMAP
0007C000
0007C000
0007C000
0007C000
0007C000
0007C000
0007C000
0007C000
00FFFC00
03FFFF00
07FFFFC0
0FFFFFE0
1FE7CFF0
1F87C3F0
3F07C1F8
7E07C0F8
7C07C0FC
7C07C07C
FC07C07C
F807C07E
F807C03E
F807C03E
F807C03E
F807C03E
F807C03E
F807C03E
F807C03E
F807C03E
F807C07E
FC07C07C
7C07C07C
7C07C0FC
7E07C0F8
3F07C1F8
1F87C3F0
1FE7CFE0
0FFFFFE0
07FFFF80
01FFFF00
007FFC00
0007C000
0007C000
0007C000
0007C000
0007C000
0007C000
0007C000
0007C000
0007C000
0007C000
0007C000
0007C000
ENDCHAR
STARTCHAR 03D6
ENCODING 982
SWIDTH 788 0
DWIDTH 46 0
BBX 36 32 4 -1
BITMAP
FFFFFC0000
FFFFFFC000
FFFFFFF000
FFFFFFFC00
07E007FE00
0FC000FF00
0F80003F80
1F80001FC0
3F00000FC0
3E000007E0
3E000003E0
7C000003F0
7C000003F0
7C00F801F0
7C00F801F0
7C00F801F0
7C00F801F0
7C00F801F0
7C00F801F0
7C00F801F0
7C00F801F0
7C00F801F0
7C00FC01F0
7E01FC01F0
3E01FC03E0
3F01FE03E0
1F03FE07C0
1FFFFFDFC0
0FFFDFFF80
07FF8FFF00
03FF07FE00
00FC01F800
ENDCHAR
STARTCHAR 0400
ENCODING 1024
SWIDTH 668 0
DWIDTH 39 0
BBX 31 55 5 0
BITMAP
00FE0000
007E0000
003F0000
001F8000
000F8000
0007C000
0003E000
0001E000
00000000
00000000
00000000
00000000
FFFFFFFC
FFFFFFFC
FFFFFFFC
FFFFFFFC
FFFFFFFC
FC000000
FC000000
FC000000
FC000000
FC000000
FC000000
FC000000
FC000000
FC000000
FC000000
FC000000
FC000000
FC000000
FFFFFFF8
FFFFFFF8
FFFFFFF8
FFFFFFF8
FFFFFFF8
FC000000
FC000000
FC000000
FC000000
FC000000
FC000000
FC000000
FC000000
FC000000
FC000000
FC000000
FC000000
FC000000
FC000000
FC000000
FFFFFFFE
FFFFFFFE
FFFFFFFE
FFFFFFFE
FFFFFFFE
ENDCHAR
STARTCHAR 0401
ENCODING 1025
SWIDTH 668 0
DWIDTH 39 0
BBX 30 54 5 0
BITMAP
01F8FE00
01F8FE00
01F8FE00
01F8FE00
01F8FE00
01F8FE00
00000000
00000000
00000000
00000000
00000000
FFFFFFF8
FFFFFFF8
FFFFFFF8
FFFFFFF8
FFFFFFF8
F8000000
F8000000
F8000000
F8000000
F8000000
F8000000
F8000000
F8000000
F8000000
F8000000
F8000000
F8000000
F8000000
FFFFFFF8
FFFFFFF8
FFFFFFF8
FFFFFFF8
FFFFFFF8
F8000000
F8000000
F8000000
F8000000
F8000000
F8000000
F8000000
F8000000
F8000000
F8000000
F8000000
F8000000
F8000000
F8000000
F8000000
FFFFFFFC
FFFFFFFC
FFFFFFFC
FFFFFFFC
FFFFFFFC
ENDCHAR
STARTCHAR 0402
ENCODING 1026
SWIDTH 857 0
DWIDTH 50 0
BBX 44 43 1 0
BITMAP
FFFFFFF80000
FFFFFFF80000
FFFFFFF80000
FFFFFFF80000
FFFFFFF80000
0003F0000000
0003F0000000
0003F0000000
0003F0000000
0003F0000000
0003F0000000
0003F0000000
0003F0000000
0003F0000000
0003F03FF000
0003F1FFFE00
0003F3FFFF80
0003F7FFFFC0
0003FFFFFFE0
0003FF001FE0
0003FC0007F0
0003F80003F0
0003F00003F0
0003F00001F0
0003F00001F0
0003F00001F0
0003F00001F0
0003F00001F0
0003F00001F0
0003F00001F0
0003F00001F0
0003F00001F0
0003F00001F0
0003F00001F0
0003F00001F0
0003F00001F0
0003F00003F0
0003F00007F0
0003F01FFFE0
0003F01FFFC0
0003F01FFF80
0003F01FFF00
0003F01FFC00
ENDCHAR
STARTCHAR 0403
ENCODING 1027
SWIDTH 548 0
DWIDTH 32 0
BBX 27 55 5 0
BITMAP
000FE000
001F8000
001F0000
003E0000
007C0000
00780000
00F00000
00E00000
01000000
00000000
00000000
00000000
FFFFFFE0
FFFFFFE0
FFFFFFE0
FFFFFFE0
FFFFFFE0
FC000000
FC000000
FC000000
FC000000
FC000000
FC000000
FC000000
FC000000
FC000000
FC000000
FC000000
FC000000
FC000000
FC000000
FC000000
FC000000
FC000000
FC000000
FC000000
FC000000
FC000000
FC000000
FC000000
FC000000
FC000000
FC000000
FC000000
FC000000
FC000000
FC000000
FC000000
FC000000
FC000000
FC000000
FC000000
FC000000
FC000000
FC000000
ENDCHAR
STARTCHAR 0404
ENCODING 1028
SWIDTH 720 0
DWIDTH 42 0
BBX 40 45 1 -1
BITMAP
0000FFC000
000FFFF800
003FFFFE00
007FFFFF00
01FFFFFFC0
03FF007FE0
07F8001FF0
07F00007F0
0FE00003F8
1FC00001FC
1F800000FC
3F0000007E
3F0000007E
7E0000003C
7E00000000
7C00000000
7C00000000
FC00000000
FC00000000
FC00000000
FFFFFF0000
FFFFFF0000
FFFFFF0000
FFFFFF0000
FFFFFF0000
FC00000000
FC00000000
FC00000000
FC00000000
7C0000001E
7E0000003F
7E0000003F
3F0000007E
3F0000007E
3F800000FC
1FC00001FC
0FE00003F8
0FF00007F0
07F8000FF0
03FF007FE0
01FFFFFFC0
00FFFFFF00
003FFFFE00
000FFFF800
0000FF8000
ENDCHAR
STARTCHAR 0405
ENCODING 1029
SWIDTH 668 0
DWIDTH 39 0
BBX 33 45 3 -1
BITMAP
001FF80000
00FFFF0000
03FFFFC000
07FFFFF000
0FFFFFF800
1FE003FC00
1F8001FC00
3F00007E00
3E00007E00
7E00003E00
7E00003F00
7E00003F00
7E00001F00
7E00000000
7E00000000
7F00000000
3F80000000
3FE0000000
1FFE000000
0FFFC00000
07FFFC0000
03FFFFC000
007FFFF000
0007FFF800
0000FFFC00
00000FFE00
000001FF00
0000007F00
0000003F80
0000001F80
F800001F80
F800000F80
F800000F80
F800000F80
FC00000F80
7C00001F80
7E00001F00
7F00003F00
3F80007E00
1FF001FE00
0FFFFFFC00
07FFFFF800
03FFFFE000
00FFFF8000
000FFC0000
ENDCHAR
STARTCHAR 0406
ENCODING 1030
SWIDTH 274 0
DWIDTH 16 0
BBX 6 43 5 0
BITMAP
FC
FC
FC
FC
FC
FC
FC
FC
FC
FC
FC
FC
FC
FC
FC
FC
FC
FC
FC
FC
FC
FC
FC
FC
FC
FC
FC
FC
FC
FC
FC
FC
FC
FC
FC
FC
FC
FC
FC
FC
FC
FC
FC
ENDCHAR
ENDFONT
